<svg width="86" height="64" viewBox="0 0 86 64" fill="none" xmlns="http://www.w3.org/2000/svg">
<path d="M42.9338 45.1316C46.7272 41.7237 49.123 36.8553 49.123 31.5C49.123 26.0474 46.7272 21.179 42.9338 17.8685C39.5397 14.9474 35.1474 13.0974 30.2559 13.0974C19.7742 13.0974 11.2891 21.3737 11.2891 31.5C11.2891 41.7237 19.7742 50 30.2559 50C35.1474 49.9026 39.5397 48.0526 42.9338 45.1316Z" fill="#3362AB"/>
<path d="M42.9297 45.1315C46.7231 41.7236 49.1189 36.8552 49.1189 31.5C49.1189 26.0473 46.7231 21.1789 42.9297 17.8684" fill="#3362AB"/>
<path d="M42.9297 45.1315C46.7231 41.7236 49.1189 36.8552 49.1189 31.5C49.1189 26.0473 46.7231 21.1789 42.9297 17.8684" stroke="#3362AB" stroke-width="0.3097"/>
<path d="M55.6145 13C50.723 13 46.2308 14.85 42.9366 17.771C42.2378 18.3553 41.6389 19.0368 41.0399 19.7184H44.8333C45.3324 20.3026 45.8315 20.9842 46.2308 21.6658H39.5425C39.1432 22.25 38.7439 22.9316 38.4444 23.6131H47.3289C47.6284 24.2947 47.9279 24.8789 48.1275 25.5605H37.6458C37.4462 26.2421 37.2465 26.8263 37.0469 27.5079H48.6267C48.9261 28.7737 49.026 30.0394 49.026 31.4026C49.026 33.4473 48.7265 35.3947 48.0277 37.2447H37.546C37.7457 37.9263 38.0451 38.6079 38.3446 39.1921H47.2291C46.9296 39.8736 46.5303 40.5552 46.131 41.1394H39.4427C39.842 41.821 40.3411 42.5026 40.8402 43.0868H44.6336C44.0347 43.7684 43.4357 44.45 42.7369 45.0342C46.131 47.9552 50.5233 49.8052 55.4148 49.8052C65.8965 49.8052 74.2818 41.5289 74.2818 31.3052C74.5813 21.2763 66.0962 13 55.6145 13Z" fill="#C9191B"/>
<path d="M27.858 35.9789H25.4622L26.8597 28.7737L23.6653 35.9789H21.569L21.1697 28.8711L19.7721 35.9789H17.6758L19.4726 26.6316H23.1662L23.3658 32.4737L25.9613 26.6316H29.7547L27.858 35.9789Z" fill="white"/>
<path d="M54.2148 35.979C53.6158 36.1737 53.0169 36.2711 52.5178 36.2711C51.3199 36.2711 50.6211 35.6869 50.6211 34.6158C50.6211 34.4211 50.6211 34.129 50.7209 33.9343L50.8207 33.1553L50.9206 32.5711L52.0186 26.729H54.3146L54.0152 28.4816H55.2131L54.9136 30.3316H53.7157L53.1167 33.5448C53.1167 33.6422 53.1167 33.8369 53.1167 33.8369C53.1167 34.2264 53.4162 34.4211 53.9153 34.4211C54.2148 34.4211 54.4145 34.4211 54.5143 34.3237L54.2148 35.979Z" fill="white"/>
<path d="M61.0052 28.4816C60.8055 28.3843 60.8055 28.3843 60.7057 28.3843C60.6058 28.3843 60.506 28.3843 60.506 28.3843C60.4062 28.3843 60.3064 28.3843 60.2065 28.3843C59.4079 28.3843 58.9088 28.6764 58.1102 29.6501L58.3099 28.4816H56.4132L55.0156 36.0764H57.4114C58.21 31.4027 58.6093 30.6237 59.7074 30.6237C59.8072 30.6237 59.9071 30.6237 60.0069 30.6237L60.3064 30.7211L61.0052 28.4816Z" fill="white"/>
<path d="M44.832 30.8184C44.832 31.7921 45.431 32.4737 46.6289 32.9605C47.6272 33.35 47.727 33.4474 47.727 33.8369C47.727 34.3237 47.3277 34.5184 46.3294 34.5184C45.6306 34.5184 44.9318 34.4211 44.2331 34.2263L43.9336 35.979H44.0334L44.4327 36.0763C44.5325 36.0763 44.832 36.1737 45.0317 36.1737C45.6306 36.1737 46.0299 36.2711 46.3294 36.2711C48.825 36.2711 50.023 35.4921 50.023 33.7395C50.023 32.6684 49.5238 32.0842 48.3259 31.5974C47.3277 31.2079 47.2278 31.1105 47.2278 30.7211C47.2278 30.3316 47.6271 30.1369 48.4257 30.1369C48.9249 30.1369 49.5238 30.1369 50.1228 30.2342L50.4223 28.4816C49.8233 28.3842 48.9249 28.2869 48.3259 28.2869C45.7305 28.2869 44.832 29.4553 44.832 30.8184Z" fill="white"/>
<path d="M33.8502 32.6684C33.5507 32.6684 33.4509 32.6684 33.3511 32.6684C32.0534 32.6684 31.3546 33.0579 31.3546 33.8369C31.3546 34.3237 31.6541 34.6158 32.1532 34.6158C33.0516 34.5184 33.7504 33.7395 33.8502 32.6684ZM35.5473 35.979H33.5507L33.6506 35.2C33.0516 35.7842 32.253 36.0763 31.1549 36.0763C29.8572 36.0763 29.0586 35.2 29.0586 34.0316C29.0586 32.1816 30.556 31.1105 33.1515 31.1105C33.4509 31.1105 33.7504 31.1105 34.1497 31.2079C34.2495 30.9158 34.2495 30.8184 34.2495 30.7211C34.2495 30.2342 33.8502 30.0395 32.7521 30.0395C32.0533 30.0395 31.3546 30.1369 30.8554 30.2342L30.556 30.3316L30.3563 30.429L30.6558 28.6763C31.8537 28.3842 32.5525 28.2869 33.4509 28.2869C35.4474 28.2869 36.5455 29.0658 36.5455 30.5263C36.5455 30.9158 36.5455 31.2079 36.3459 31.9869L35.8467 34.7132L35.7469 35.2L35.6471 35.5895V35.8816L35.5473 35.979Z" fill="white"/>
<path d="M42.0347 31.3053C42.0347 31.1105 42.0347 31.0131 42.0347 30.9158C42.0347 30.3316 41.6354 29.9421 40.9366 29.9421C40.138 29.9421 39.6389 30.4289 39.4392 31.3053H42.0347ZM43.2326 35.8816C42.434 36.0763 41.6354 36.1737 40.8368 36.1737C38.2413 36.1737 36.8438 35.0052 36.8438 32.7658C36.8438 30.1368 38.5408 28.1895 40.9366 28.1895C42.8333 28.1895 44.131 29.2605 44.131 30.9158C44.131 31.5 44.0312 31.9868 43.8315 32.7658H39.1398C39.1398 32.8631 39.1398 32.9605 39.1398 32.9605C39.1398 33.8368 39.8385 34.3237 41.2361 34.3237C42.0347 34.3237 42.8333 34.1289 43.7317 33.8368L43.2326 35.8816Z" fill="white"/>
<path d="M65.8914 31.5974C65.8914 30.8184 65.592 30.0395 64.5937 30.0395C63.3958 30.0395 62.697 31.4027 62.697 32.6684C62.697 33.7395 63.1962 34.4211 64.0946 34.4211C64.5937 34.4211 65.6918 33.7395 65.8914 32.5711C65.8914 32.279 65.8914 31.8895 65.8914 31.5974ZM68.3871 32.5711C67.9878 35.1026 66.1909 36.2711 63.7951 36.2711C61.0998 36.2711 60.1016 34.7132 60.1016 32.7658C60.1016 30.0395 61.8984 28.2869 64.6935 28.2869C67.1892 28.2869 68.3871 29.7474 68.3871 31.6948C68.4869 32.0842 68.4869 32.0842 68.3871 32.5711Z" fill="white"/>
</svg>
