<svg width="86" height="64" viewBox="0 0 86 64" fill="none" xmlns="http://www.w3.org/2000/svg">
<path d="M72.6485 22.2859H68.3108C66.9993 22.2859 65.9906 22.6668 65.3853 23.9049L57.1133 41.7145H62.9642C62.9642 41.7145 63.973 39.3335 64.1748 38.7621C64.78 38.7621 70.5301 38.7621 71.3371 38.7621C71.5389 39.4287 72.0433 41.6192 72.0433 41.6192H77.2889L72.6485 22.2859ZM65.7888 34.7621C66.2932 33.6192 68.0081 29.3335 68.0081 29.3335C68.0081 29.4287 68.5125 28.1907 68.7143 27.524L69.1178 29.2383C69.1178 29.2383 70.2275 33.9049 70.4292 34.8573H65.7888V34.7621Z" fill="#3362AB"/>
<path d="M57.5162 35.3333C57.5162 39.3333 53.6828 42 47.731 42C45.2091 42 42.788 41.5238 41.4766 40.9524L42.2836 36.5714L42.9897 36.8571C44.8055 37.619 46.0161 37.9048 48.2354 37.9048C49.8495 37.9048 51.5644 37.3333 51.5644 36C51.5644 35.1429 50.8582 34.5714 48.6389 33.619C46.5205 32.6667 43.6959 31.1429 43.6959 28.381C43.6959 24.5714 47.6301 22 53.1784 22C55.2969 22 57.1127 22.381 58.2223 22.8571L57.4153 27.0476L57.0118 26.6667C56.003 26.2857 54.6916 25.9048 52.7749 25.9048C50.6565 26 49.6477 26.8571 49.6477 27.619C49.6477 28.4762 50.8582 29.1429 52.7749 30C56.003 31.4286 57.5162 33.0476 57.5162 35.3333Z" fill="#3362AB"/>
<path d="M8.28906 22.4762L8.38994 22.0952H17.0655C18.276 22.0952 19.1839 22.4762 19.4865 23.7143L21.4032 32.2857C19.4865 27.7143 15.0479 24 8.28906 22.4762Z" fill="#F9B50B"/>
<path d="M33.612 22.2857L24.8356 41.619H18.8838L13.8398 25.4285C17.4715 27.619 20.4978 31.0476 21.6075 33.4285L22.2127 35.4285L27.6602 22.1904H33.612V22.2857Z" fill="#3362AB"/>
<path d="M35.9253 22.1904H41.4736L37.9428 41.619H32.3945L35.9253 22.1904Z" fill="#3362AB"/>
</svg>
