<svg width="56" height="56" viewBox="0 0 56 56" fill="none" xmlns="http://www.w3.org/2000/svg">
<path d="M28.9631 26.2727C33.3473 25.0614 36.5656 20.0005 36.5656 14.1172C36.5656 7.26273 32.2453 1.68652 26.9347 1.68652C21.6244 1.68652 17.3037 7.26273 17.3037 14.1172C17.3037 20.0005 20.5225 25.0614 24.9066 26.2727L24.2487 28.2863C24.1818 28.491 24.2168 28.715 24.3432 28.8895C24.4696 29.0636 24.6717 29.1669 24.887 29.1669H26.2636C26.2636 29.1752 26.2623 29.1835 26.2623 29.1918V48.8439C26.2623 49.2149 26.5628 49.5158 26.9342 49.5158C27.3052 49.5158 27.6062 49.2149 27.6062 48.8439V29.1918C27.6062 29.1835 27.6053 29.1752 27.6048 29.1669H28.9815C29.1963 29.1669 29.3988 29.0636 29.5248 28.8895C29.6513 28.715 29.6867 28.491 29.6198 28.2863L28.9631 26.2727ZM25.8139 27.8234L26.4137 25.987C26.474 25.8011 26.4508 25.5981 26.3498 25.431C26.2487 25.2635 26.0799 25.1484 25.8874 25.1161C21.76 24.4153 18.6476 19.6868 18.6476 14.1167C18.6476 8.00378 22.3659 3.02994 26.9347 3.02994C31.5039 3.02994 35.2218 8.00378 35.2218 14.1167C35.2218 19.6868 32.1097 24.4153 27.9828 25.1161C27.7899 25.1484 27.621 25.2635 27.52 25.431C27.4189 25.5981 27.3957 25.8011 27.4566 25.987L28.0559 27.8234H25.8139Z" fill="#AE8646"/>
<path d="M27.8824 6.60576C28.4104 6.81486 29.5701 7.62634 30.5701 9.34115C31.3737 10.7187 32.2849 13.0906 32.0618 16.5696C32.0378 16.9397 32.3186 17.2595 32.6887 17.2831C32.7036 17.284 32.7184 17.2844 32.7324 17.2844C33.0868 17.284 33.3794 17.0093 33.4022 16.6558C33.6471 12.8386 32.6283 10.2029 31.7307 8.66398C30.6235 6.76456 29.2319 5.69542 28.3776 5.3564C28.0329 5.21991 27.6422 5.38877 27.5053 5.73348C27.3688 6.07863 27.5377 6.46928 27.8824 6.60576Z" fill="#AE8646"/>
<path d="M43.284 16.5957C38.591 16.5957 34.7729 21.5127 34.7729 27.5565C34.7729 32.7045 37.574 37.1385 41.4025 38.2496L40.854 39.9294C40.787 40.1341 40.8225 40.3581 40.9485 40.5322C41.0749 40.7068 41.277 40.81 41.4922 40.81H42.6121V48.8443C42.6121 49.2152 42.9131 49.5162 43.284 49.5162C43.655 49.5162 43.9559 49.2152 43.9559 48.8443V40.8096H45.0758C45.2911 40.8091 45.4932 40.7059 45.6196 40.5318C45.746 40.3577 45.781 40.1333 45.7141 39.929L45.1655 38.2492C48.9941 37.1376 51.7951 32.7036 51.7951 27.5561C51.7951 21.5131 47.977 16.5957 43.284 16.5957ZM44.1869 37.0978C43.994 37.1306 43.8252 37.2452 43.7241 37.4128C43.623 37.5799 43.5999 37.7828 43.6607 37.9688L44.1493 39.4657H42.4192L42.9078 37.9688C42.9686 37.7828 42.945 37.5799 42.8439 37.4128C42.7429 37.2452 42.574 37.1306 42.3816 37.0978C38.8102 36.4915 36.1168 32.3895 36.1168 27.5565C36.1168 22.2537 39.3321 17.9396 43.284 17.9396C47.236 17.9396 50.4512 22.2537 50.4512 27.5565C50.4512 32.3895 47.7583 36.4915 44.1869 37.0978Z" fill="#AE8646"/>
<path d="M44.5783 19.8132C44.2336 19.6763 43.8429 19.8451 43.706 20.1903C43.5695 20.5354 43.7384 20.9256 44.0831 21.0625C45.3534 21.5665 48.0245 24.4392 47.6873 29.6974C47.6636 30.0675 47.9445 30.3868 48.3146 30.4109C48.329 30.4118 48.3439 30.4122 48.3583 30.4122C48.7122 30.4118 49.0053 30.1366 49.028 29.7836C49.2437 26.4222 48.3456 24.0998 47.5538 22.7428C46.5739 21.0625 45.3386 20.1146 44.5783 19.8132Z" fill="#AE8646"/>
<path d="M12.6026 20.7866C8.52732 20.7866 5.21143 25.0443 5.21143 30.2776C5.21143 34.6902 7.5951 38.4978 10.8681 39.507L10.4289 40.8526C10.3624 41.0573 10.3974 41.2817 10.5238 41.4558C10.6503 41.6299 10.8524 41.7332 11.0676 41.7332H11.9311V48.844C11.9311 49.2149 12.2317 49.5159 12.6031 49.5159C12.974 49.5159 13.275 49.2149 13.275 48.844V41.7332H14.1381C14.3533 41.7332 14.5554 41.6299 14.6818 41.4558C14.8083 41.2817 14.8433 41.0573 14.7768 40.8526L14.3376 39.507C17.6106 38.4973 19.9938 34.6897 19.9938 30.2776C19.9938 25.0443 16.6779 20.7866 12.6026 20.7866ZM13.3603 38.3613C13.1678 38.3941 12.999 38.5087 12.8975 38.6762C12.7964 38.8434 12.7732 39.0463 12.834 39.2322L13.212 40.3893H11.9933L12.3712 39.2322C12.432 39.0463 12.4088 38.8434 12.3078 38.6762C12.2067 38.5087 12.0374 38.3941 11.845 38.3613C8.82916 37.8495 6.55528 34.3743 6.55528 30.2776C6.55528 25.7854 9.26836 22.1305 12.6026 22.1305C15.9373 22.1305 18.65 25.7854 18.65 30.2776C18.65 34.3743 16.3757 37.8495 13.3603 38.3613Z" fill="#AE8646"/>
<path d="M13.7475 23.5512C13.4023 23.4147 13.0117 23.5836 12.8752 23.9283C12.7383 24.2735 12.9071 24.6641 13.2523 24.8006C13.929 25.0696 16.5944 27.2123 16.2808 32.1069C16.2571 32.477 16.538 32.7963 16.9081 32.8204C16.9225 32.8213 16.9374 32.8217 16.9518 32.8217C17.3057 32.8213 17.5988 32.5461 17.6215 32.1927C17.9846 26.5364 14.8678 23.9952 13.7475 23.5512Z" fill="#AE8646"/>
</svg>
