<svg width="56" height="56" viewBox="0 0 56 56" fill="none" xmlns="http://www.w3.org/2000/svg">
<g clip-path="url(#clip0_6179_957)">
<path d="M54.6163 28.969C54.589 28.7217 53.8759 22.8658 49.9526 20.6969C49.6037 20.5066 49.2384 20.348 48.8611 20.2223C49.1749 19.7388 49.431 19.2204 49.6256 18.6779C51.0486 14.5424 48.6215 9.91694 44.1885 8.09257C44.0048 8.01272 43.8211 7.93835 43.6373 7.87272H43.6274C41.3973 7.08085 38.9539 7.13553 36.762 8.02694C36.1615 8.2785 35.5927 8.59788 35.0654 8.9785C33.2684 2.60632 26.2423 2.75288 26.1537 2.75507C23.6796 2.80757 21.2909 3.71538 19.6459 5.17663C19.4971 4.88897 19.3276 4.61335 19.1384 4.35085C16.4423 0.769908 10.5426 0.888034 10.2932 0.892409C9.90055 0.902252 9.5582 1.16038 9.44117 1.53444C9.37336 1.7521 7.9493 6.46616 9.74742 10.0077C7.7393 10.8608 6.08336 12.3768 5.05414 14.3018C4.07305 16.1415 3.86742 18.2973 4.48539 20.289C4.82445 21.3335 5.38883 22.2916 6.13805 23.0944C5.82852 23.2388 5.53988 23.4228 5.24773 23.5987C2.57023 25.2108 1.77836 28.9077 1.51148 30.7988H1.51805C1.44586 31.2866 1.39992 31.7766 1.37695 32.2677H1.38789C1.37586 32.6593 1.6143 33.0148 1.9818 33.1504C3.52289 33.6732 5.13727 33.9488 6.76477 33.9674C8.42508 34.0232 10.0624 33.578 11.4657 32.6899C11.7599 32.4865 12.0366 32.2591 12.2926 32.0086C12.9587 33.356 13.9879 34.4902 15.2654 35.2832C15.5312 35.4429 15.8057 35.5883 16.0868 35.7207C16.6545 36.4633 17.1827 37.2356 17.6684 38.034C15.3113 36.8637 12.8865 37.0507 11.8846 38.6027C11.306 39.6581 11.3421 40.9443 11.9765 41.9671C10.6716 42.4243 9.75617 43.6054 9.63914 44.9837C9.63914 47.0432 12.0596 48.6553 15.1473 48.6553C16.6588 48.7012 18.1441 48.2463 19.3702 47.3614C19.0946 49.0884 18.0698 50.6054 16.5702 51.5067C16.3066 51.6379 16.1229 51.8884 16.0759 52.1793C16.0288 52.4703 16.124 52.7667 16.3318 52.9745C17.6323 54.0617 19.1701 54.8262 20.8206 55.2068L20.8785 55.2232C22.902 55.7625 24.9888 56.0238 27.0823 55.9998C29.1746 56.025 31.2604 55.7636 33.2827 55.2254L33.3397 55.209C34.9913 54.8274 36.5291 54.0629 37.8296 52.9768C38.0373 52.7679 38.1325 52.4726 38.0855 52.1815C38.0385 51.8905 37.8536 51.6401 37.5911 51.5078C35.4943 50.46 34.7724 47.8929 34.5352 45.9079L34.6489 45.8805C35.1411 45.7568 35.4396 45.2582 35.3172 44.767C35.211 44.3623 34.8436 44.0834 34.4258 44.0889V44.0659C34.4258 41.9878 35.455 39.4393 37.3855 36.6799C37.4775 36.6799 37.5747 36.6918 37.67 36.6918C41.241 36.8166 44.4961 34.6565 45.7692 31.3171C45.8217 31.1662 45.86 31.0109 45.9005 30.8589C46.7011 31.0974 47.5323 31.2166 48.368 31.2132C50.3455 31.1596 52.2935 30.7145 54.0992 29.903C54.4534 29.7346 54.6612 29.3583 54.6163 28.969ZM38.6673 11.0162C39.1626 9.90929 40.3056 9.23882 41.5132 9.3471C42.0295 9.34929 42.5413 9.43678 43.0291 9.60522H43.0346L43.0631 9.61616C44.9585 10.2823 46.1037 11.9798 45.6115 13.4082C45.5021 13.7079 45.3271 13.9791 45.0996 14.2033C45.0449 13.6915 44.8502 13.2058 44.5352 12.799C43.9927 12.1208 43.2643 11.6144 42.4385 11.3443C41.1435 10.7963 39.6495 11.0304 38.5831 11.9469C38.5415 11.6341 38.5699 11.3169 38.6673 11.0162ZM43.2763 14.549C43.1615 14.7524 42.9581 14.8902 42.7262 14.923C42.3784 15.0029 42.0175 15.0051 41.6685 14.9296C41.5296 14.8946 41.3919 14.8662 41.2529 14.8202H41.243L41.2321 14.8148C41.0877 14.7644 40.9564 14.6999 40.8208 14.6376C40.054 14.2449 39.6997 13.6554 39.8047 13.3524C39.8867 13.1162 40.2947 12.9116 40.8744 12.9116C41.2036 12.916 41.5295 12.9729 41.8401 13.0833C42.3225 13.2376 42.7512 13.5252 43.075 13.9146C43.237 14.083 43.3113 14.3182 43.2763 14.549ZM33.9991 13.2944C34.5504 11.749 35.7131 10.4999 37.2138 9.83819C37.1033 10.023 37.0093 10.2166 36.9316 10.4179C36.1058 12.811 37.7726 15.5585 40.6437 16.5516C40.9018 16.6413 41.1665 16.7091 41.4366 16.754C41.8643 16.8502 42.3018 16.9016 42.7404 16.9082C44.7388 17.0252 46.5893 15.8593 47.3462 14.0076C47.4129 13.8107 47.4622 13.6094 47.4949 13.4049C48.2583 14.8443 48.4004 16.533 47.8887 18.0796C47.0552 20.2868 45.056 21.8421 42.7109 22.1068C41.9791 21.5391 41.172 21.0765 40.3134 20.7298C40.1406 20.6543 39.9634 20.5832 39.7807 20.5208C38.5404 20.091 37.2279 19.9105 35.9165 19.9893C34.0112 18.3323 33.2598 15.7083 33.9991 13.2944ZM36.0368 23.8415C35.539 23.9673 35.0852 24.2298 34.7286 24.5983C34.6859 24.2823 34.7156 23.9618 34.8139 23.6588C35.0829 22.9599 35.6594 22.424 36.3748 22.2074C36.7915 22.0619 37.23 21.9887 37.6709 21.9908C38.1871 21.993 38.699 22.0816 39.1857 22.2512C39.8584 22.4776 40.4687 22.8571 40.9686 23.3613C41.0321 23.4926 41.126 23.6063 41.2432 23.6927C41.8064 24.3391 42.0033 25.2283 41.7649 26.0519C41.6544 26.3516 41.4772 26.6229 41.2476 26.8449C41.193 26.3341 40.9972 25.8474 40.6833 25.4416C39.5576 24.0777 37.7638 23.4598 36.0368 23.8415ZM39.4241 27.1949C39.3202 27.499 38.6771 27.7451 37.8295 27.5799C37.6851 27.5405 37.5407 27.511 37.3974 27.4607V27.4651H37.3898L37.3788 27.4596C37.2345 27.4104 37.1032 27.3448 36.9687 27.2835C36.202 26.8908 35.8476 26.3013 35.9515 25.9983C36.0674 25.7949 36.2709 25.656 36.5027 25.6232C36.6723 25.5794 36.8472 25.5587 37.0234 25.5598C37.3515 25.563 37.6774 25.6199 37.987 25.7293C38.4693 25.8824 38.8981 26.1712 39.2218 26.5594C39.3848 26.729 39.4591 26.963 39.4241 27.1949ZM17.6202 24.9888C17.2407 25.3377 16.9662 25.784 16.8273 26.2794C16.6413 26.0213 16.5155 25.7238 16.4598 25.4088C16.3624 24.6673 16.6129 23.9213 17.139 23.3887V23.3919C17.7996 22.6908 18.679 22.2337 19.6327 22.0948C19.8941 22.0521 20.1577 22.0302 20.4213 22.0302C21.1159 22.0215 21.8016 22.191 22.412 22.5224C23.0802 22.8582 23.5571 23.4827 23.7037 24.2155C23.7518 24.5316 23.7277 24.8543 23.6326 25.1594C23.3427 24.734 22.9391 24.3982 22.4677 24.1904C20.8304 23.5243 18.9579 23.8327 17.6202 24.9888ZM20.9781 27.4169C20.8293 27.4552 20.6827 27.5001 20.5285 27.5263V27.5296C20.3765 27.5548 20.2277 27.558 20.0779 27.569C19.7257 27.5843 19.3735 27.5219 19.0476 27.3852C18.772 27.2627 18.5948 27.0888 18.5685 26.9269C18.5729 26.6929 18.6845 26.4741 18.8726 26.3341C19.2576 26.006 19.7279 25.7938 20.2299 25.7227C20.3995 25.6943 20.5712 25.6801 20.7429 25.6801C21.0754 25.6735 21.4046 25.7358 21.7109 25.8638C21.9865 25.9874 22.1626 26.1602 22.191 26.3232C22.2424 26.6382 21.7973 27.1577 20.9781 27.4169ZM21.6573 20.1774C21.8979 19.6207 22.0773 19.0388 22.191 18.4427C23.4456 18.9808 24.7985 19.2565 26.1635 19.251C28.3281 19.2696 30.4368 18.5641 32.1551 17.2462C32.4755 18.3826 33.0257 19.4424 33.7706 20.3579C33.4774 20.4465 33.1888 20.5493 32.9054 20.6663C31.138 21.3762 29.6855 22.6996 28.817 24.3949V24.3982C28.1498 23.253 27.2135 22.2873 26.0881 21.5862C24.7526 20.7527 23.229 20.2693 21.6573 20.1774ZM26.1635 4.56303C28.1893 4.56303 29.8363 5.79788 29.8363 7.3171C29.8298 7.63319 29.7543 7.94272 29.6143 8.226C28.9045 7.01085 27.5679 6.30319 26.1635 6.39944C24.7602 6.30319 23.4226 7.01085 22.7127 8.226C22.5727 7.94272 22.4973 7.63319 22.4918 7.3171C22.4918 5.79788 24.139 4.56303 26.1635 4.56303ZM27.9999 9.1535C27.9999 9.47288 27.4738 9.91475 26.6229 10.0373C26.4709 10.0515 26.3221 10.0712 26.1635 10.0712C26.006 10.0712 25.8584 10.0515 25.7052 10.0373C24.8543 9.91475 24.3282 9.47288 24.3282 9.1535C24.3282 8.77944 25.0424 8.23585 26.1635 8.23585C27.2846 8.23585 27.9999 8.77944 27.9999 9.1535ZM20.7112 6.70132C20.6762 6.90475 20.6576 7.11147 20.6554 7.3171C20.6554 9.84803 23.1262 11.9076 26.1635 11.9076C29.202 11.9076 31.6716 9.84803 31.6716 7.3171C31.6704 7.10053 31.6498 6.88288 31.6103 6.6696C32.6723 7.67366 33.334 9.02882 33.4708 10.4835C32.4437 11.7785 31.8762 13.3765 31.8553 15.0291C30.3667 16.5724 28.3083 17.4354 26.1634 17.4157C24.8181 17.4201 23.4936 17.0843 22.3123 16.4412C22.2697 15.8571 22.1581 15.2807 21.9798 14.7229C21.4373 13.0385 20.3272 11.5948 18.8397 10.6366C18.9491 9.1371 19.6174 7.73272 20.7112 6.70132ZM11.026 2.74522C12.5091 2.82507 16.0146 3.25382 17.6716 5.45335C17.9484 5.83616 18.1704 6.25616 18.3301 6.70132C17.9232 7.29741 17.6005 7.946 17.3698 8.6296C16.7463 7.46257 15.8593 6.45741 14.7798 5.69178C14.3751 5.38772 13.7998 5.46975 13.4946 5.87553C13.1905 6.28132 13.2726 6.85663 13.6784 7.16069C14.4954 7.736 15.1768 8.48194 15.6766 9.346C14.3073 9.07475 12.8952 9.09991 11.5346 9.41819C10.2505 7.21647 10.722 4.0971 11.026 2.74522ZM11.1802 11.4252V11.4285C11.2152 11.4165 11.2491 11.4001 11.2863 11.3891C11.3224 11.3782 11.3509 11.3727 11.3837 11.3629C11.8146 11.2316 12.262 11.1627 12.7126 11.1594C13.9562 11.0468 15.1298 11.7479 15.6198 12.8963C15.7116 13.2026 15.7346 13.5252 15.6843 13.8402C15.3354 13.4618 14.888 13.1883 14.3926 13.0494C13.5526 12.8296 12.6655 12.8602 11.842 13.1348C10.4748 13.4694 9.41492 14.549 9.10649 15.9227C8.88774 15.6952 8.72149 15.4229 8.62086 15.1232C8.17023 13.7013 9.31539 12.0662 11.1802 11.4252ZM13.3874 16.4576C13.243 16.5177 13.1052 16.5844 12.9554 16.6315V16.6348C12.8045 16.6829 12.6557 16.708 12.5059 16.7398C11.6593 16.883 11.0238 16.6216 10.9276 16.3176C10.8138 15.9599 11.3301 15.226 12.3965 14.8848C12.6918 14.7874 13.0002 14.7371 13.312 14.7338C13.9223 14.7338 14.351 14.9537 14.4287 15.2008C14.526 15.5049 14.1596 16.0824 13.3874 16.4576ZM11.6232 29.9271C11.6232 29.9501 11.6341 29.9707 11.6374 29.9938C11.3071 30.452 10.9024 30.8513 10.4387 31.1739C8.15711 32.7293 4.69539 32.0183 3.26805 31.6257C3.2943 31.3632 3.3282 31.0974 3.36977 30.8403C3.37414 30.8042 3.37633 30.7703 3.37633 30.7353H3.38289C3.65086 29.0979 4.50256 26.177 6.28899 25.1101C6.73742 24.8159 7.22961 24.5961 7.74695 24.4593C8.53227 24.9592 9.39195 25.33 10.2943 25.5607C8.81664 26.4456 7.45492 27.5109 6.23977 28.7303C6.00133 28.9611 5.90508 29.3024 5.9893 29.6228C6.07352 29.9444 6.32398 30.1949 6.64555 30.2791C6.96602 30.3634 7.30727 30.2671 7.53805 30.0286C8.7882 28.7731 10.2101 27.7 11.761 26.8414C11.5018 27.849 11.4548 28.9001 11.6232 29.9271ZM13.1195 23.9946C11.4515 24.1171 9.79117 23.661 8.41961 22.704C7.39039 21.9777 6.62367 20.9365 6.23649 19.7377C5.76617 18.2087 5.92914 16.556 6.68711 15.1473C6.70133 15.1177 6.72102 15.0926 6.73524 15.0641C6.76367 15.2719 6.80852 15.4776 6.87086 15.6777C7.60805 17.5951 9.50242 18.8124 11.5521 18.6888C11.9579 18.6844 12.3615 18.6407 12.7585 18.5587C13.2715 18.4788 13.7691 18.3202 14.2329 18.0873C15.2545 17.6432 16.1305 16.9224 16.7627 16.0069C17.5229 14.9427 17.746 13.5865 17.3687 12.3341C17.2954 12.1318 17.2057 11.9349 17.0996 11.7468C18.5838 12.4435 19.717 13.7199 20.231 15.2774C20.7341 16.9552 20.4881 18.7687 19.554 20.2507C19.4807 20.2605 19.4074 20.2649 19.3341 20.2769C16.9913 20.6379 14.864 21.8465 13.3546 23.673C13.2704 23.778 13.1982 23.8885 13.1195 23.9946ZM16.2487 33.729C14.7601 32.8333 13.732 31.3369 13.4312 29.6263C13.2201 28.2963 13.4749 26.9335 14.152 25.7698C14.3357 25.7085 14.4484 25.6779 14.4538 25.6779C14.5184 25.656 14.5807 25.6276 14.6376 25.5915C14.643 25.6298 14.643 25.6669 14.6496 25.7052C14.8815 26.9904 15.6952 28.0962 16.8535 28.6999C17.7395 29.1854 18.7359 29.437 19.7465 29.4282C20.1096 29.4271 20.4716 29.3965 20.8304 29.3364C21.0732 29.2948 21.3138 29.2346 21.549 29.1581C22.6395 28.8715 23.626 28.2809 24.3949 27.4551C25.2995 26.5123 25.7151 25.2031 25.5226 23.9114C25.4876 23.7068 25.4351 23.5067 25.3684 23.3109C26.7235 24.2132 27.6499 25.6318 27.931 27.2364C28.5063 30.7331 25.7282 34.1128 21.7284 34.7701C19.8362 35.1071 17.886 34.7363 16.2487 33.729ZM15.1473 46.8201C13.0451 46.8201 11.4755 45.8499 11.4755 44.9837C11.4755 44.1174 13.0451 43.1473 15.1473 43.1473C17.2495 43.1473 18.8201 44.1174 18.8201 44.9837C18.8201 45.8499 17.2495 46.8201 15.1473 46.8201ZM15.1473 41.3119C14.689 41.3119 14.2318 41.3502 13.7801 41.4257C13.3415 40.9204 13.208 40.2193 13.4301 39.5893H13.4312C13.9026 38.8619 15.7477 38.9024 17.5141 40.0432C18.3334 40.5485 19.006 41.2605 19.4621 42.1082C19.5234 42.3466 19.5813 42.585 19.6218 42.8223C18.3662 41.7866 16.7737 41.2485 15.1473 41.3119ZM35.5566 52.3457C34.7866 52.7669 33.974 53.1037 33.1318 53.3509C31.4661 52.6245 30.2388 51.1579 29.8177 49.3904C29.7608 49.0611 29.5301 48.7888 29.2139 48.6782C28.8989 48.5689 28.5478 48.639 28.2996 48.8621C28.0513 49.0852 27.9431 49.4265 28.0185 49.7524C28.3521 51.4007 29.2676 52.8751 30.5976 53.9065C28.2668 54.2465 25.8977 54.2465 23.5659 53.9065C24.8948 52.8773 25.8102 51.4051 26.146 49.7568C26.2204 49.4319 26.1132 49.0907 25.8638 48.8676C25.6156 48.6444 25.2656 48.5744 24.9495 48.6838C24.6334 48.7943 24.4026 49.0666 24.3457 49.3959C23.9246 51.1621 22.6963 52.6279 21.0316 53.353C20.1905 53.1069 19.3768 52.7701 18.6079 52.349C20.4541 50.774 21.1662 48.2737 21.4298 46.2743C23.2946 46.6166 25.1857 46.7993 27.0823 46.8201C28.9788 46.7982 30.8689 46.6132 32.7348 46.2688C32.9973 48.2704 33.7093 50.7718 35.5566 52.3457ZM32.5904 44.0659V44.4324C30.7738 44.7759 28.9307 44.9607 27.0823 44.9837C25.2338 44.9607 23.3898 44.7759 21.5741 44.4324V44.0659C21.5741 41.4782 20.3557 38.8203 18.959 36.6218C19.4195 36.6875 19.8832 36.7214 20.348 36.7214C20.908 36.7203 21.467 36.6742 22.0204 36.5836C22.3682 36.5256 22.7138 36.4479 23.054 36.3528C23.8929 37.8709 24.3315 39.577 24.3282 41.3118C24.3282 41.8182 24.7384 42.2295 25.2459 42.2295C25.7534 42.2295 26.1635 41.8182 26.1635 41.3118C26.1679 39.3573 25.6954 37.4323 24.7865 35.7031C26.5988 34.8412 28.0776 33.4085 28.9963 31.6245C29.0237 31.677 29.0454 31.7307 29.0751 31.7842C29.4918 32.5203 30.0081 33.1962 30.6085 33.7923C28.9132 35.9317 27.9946 38.5818 27.9999 41.3118C27.9999 41.8182 28.4112 42.2295 28.9176 42.2295C29.4252 42.2295 29.8363 41.8182 29.8363 41.3118C29.8396 39.0095 30.6107 36.7739 32.0271 34.9593C32.7631 35.4538 33.5606 35.8507 34.3984 36.1384C34.7123 36.2467 35.0284 36.3342 35.3445 36.414C33.5157 39.2141 32.5904 41.7844 32.5904 44.0659ZM44.0332 30.7201C42.8793 34.0702 38.8281 35.7229 34.9966 34.4027C33.1734 33.7989 31.6357 32.5466 30.6752 30.883C29.7959 29.4382 29.5859 27.6815 30.101 26.0705C30.6162 24.4583 31.8051 23.1491 33.3593 22.4808C33.2499 22.6657 33.1559 22.8604 33.0782 23.0605C32.2524 25.4537 33.9193 28.2023 36.7915 29.1954C37.0529 29.2851 37.3209 29.354 37.5943 29.3999C38.0187 29.494 38.4518 29.5454 38.8871 29.5521C40.8854 29.669 42.7371 28.5019 43.494 26.6491C43.5606 26.4533 43.6099 26.251 43.6426 26.0465C44.4062 27.4858 44.5473 29.1746 44.0332 30.7201ZM46.177 29.0237C46.1999 27.5929 45.8422 26.1832 45.1411 24.9363C46.0248 25.2568 46.8408 25.738 47.5506 26.3538C47.9104 26.7016 48.4836 26.6973 48.8368 26.3429C49.1912 25.9885 49.1967 25.4165 48.8489 25.0555C47.8908 24.2068 46.7784 23.5516 45.5709 23.1283C46.2938 22.7816 46.9622 22.331 47.5539 21.7907C48.08 21.8826 48.5897 22.0554 49.0633 22.3037C51.4761 23.6369 52.3904 27.0483 52.6781 28.5052C51.4149 28.9832 48.5034 29.8757 46.177 29.0237Z" fill="#AE8646"/>
</g>
<defs>
<clipPath id="clip0_6179_957">
<rect width="56" height="56" fill="white"/>
</clipPath>
</defs>
</svg>
