<svg width="27" height="27" viewBox="0 0 27 27" fill="none" xmlns="http://www.w3.org/2000/svg">
<path d="M22.457 16.2218C25.928 15.0533 26 10.7353 26 10.5552C26 10.4602 25.9703 10.3677 25.9153 10.2917C25.8137 10.1423 23.3121 6.69406 19.841 7.8669C18.8837 8.20196 17.9878 8.70245 17.1912 9.34724C17.539 8.36173 17.7223 7.32184 17.733 6.27236C17.733 2.48586 13.8005 1.0802 13.6355 1.0231C13.5476 0.992301 13.4524 0.992301 13.3645 1.0231C13.1995 1.0802 9.26702 2.48586 9.26702 6.29432C9.27881 7.3437 9.46202 8.3834 9.80884 9.3692C9.01096 8.71606 8.11211 8.20809 7.15053 7.8669C3.68371 6.69406 1.18625 10.1423 1.08466 10.2917C1.02971 10.3677 1 10.4602 1 10.5552C1 10.7353 1.07196 15.0533 4.54301 16.2218C5.50745 16.5369 6.51683 16.6781 7.52726 16.6391C6.68801 17.2228 5.95079 17.9507 5.34727 18.7915C3.20115 21.8664 5.58855 25.3805 5.69438 25.5387C5.74539 25.6178 5.82195 25.6754 5.91026 25.7012C6.58875 25.9028 7.29138 26.0034 7.99712 25.9999C11.0025 25.9999 12.6534 24.133 13.5 21.168C14.3678 24.1506 16.0102 25.9999 19.0029 25.9999C19.7074 26.0015 20.4086 25.8995 21.0855 25.6968C21.1738 25.671 21.2504 25.6134 21.3014 25.5343C21.4072 25.3849 23.7946 21.8532 21.6485 18.7871C21.0441 17.9486 20.3087 17.2211 19.4727 16.6347C20.4829 16.6742 21.4921 16.5345 22.457 16.2218ZM13.5 1.91481C14.1434 2.17837 16.8864 3.47422 16.8864 6.27675C16.8864 8.81133 15.5064 11.4426 13.9741 13.4017C13.8979 13.3709 13.9233 13.797 13.9233 8.47309C13.9233 8.23049 13.7338 8.03383 13.5 8.03383C13.2662 8.03383 13.0767 8.23049 13.0767 8.47309V13.0503C12.563 12.2541 11.9868 11.5033 11.3539 10.8056C10.5886 9.42447 10.1627 7.86911 10.1136 6.27675C10.1136 3.483 12.8566 2.18277 13.5 1.91481ZM4.80545 15.3872C2.2445 14.5086 1.89739 11.4118 1.84236 10.6958C2.26566 10.1423 4.31443 7.83616 6.88385 8.70151C9.21199 9.48781 11.193 11.6578 12.5137 13.7839C12.4714 13.841 12.8354 13.9332 7.98442 12.3035C7.76554 12.2387 7.53645 12.3651 7.46584 12.5897C7.39523 12.8142 7.50838 13.0565 7.72198 13.1381L11.9169 14.5526C11.0259 14.8141 10.1578 15.1536 9.32205 15.5673C7.82495 15.8911 6.27419 15.8292 4.80545 15.3872ZM11.5105 23.439C9.9316 25.7012 6.97697 25.0818 6.30393 24.9061C5.93143 24.2956 4.44988 21.5677 6.03302 19.3099C7.4553 17.2804 10.0798 15.967 12.4291 15.3257C12.4672 15.3872 12.6619 15.0709 9.67338 19.3406C9.56149 19.5367 9.61263 19.7889 9.79116 19.9216C9.96968 20.0543 10.2163 20.0232 10.3591 19.8502L12.9539 16.1427C12.9177 17.0978 12.9588 18.0544 13.0767 19.0024C12.9182 20.5934 12.3799 22.1182 11.5105 23.439ZM13.5 15.0621C13.2662 15.0621 13.0767 14.8655 13.0767 14.6229C13.0767 14.3803 13.2662 14.1836 13.5 14.1836C13.7338 14.1836 13.9233 14.3803 13.9233 14.6229C13.9233 14.8655 13.7338 15.0621 13.5 15.0621ZM20.967 19.3099C22.5501 21.5677 21.0686 24.2956 20.6961 24.9061C20.023 25.0818 17.0684 25.7012 15.4895 23.439C14.0503 21.3832 13.682 18.4269 13.7963 15.8967C13.864 15.8967 13.6185 15.5585 16.6239 19.8502C16.7055 19.993 16.8577 20.076 17.0173 20.0645C17.1769 20.0531 17.3167 19.9492 17.3786 19.7961C17.4404 19.643 17.4138 19.4667 17.3097 19.3406L14.7276 15.6332C15.6025 15.9698 16.503 16.2299 17.4197 16.4107C18.812 17.0629 20.0297 18.0582 20.967 19.3099ZM14.7699 14.7063C14.7699 14.6316 14.4524 14.7678 19.2738 13.1381C19.4874 13.0565 19.6005 12.8142 19.5299 12.5897C19.4593 12.3651 19.2302 12.2387 19.0113 12.3035L14.8165 13.7004C15.3875 12.9445 15.8972 12.1408 16.3403 11.2976C17.3713 10.1219 18.663 9.22478 20.1035 8.68394C22.6432 7.80541 24.7047 10.1247 25.1449 10.6782C25.1026 11.3986 24.764 14.5043 22.1818 15.3696C19.8749 16.1735 17.0557 15.6288 14.7699 14.7063Z" fill="#333333" stroke="#333333" stroke-width="0.5"/>
</svg>
