<svg width="56" height="56" viewBox="0 0 56 56" fill="none" xmlns="http://www.w3.org/2000/svg">
<path d="M46.357 37.449C46.3165 37.2516 46.2091 37.0743 46.0529 36.9469C45.8968 36.8196 45.7014 36.75 45.4999 36.75C43.8893 36.7679 42.2811 36.8799 40.6836 37.0855C37.1493 37.5465 34.7345 38.403 33.5062 39.6313C32.2231 40.9145 31.2956 42.5285 30.6249 44.1955V36.0863C31.2897 34.8135 32.6099 32.7983 33.6413 32.2826C35.9191 31.1215 37.9461 29.5234 39.6067 27.5795C41.7448 25.0403 42.8749 22.16 42.8749 19.25C42.8749 17.038 42.6527 13.6995 42.3218 10.9426C42.1896 9.74078 41.9972 8.54632 41.7451 7.36378C41.5508 6.52203 41.2573 5.25 40.2499 5.25C39.0023 5.25 37.7541 5.94081 36.4884 7.33764C36.443 7.14252 36.3973 6.96303 36.3514 6.80269C36.2071 6.29869 35.9069 5.25 34.9999 5.25C33.4622 5.25 32.0814 6.29212 30.8841 8.35188C30.7988 8.26153 30.7125 8.17513 30.6249 8.09386V6.33161L32.2825 3.01634C32.3492 2.88294 32.3807 2.7347 32.374 2.5857C32.3673 2.4367 32.3226 2.29189 32.2442 2.16501C32.1658 2.03814 32.0563 1.93341 31.926 1.86077C31.7958 1.78814 31.6491 1.75001 31.4999 1.75H24.4999C24.3508 1.75001 24.2041 1.78814 24.0738 1.86077C23.9436 1.93341 23.834 2.03814 23.7556 2.16501C23.6772 2.29189 23.6325 2.4367 23.6258 2.5857C23.6191 2.7347 23.6506 2.88294 23.7173 3.01634L25.3749 6.33161V8.09375C25.2874 8.17502 25.2011 8.26142 25.1158 8.35166C23.9186 6.29223 22.5377 5.25 20.9999 5.25C20.0929 5.25 19.7924 6.29869 19.6482 6.80312C19.602 6.96402 19.5563 7.14394 19.5108 7.33906C18.2427 5.94202 16.9923 5.25 15.7499 5.25C14.7426 5.25 14.449 6.52203 14.2548 7.36378C14.0027 8.54632 13.8102 9.74078 13.678 10.9426C13.3472 13.6995 13.1249 17.038 13.1249 19.25C13.1249 22.1594 14.2551 25.0402 16.3932 27.5791C18.0537 29.5231 20.0808 31.1212 22.3586 32.2823C23.3901 32.7981 24.7101 34.8135 25.3749 36.086V44.1952C24.7042 42.5282 23.7767 40.9139 22.4937 39.6309C21.2654 38.4027 18.8506 37.5461 15.3163 37.0851C13.7187 36.8797 12.1105 36.7678 10.4999 36.75C10.2984 36.75 10.1031 36.8196 9.94693 36.947C9.79078 37.0743 9.68338 37.2517 9.64287 37.4491C9.60235 37.6465 9.63121 37.8518 9.72457 38.0304C9.81793 38.209 9.97007 38.3498 10.1553 38.4292C10.215 38.4548 16.154 41.0165 18.6312 43.4933C21.1394 46.0014 25.4419 53.7218 25.4851 53.7995C25.5608 53.936 25.6716 54.0497 25.8061 54.1289C25.9406 54.2082 26.0938 54.25 26.2499 54.25H29.7499C29.906 54.25 30.0591 54.2082 30.1936 54.1291C30.3281 54.0499 30.4389 53.9362 30.5147 53.7998C30.5579 53.7222 34.8592 46.0029 37.3686 43.4936C39.8428 41.0193 45.7849 38.4547 45.8451 38.4296C46.0303 38.3501 46.1824 38.2091 46.2757 38.0304C46.3689 37.8518 46.3976 37.6464 46.357 37.449ZM28.8749 36.75V52.5H27.1249V36.75H28.8749ZM27.9999 8.75C29.5968 8.75 31.0223 10.964 32.0276 14.9914C30.4579 18.5985 29.0672 22.7132 27.9996 26.1995C27.4627 24.4432 26.8579 22.5729 26.2001 20.7088C25.4476 18.5769 24.7053 16.6687 23.973 14.9844C24.9793 10.9615 26.4048 8.75 27.9999 8.75ZM39.8487 7.05042C40.0417 7.62825 40.3559 9.04958 40.6603 11.8115C40.9426 14.3732 41.1249 17.293 41.1249 19.25C41.1249 25.0395 35.9289 29.1822 32.8586 30.7174C31.7984 31.2476 30.8006 32.4915 30.0783 33.5805C29.792 32.4725 29.3962 30.9883 28.9093 29.2808C30.0919 25.1812 31.9212 19.4203 34.0384 14.7777C36.7585 8.81202 38.7364 7.32014 39.8487 7.05042ZM34.5987 7.05337C34.7034 7.36389 34.8681 7.98777 35.0637 9.19767C34.3561 10.2818 33.7168 11.4089 33.1496 12.5727C32.8546 11.6613 32.4757 10.7792 32.0178 9.9377C32.6484 8.67147 33.5434 7.33392 34.5989 7.05337H34.5987ZM27.0325 5.73366L25.9157 3.5H30.0842L28.9674 5.73366C28.9066 5.85515 28.8749 5.98914 28.8749 6.125V7.10784C28.3005 6.96405 27.6994 6.96405 27.1249 7.10784V6.125C27.1249 5.98914 27.0933 5.85515 27.0325 5.73366ZM21.4023 7.05381C22.4572 7.33512 23.3518 8.67256 23.9825 9.93792C23.5255 10.7774 23.1471 11.6573 22.8522 12.5665C22.2849 11.4039 21.645 10.278 20.9364 9.1957C21.1305 7.99291 21.2972 7.36586 21.4023 7.05381ZM23.1414 30.7174C20.071 29.1822 14.8749 25.0395 14.8749 19.25C14.8749 17.2928 15.0573 14.3731 15.3395 11.8114C15.6436 9.05286 15.9573 7.63153 16.1505 7.05239C17.5203 7.39627 20.4531 9.68778 24.5456 21.2795C26.5467 26.947 28.0512 32.678 28.6343 35H26.7779C26.1925 33.9305 24.7369 31.5152 23.1413 30.7174H23.1414ZM19.8688 42.2565C18.6118 40.9995 16.6375 39.7642 14.8549 38.7893C17.3785 39.1032 20.1087 39.7215 21.2563 40.8691C23.5233 43.1361 24.5427 46.7406 25.001 49.4987C23.4837 46.9976 21.411 43.7986 19.8687 42.2563L19.8688 42.2565ZM36.1313 42.2565C34.5878 43.8 32.5131 47.0026 30.9957 49.5047C31.4524 46.7474 32.4711 43.1415 34.7438 40.869C35.8897 39.723 38.6189 39.1048 41.1428 38.7908C39.3606 39.765 37.3877 40.9999 36.1312 42.2563L36.1313 42.2565Z" fill="#AE8646"/>
</svg>
