<svg width="32" height="19" viewBox="0 0 32 19" fill="none" xmlns="http://www.w3.org/2000/svg">
<path d="M27.4738 17.8586C26.9315 17.859 26.4013 17.6986 25.9503 17.3976C25.4992 17.0966 25.1475 16.6686 24.9397 16.1678C24.7319 15.6669 24.6774 15.1156 24.7829 14.5837C24.8884 14.0518 25.1494 13.5632 25.5327 13.1796C25.916 12.796 26.4044 12.5347 26.9363 12.4288C27.4681 12.3229 28.0194 12.377 28.5204 12.5845C29.0214 12.7919 29.4497 13.1432 29.751 13.5941C30.0523 14.045 30.2131 14.575 30.2131 15.1173C30.2128 15.8439 29.9241 16.5407 29.4105 17.0546C28.8969 17.5686 28.2004 17.8578 27.4738 17.8586ZM27.4738 13.376C27.1293 13.3756 26.7924 13.4774 26.5058 13.6685C26.2192 13.8596 25.9957 14.1314 25.8636 14.4495C25.7315 14.7677 25.6967 15.1179 25.7637 15.4558C25.8307 15.7937 25.9963 16.1042 26.2398 16.3479C26.4832 16.5916 26.7935 16.7577 27.1313 16.825C27.4692 16.8924 27.8194 16.858 28.1377 16.7263C28.456 16.5945 28.7281 16.3714 28.9195 16.085C29.111 15.7985 29.2131 15.4618 29.2131 15.1173C29.213 14.6559 29.0297 14.2134 28.7036 13.8869C28.3775 13.5604 27.9352 13.3767 27.4738 13.376Z" fill="#333333" stroke="#333333" stroke-width="0.5"/>
<path d="M13.0272 17.8586C12.4849 17.8592 11.9546 17.6988 11.5035 17.3979C11.0523 17.097 10.7005 16.6691 10.4926 16.1682C10.2847 15.6674 10.2301 15.1161 10.3356 14.5841C10.441 14.0522 10.7019 13.5635 11.0852 13.1798C11.4685 12.7962 11.9569 12.5348 12.4888 12.4288C13.0206 12.3229 13.5719 12.377 14.073 12.5844C14.5741 12.7918 15.0024 13.1432 15.3037 13.594C15.605 14.0449 15.7659 14.575 15.7659 15.1173C15.7653 15.8437 15.4767 16.5403 14.9633 17.0542C14.4499 17.5681 13.7536 17.8574 13.0272 17.8586ZM13.0272 13.376C12.6827 13.3754 12.3458 13.4771 12.059 13.6681C11.7723 13.8592 11.5487 14.1309 11.4165 14.4491C11.2843 14.7672 11.2495 15.1174 11.3163 15.4554C11.3832 15.7934 11.5489 16.1039 11.7923 16.3477C12.0357 16.5915 12.346 16.7576 12.6838 16.825C13.0217 16.8924 13.372 16.8581 13.6903 16.7263C14.0086 16.5946 14.2808 16.3714 14.4722 16.085C14.6637 15.7986 14.7659 15.4618 14.7659 15.1173C14.7655 14.656 14.5823 14.2137 14.2564 13.8873C13.9305 13.5609 13.4885 13.377 13.0272 13.376Z" fill="#333333" stroke="#333333" stroke-width="0.5"/>
<path d="M31.0809 15.6173H29.7136C29.581 15.6173 29.4538 15.5646 29.36 15.4708C29.2663 15.3771 29.2136 15.2499 29.2136 15.1173C29.2136 14.9847 29.2663 14.8575 29.36 14.7637C29.4538 14.67 29.581 14.6173 29.7136 14.6173H30.9396V11.966C30.9393 11.6075 30.8475 11.2551 30.6729 10.942L27.9663 6.0893C27.9431 6.04789 27.9094 6.01339 27.8685 5.98937C27.8276 5.96534 27.781 5.95267 27.7336 5.95264H24.0449V14.6193H25.2356C25.3682 14.6193 25.4954 14.672 25.5891 14.7657C25.6829 14.8595 25.7356 14.9867 25.7356 15.1193C25.7356 15.2519 25.6829 15.3791 25.5891 15.4729C25.4954 15.5666 25.3682 15.6193 25.2356 15.6193H23.5449C23.4123 15.6193 23.2851 15.5666 23.1914 15.4729C23.0976 15.3791 23.0449 15.2519 23.0449 15.1193V5.45264C23.0449 5.32003 23.0976 5.19285 23.1914 5.09908C23.2851 5.00531 23.4123 4.95264 23.5449 4.95264H27.7336C27.9592 4.95253 28.1807 5.01266 28.3752 5.12681C28.5698 5.24096 28.7303 5.405 28.8403 5.60197L31.5463 10.4553C31.8035 10.9173 31.9387 11.4372 31.9389 11.966V14.7593C31.9386 14.9867 31.8481 15.2048 31.6872 15.3656C31.5264 15.5264 31.3084 15.6169 31.0809 15.6173Z" fill="#333333" stroke="#333333" stroke-width="0.5"/>
<path d="M10.7901 15.6173H5.99609C5.86349 15.6173 5.73631 15.5646 5.64254 15.4709C5.54877 15.3771 5.49609 15.2499 5.49609 15.1173V11.272C5.49609 11.1394 5.54877 11.0122 5.64254 10.9184C5.73631 10.8247 5.86349 10.772 5.99609 10.772C6.1287 10.772 6.25588 10.8247 6.34965 10.9184C6.44342 11.0122 6.49609 11.1394 6.49609 11.272V14.6173H10.7901C10.9227 14.6173 11.0499 14.67 11.1436 14.7638C11.2374 14.8575 11.2901 14.9847 11.2901 15.1173C11.2901 15.2499 11.2374 15.3771 11.1436 15.4709C11.0499 15.5646 10.9227 15.6173 10.7901 15.6173Z" fill="#333333" stroke="#333333" stroke-width="0.5"/>
<path d="M5.99609 9.49795C5.86349 9.49795 5.73631 9.44527 5.64254 9.35151C5.54877 9.25774 5.49609 9.13056 5.49609 8.99795V5.64062C5.49609 5.50802 5.54877 5.38084 5.64254 5.28707C5.73631 5.1933 5.86349 5.14062 5.99609 5.14062C6.1287 5.14062 6.25588 5.1933 6.34965 5.28707C6.44342 5.38084 6.49609 5.50802 6.49609 5.64062V8.99995C6.49556 9.13221 6.44265 9.25888 6.34894 9.35221C6.25523 9.44555 6.12836 9.49795 5.99609 9.49795Z" fill="#333333" stroke="#333333" stroke-width="0.5"/>
<path d="M23.5461 15.6173H15.2681C15.1355 15.6173 15.0083 15.5646 14.9145 15.4708C14.8208 15.3771 14.7681 15.2499 14.7681 15.1173C14.7681 14.9847 14.8208 14.8575 14.9145 14.7637C15.0083 14.67 15.1355 14.6173 15.2681 14.6173H23.0461V1.53662H6.49609V3.59595C6.49609 3.72856 6.44342 3.85574 6.34965 3.94951C6.25588 4.04328 6.1287 4.09595 5.99609 4.09595C5.86349 4.09595 5.73631 4.04328 5.64254 3.94951C5.54877 3.85574 5.49609 3.72856 5.49609 3.59595V1.44462C5.49645 1.2038 5.59232 0.972948 5.76267 0.802722C5.93302 0.632497 6.16394 0.536797 6.40476 0.536621H23.1381C23.3788 0.536974 23.6096 0.632751 23.7798 0.802958C23.95 0.973164 24.0457 1.20391 24.0461 1.44462V15.1173C24.0461 15.2499 23.9934 15.3771 23.8997 15.4708C23.8059 15.5646 23.6787 15.6173 23.5461 15.6173Z" fill="#333333" stroke="#333333" stroke-width="0.5"/>
<path d="M7.971 11.772H1.625C1.49239 11.772 1.36521 11.7193 1.27145 11.6255C1.17768 11.5318 1.125 11.4046 1.125 11.272C1.125 11.1394 1.17768 11.0122 1.27145 10.9184C1.36521 10.8247 1.49239 10.772 1.625 10.772H7.971C8.10361 10.772 8.23078 10.8247 8.32455 10.9184C8.41832 11.0122 8.471 11.1394 8.471 11.272C8.471 11.4046 8.41832 11.5318 8.32455 11.6255C8.23078 11.7193 8.10361 11.772 7.971 11.772Z" fill="#333333" stroke="#333333" stroke-width="0.5"/>
<path d="M13.0272 9.49804H4.17188C4.03927 9.49804 3.91209 9.44536 3.81832 9.35159C3.72455 9.25783 3.67188 9.13065 3.67188 8.99804C3.67188 8.86544 3.72455 8.73826 3.81832 8.64449C3.91209 8.55072 4.03927 8.49805 4.17188 8.49805H13.0272C13.1598 8.49805 13.287 8.55072 13.3808 8.64449C13.4745 8.73826 13.5272 8.86544 13.5272 8.99804C13.5272 9.13065 13.4745 9.25783 13.3808 9.35159C13.287 9.44536 13.1598 9.49804 13.0272 9.49804Z" fill="#333333" stroke="#333333" stroke-width="0.5"/>
<path d="M3.89745 6.85791H0.439453C0.306845 6.85791 0.179668 6.80523 0.0858997 6.71146C-0.00786847 6.61769 -0.0605469 6.49052 -0.0605469 6.35791C-0.0605469 6.2253 -0.00786847 6.09812 0.0858997 6.00436C0.179668 5.91059 0.306845 5.85791 0.439453 5.85791H3.89745C4.03006 5.85791 4.15724 5.91059 4.25101 6.00436C4.34477 6.09812 4.39745 6.2253 4.39745 6.35791C4.39745 6.49052 4.34477 6.61769 4.25101 6.71146C4.15724 6.80523 4.03006 6.85791 3.89745 6.85791Z" fill="#333333" stroke="#333333" stroke-width="0.5"/>
<path d="M9.44189 4.09619H3.33789C3.20528 4.09619 3.07811 4.04352 2.98434 3.94975C2.89057 3.85598 2.83789 3.7288 2.83789 3.59619C2.83789 3.46358 2.89057 3.33641 2.98434 3.24264C3.07811 3.14887 3.20528 3.09619 3.33789 3.09619H9.44189C9.5745 3.09619 9.70168 3.14887 9.79545 3.24264C9.88921 3.33641 9.94189 3.46358 9.94189 3.59619C9.94189 3.7288 9.88921 3.85598 9.79545 3.94975C9.70168 4.04352 9.5745 4.09619 9.44189 4.09619Z" fill="#333333" stroke="#333333" stroke-width="0.5"/>
</svg>
