<svg width="55" height="54" viewBox="0 0 55 54" fill="none" xmlns="http://www.w3.org/2000/svg">
<path d="M52.5188 44.3795L46.2447 40.7778C46.1393 40.7174 46.0224 40.6796 45.9015 40.667C45.7806 40.6545 45.6584 40.6673 45.5428 40.7047C45.4272 40.7421 45.3206 40.8033 45.2301 40.8843C45.1395 40.9653 45.0668 41.0644 45.0168 41.1752C42.3505 47.0919 42.4696 46.5096 42.4696 47.6582C42.4706 48.4489 42.6396 49.2304 42.9653 49.951C43.2909 50.6715 43.766 51.3147 44.3588 51.8379C45.1155 52.5071 46.0387 52.9598 47.031 53.1484C48.0234 53.3369 49.0482 53.2544 49.9976 52.9094C50.947 52.5644 51.7858 51.9697 52.4256 51.1881C53.0654 50.4064 53.4825 49.4667 53.6331 48.4678C53.9114 46.5027 53.0535 44.6861 52.5188 44.3795Z" fill="#4B64AA"/>
<path d="M15.75 13H3.5C2.05025 13 0.875 14.1753 0.875 15.625V25.25C0.875 26.6997 2.05025 27.875 3.5 27.875H15.75C17.1997 27.875 18.375 26.6997 18.375 25.25V15.625C18.375 14.1753 17.1997 13 15.75 13Z" fill="#4B64AA"/>
<path d="M28.875 9.5C31.2912 9.5 33.25 7.54125 33.25 5.125C33.25 2.70875 31.2912 0.75 28.875 0.75C26.4588 0.75 24.5 2.70875 24.5 5.125C24.5 7.54125 26.4588 9.5 28.875 9.5Z" fill="#B166DB"/>
<path d="M23.5996 44.4133H14.1211C14.0068 44.4133 13.8935 44.4358 13.7878 44.4795C13.6821 44.5233 13.5861 44.5874 13.5052 44.6682C13.4243 44.7491 13.3601 44.8451 13.3164 44.9508C13.2726 45.0564 13.25 45.1697 13.25 45.2841V47.3694C13.2561 48.8534 13.8499 50.2745 14.9014 51.3216C15.9529 52.3687 17.3764 52.9566 18.8604 52.9566C20.3443 52.9566 21.7678 52.3687 22.8193 51.3216C23.8708 50.2745 24.4646 48.8534 24.4708 47.3694V45.2841C24.4707 45.1697 24.4482 45.0564 24.4044 44.9508C24.3606 44.8451 24.2964 44.7491 24.2155 44.6682C24.1346 44.5874 24.0386 44.5233 23.9329 44.4795C23.8272 44.4358 23.714 44.4133 23.5996 44.4133Z" fill="#4B64AA"/>
<path d="M50.6962 39.6282C48.1016 38.1375 45.1942 38.6922 44.7609 39.2471L40.2035 45.0858C39.6608 45.7789 40.2839 47.9424 40.7238 48.8639C40.7896 49.0014 40.8904 49.1193 41.0159 49.2057C41.1415 49.2921 41.2876 49.3441 41.4395 49.3564C41.5915 49.3687 41.744 49.341 41.8818 49.2759C42.0197 49.2109 42.1381 49.1108 42.2252 48.9857C44.4096 45.8429 49.5747 44.476 53.0008 46.1039C53.1396 46.1697 53.2934 46.1975 53.4465 46.1847C53.5996 46.1719 53.7466 46.1189 53.8725 46.0309C53.9985 45.943 54.0991 45.8234 54.1639 45.6841C54.2288 45.5448 54.2557 45.3909 54.2419 45.2379C54.1545 44.0842 53.7855 42.9696 53.1674 41.9916C52.5492 41.0137 51.7007 40.2021 50.6962 39.6282Z" fill="#95D6A4"/>
<path d="M36.9294 18.2317C32.3039 16.9167 30.5896 15.471 29.2723 13.9968C29.3631 13.326 29.2417 12.6436 28.9251 12.0453C28.6085 11.447 28.1126 10.9627 27.5069 10.6605C27.0745 10.4541 26.601 10.3479 26.1219 10.3499C25.6427 10.3519 25.1702 10.4619 24.7395 10.6719C24.3088 10.8819 23.931 11.1863 23.6343 11.5626C23.3376 11.9388 23.1297 12.3772 23.0259 12.845L20.5154 24.8408C20.4415 25.1971 20.4428 25.5649 20.5194 25.9207C20.596 26.2765 20.7462 26.6123 20.9603 26.9065C21.1744 27.2008 21.4477 27.4471 21.7626 27.6295C22.0775 27.8119 22.427 27.9264 22.7888 27.9657L27.0903 28.4416C27.312 28.4651 27.5163 28.5729 27.6608 28.7426C27.8053 28.9124 27.8792 29.1312 27.867 29.3538L27.0912 42.4771C27.0842 42.5956 27.1016 42.7142 27.1421 42.8258C27.1827 42.9373 27.2456 43.0394 27.327 43.1258C27.4084 43.2122 27.5066 43.281 27.6155 43.3281C27.7245 43.3751 27.8419 43.3994 27.9606 43.3995H31.4529C31.6681 43.3995 31.8757 43.3198 32.0356 43.1758C32.1955 43.0318 32.2964 42.8338 32.319 42.6198L33.9237 27.4483C33.9838 26.8728 33.8509 26.2937 33.5458 25.802C33.2408 25.3103 32.7809 24.934 32.2386 24.7323L27.9512 23.1322C27.7542 23.0591 27.5904 22.9169 27.4903 22.7321C27.3901 22.5472 27.3605 22.3324 27.4069 22.1273L28.0593 19.3144C30.5202 21.2814 33.5434 22.4137 36.691 22.5473C36.922 22.5473 37.1436 22.4555 37.3069 22.2922C37.4703 22.1288 37.5621 21.9072 37.5621 21.6762V19.0696C37.5621 18.8801 37.5003 18.6958 37.3861 18.5446C37.272 18.3934 37.1116 18.2836 36.9294 18.2317Z" fill="#B166DB"/>
<path d="M44.6205 32.9041C42.7415 31.6578 41.3367 28.488 41.1243 25.1538H42.8C43.4928 25.1541 44.1575 24.8795 44.6481 24.3904C45.1388 23.9012 45.4154 23.2374 45.4173 22.5446V20.807C45.4154 20.1142 45.1388 19.4505 44.6481 18.9614C44.1574 18.4723 43.4928 18.1979 42.8 18.1982H36.6887C36.4576 18.1983 36.2361 18.29 36.0727 18.4534C35.9093 18.6168 35.8175 18.8384 35.8175 19.0694V41.6571H28.4868C28.3474 41.6588 28.2108 41.6184 28.0946 41.5413C26.4164 40.4069 24.7147 38.3609 26.1391 35.0532C26.1962 34.9207 26.2195 34.7761 26.2069 34.6324C26.1943 34.4886 26.1462 34.3503 26.0669 34.2298C25.9876 34.1093 25.8796 34.0104 25.7526 33.9419C25.6256 33.8735 25.4836 33.8376 25.3393 33.8376H14.2245C14.084 33.8377 13.9457 33.8717 13.8212 33.9368C13.6967 34.0019 13.5899 34.0961 13.5097 34.2115C12.9978 34.9472 8.5447 41.5093 9.76576 45.3186C9.97472 45.9887 10.3824 46.5795 10.9347 47.0127C11.4871 47.4458 12.158 47.7009 12.8586 47.7441L39.4427 47.7436C40.3179 47.7436 46.9939 41.7481 46.9422 37.1252C46.9257 36.2863 46.7058 35.4638 46.3014 34.7286C45.897 33.9933 45.3202 33.3672 44.6205 32.9041Z" fill="#78C2A4"/>
<path d="M25.34 29.4934H11.3712C11.1396 29.4945 10.918 29.5873 10.7547 29.7514C10.5914 29.9156 10.4998 30.1377 10.5 30.3693C10.5016 31.7508 11.051 33.0752 12.0279 34.0521C13.0047 35.0289 14.3292 35.5784 15.7107 35.58H25.34C25.571 35.5799 25.7926 35.4882 25.956 35.3248C26.1193 35.1614 26.2111 34.9398 26.2111 34.7088V30.3646C26.2111 30.1335 26.1193 29.9119 25.956 29.7486C25.7926 29.5852 25.571 29.4934 25.34 29.4934Z" fill="#95D6A4"/>
</svg>
