<svg width="46" height="56" viewBox="0 0 46 56" fill="none" xmlns="http://www.w3.org/2000/svg">
<path d="M25.7561 6.0069C25.7561 3.81262 24.9799 1.81707 23.7114 0.323777C23.3447 -0.107926 22.6692 -0.107926 22.3025 0.323777C21.034 1.81707 20.2578 3.81262 20.2578 6.0069C20.2578 8.07146 20.9529 9.95239 22.0906 11.4122V17.0034H23.9234V11.4122C25.061 9.95228 25.7561 8.07136 25.7561 6.0069Z" fill="#B3E59F"/>
<path d="M28.7596 11.792C27.297 13.2546 26.5972 15.169 26.6782 16.9955C28.5047 17.0765 30.4191 16.3767 31.8817 14.9141C33.067 13.7288 33.7512 12.2469 33.925 10.7554C33.9919 10.1824 33.4914 9.68186 32.9183 9.74868C31.4268 9.92248 29.9449 10.6068 28.7596 11.792Z" fill="#B3E59F"/>
<path d="M5.68378 35.0794C5.17727 35.0794 4.76744 34.6692 4.76744 34.1631V22.7531H3.04916C2.54264 22.7531 2.13281 22.3428 2.13281 21.8368C2.13281 21.3307 2.54264 20.9204 3.04916 20.9204H5.68378C6.1903 20.9204 6.60013 21.3307 6.60013 21.8368V34.1631C6.60013 34.6692 6.1903 35.0794 5.68378 35.0794Z" fill="url(#paint0_linear_6531_378)"/>
<path d="M35.5728 34.5478C35.4538 34.5478 35.3338 34.5246 35.2184 34.4758C34.7513 34.2802 34.532 33.7433 34.728 33.2766L39.5578 21.7673C39.7529 21.2993 40.2934 21.08 40.757 21.2768C41.2241 21.4724 41.4434 22.0093 41.2474 22.476L36.4176 33.9853C36.2708 34.3366 35.9308 34.5478 35.5728 34.5478Z" fill="url(#paint1_linear_6531_378)"/>
<path d="M34.6444 27.4617C32.962 27.4617 31.5938 25.9381 31.5938 24.0656C31.5938 22.1925 32.962 20.6689 34.6444 20.6689C36.3268 20.6689 37.6951 22.1925 37.6951 24.0656C37.6951 25.9381 36.3268 27.4617 34.6444 27.4617ZM34.6444 22.5016C33.984 22.5016 33.4264 23.218 33.4264 24.0655C33.4264 24.9129 33.9839 25.6289 34.6444 25.6289C35.3156 25.6289 35.8624 24.9277 35.8624 24.0655C35.8624 23.218 35.3048 22.5016 34.6444 22.5016Z" fill="url(#paint2_linear_6531_378)"/>
<path d="M41.1679 35.3311C39.4855 35.3311 38.1172 33.8075 38.1172 31.9344C38.1172 30.0618 39.4855 28.5383 41.1679 28.5383C42.8503 28.5383 44.2186 30.0619 44.2186 31.9344C44.2187 33.8076 42.8503 35.3311 41.1679 35.3311ZM41.1679 30.3711C40.5075 30.3711 39.9499 31.0871 39.9499 31.9345C39.9499 32.782 40.5074 33.4984 41.1679 33.4984C41.8284 33.4984 42.3859 32.782 42.3859 31.9345C42.3859 31.0871 41.8284 30.3711 41.1679 30.3711Z" fill="url(#paint3_linear_6531_378)"/>
<path d="M25.0589 35.331C22.5881 35.331 20.5781 33.321 20.5781 30.8502V25.1497C20.5781 22.6789 22.5881 20.6689 25.0589 20.6689C27.5297 20.6689 29.5397 22.6789 29.5397 25.1497V30.8502C29.5397 33.3211 27.5297 35.331 25.0589 35.331ZM25.0589 22.5017C23.5984 22.5017 22.4109 23.6898 22.4109 25.1497V30.8502C22.4109 32.3103 23.5984 33.4982 25.0589 33.4982C26.5194 33.4982 27.7069 32.3102 27.7069 30.8502V25.1497C27.7069 23.6898 26.5194 22.5017 25.0589 22.5017Z" fill="url(#paint4_linear_6531_378)"/>
<path d="M13.6526 35.331C11.1819 35.331 9.17188 33.321 9.17188 30.8502V25.1497C9.17188 22.6789 11.1819 20.6689 13.6526 20.6689C16.1234 20.6689 18.1334 22.6789 18.1334 25.1497V30.8502C18.1334 33.3211 16.1235 35.331 13.6526 35.331ZM13.6526 22.5017C12.1922 22.5017 11.0047 23.6898 11.0047 25.1497V30.8502C11.0047 32.3103 12.1922 33.4982 13.6526 33.4982C15.1131 33.4982 16.3006 32.3102 16.3006 30.8502V25.1497C16.3007 23.6898 15.1131 22.5017 13.6526 22.5017Z" fill="url(#paint5_linear_6531_378)"/>
<path d="M10.1757 17.9199C7.64934 17.9199 5.59375 15.8643 5.59375 13.338C5.59375 12.8319 6.00358 12.4216 6.51009 12.4216C7.01661 12.4216 7.42644 12.8319 7.42644 13.338C7.42644 14.8539 8.65964 16.0871 10.1756 16.0871C10.6821 16.0871 11.0919 16.4974 11.0919 17.0035C11.092 17.5095 10.6822 17.9199 10.1757 17.9199Z" fill="#78C2A4"/>
<path d="M35.8304 17.9198C35.3239 17.9198 34.9141 17.5095 34.9141 17.0035C34.9141 16.4974 35.3239 16.0871 35.8304 16.0871C37.3463 16.0871 38.5795 14.8539 38.5795 13.338C38.5795 12.8319 38.9894 12.4216 39.4959 12.4216C40.0024 12.4216 40.4122 12.8319 40.4122 13.338C40.4123 15.8642 38.3567 17.9198 35.8304 17.9198Z" fill="#B3E59F"/>
<path d="M44.9961 16.0871H19.3056C19.1585 14.5498 18.4712 13.0134 17.2499 11.792C16.0646 10.6067 14.5827 9.92248 13.0911 9.74868C12.5181 9.68186 12.0176 10.1824 12.0844 10.7554C12.2582 12.2469 12.9426 13.729 14.1278 14.9141C14.5982 15.3847 15.1159 15.775 15.6619 16.0871H1.01009C0.503578 16.0871 0.09375 16.4973 0.09375 17.0034C0.09375 17.5095 0.503578 17.9198 1.01009 17.9198H44.9962C45.5027 17.9198 45.9126 17.5095 45.9126 17.0034C45.9126 16.4973 45.5026 16.0871 44.9961 16.0871Z" fill="#95D6A4"/>
<path d="M25.7561 49.993C25.7561 52.1873 24.9799 54.1829 23.7114 55.6762C23.3447 56.1079 22.6692 56.1079 22.3025 55.6762C21.034 54.1829 20.2578 52.1873 20.2578 49.993C20.2578 47.9285 20.9529 46.0476 22.0906 44.5877V38.9966H23.9234V44.5877C25.061 46.0477 25.7561 47.9286 25.7561 49.993Z" fill="#B3E59F"/>
<path d="M28.7596 44.2079C27.297 42.7453 26.5972 40.8309 26.6782 39.0043C28.5047 38.9234 30.4191 39.6232 31.8817 41.0858C33.067 42.2711 33.7512 43.753 33.925 45.2445C33.9919 45.8175 33.4914 46.318 32.9183 46.2512C31.4268 46.0774 29.9449 45.3931 28.7596 44.2079Z" fill="#B3E59F"/>
<path d="M10.1757 38.0801C7.64934 38.0801 5.59375 40.1357 5.59375 42.662C5.59375 43.1681 6.00358 43.5784 6.51009 43.5784C7.01661 43.5784 7.42644 43.1681 7.42644 42.662C7.42644 41.1461 8.65964 39.9129 10.1756 39.9129C10.6821 39.9129 11.0919 39.5026 11.0919 38.9965C11.092 38.4905 10.6822 38.0801 10.1757 38.0801Z" fill="#78C2A4"/>
<path d="M35.8304 38.0801C35.3239 38.0801 34.9141 38.4903 34.9141 38.9964C34.9141 39.5025 35.3239 39.9128 35.8304 39.9128C37.3463 39.9128 38.5795 41.146 38.5795 42.6619C38.5795 43.168 38.9894 43.5782 39.4959 43.5782C40.0024 43.5782 40.4122 43.168 40.4122 42.6619C40.4123 40.1357 38.3567 38.0801 35.8304 38.0801Z" fill="#B3E59F"/>
<path d="M44.9961 38.0801H1.01009C0.503578 38.0801 0.09375 38.4903 0.09375 38.9964C0.09375 39.5025 0.503578 39.9128 1.01009 39.9128H15.6619C15.1159 40.2248 14.5983 40.6152 14.1278 41.0857C12.9425 42.2709 12.2582 43.7529 12.0844 45.2445C12.0176 45.8175 12.5181 46.318 13.0911 46.2512C14.5827 46.0774 16.0646 45.3931 17.2499 44.2078C18.4713 42.9864 19.1586 41.45 19.3056 39.9128H44.9961C45.5026 39.9128 45.9125 39.5025 45.9125 38.9964C45.9125 38.4903 45.5026 38.0801 44.9961 38.0801Z" fill="#95D6A4"/>
<defs>
<linearGradient id="paint0_linear_6531_378" x1="4.36647" y1="20.9204" x2="4.36647" y2="35.0794" gradientUnits="userSpaceOnUse">
<stop stop-color="#B166DB"/>
<stop offset="1" stop-color="#CC98E9" stop-opacity="0.65"/>
</linearGradient>
<linearGradient id="paint1_linear_6531_378" x1="37.9877" y1="21.2046" x2="37.9877" y2="34.5478" gradientUnits="userSpaceOnUse">
<stop stop-color="#B166DB"/>
<stop offset="1" stop-color="#CC98E9" stop-opacity="0.65"/>
</linearGradient>
<linearGradient id="paint2_linear_6531_378" x1="34.6444" y1="20.6689" x2="34.6444" y2="27.4617" gradientUnits="userSpaceOnUse">
<stop stop-color="#B166DB"/>
<stop offset="1" stop-color="#CC98E9" stop-opacity="0.65"/>
</linearGradient>
<linearGradient id="paint3_linear_6531_378" x1="41.1679" y1="28.5383" x2="41.1679" y2="35.3311" gradientUnits="userSpaceOnUse">
<stop stop-color="#B166DB"/>
<stop offset="1" stop-color="#CC98E9" stop-opacity="0.65"/>
</linearGradient>
<linearGradient id="paint4_linear_6531_378" x1="25.0589" y1="20.6689" x2="25.0589" y2="35.331" gradientUnits="userSpaceOnUse">
<stop stop-color="#B166DB"/>
<stop offset="1" stop-color="#CC98E9" stop-opacity="0.65"/>
</linearGradient>
<linearGradient id="paint5_linear_6531_378" x1="13.6526" y1="20.6689" x2="13.6526" y2="35.331" gradientUnits="userSpaceOnUse">
<stop stop-color="#B166DB"/>
<stop offset="1" stop-color="#CC98E9" stop-opacity="0.65"/>
</linearGradient>
</defs>
</svg>
