<svg width="56" height="54" viewBox="0 0 56 54" fill="none" xmlns="http://www.w3.org/2000/svg">
<path d="M52.8954 30.7126C52.3012 30.598 51.7285 30.9866 51.6144 31.5796C49.4402 42.8629 39.5088 51.0522 28 51.0522C16.7336 51.0522 6.97907 43.2042 4.53333 32.2886L4.8188 32.5741C5.03241 32.7877 5.3123 32.8945 5.59219 32.8945C5.87209 32.8945 6.15198 32.7877 6.36548 32.5742C6.79269 32.1471 6.79269 31.4546 6.36558 31.0274L4.11629 28.778C3.91121 28.5728 3.63296 28.4575 3.3429 28.4575C3.05283 28.4575 2.77458 28.5728 2.56951 28.778L0.320318 31.0274C-0.106791 31.4545 -0.106791 32.147 0.320428 32.5742C0.747428 33.0014 1.4401 33.0013 1.86721 32.5741L2.27212 32.1692C4.71304 44.3892 15.5042 53.2397 28 53.2397C40.5554 53.2397 51.3901 44.3044 53.7624 31.9936C53.8767 31.4005 53.4885 30.8269 52.8954 30.7126Z" fill="#78C2A4"/>
<path d="M55.6807 21.4258C55.2537 20.9986 54.561 20.9987 54.1339 21.4259L53.729 21.8308C51.2881 9.61077 40.4969 0.760254 28.0011 0.760254C15.4456 0.760254 4.61095 9.69554 2.23871 22.0064C2.12441 22.5996 2.51259 23.1731 3.10573 23.2874C3.69963 23.4014 4.27243 23.0133 4.38673 22.4203C6.56099 11.1371 16.4924 2.94775 28.0011 2.94775C39.2675 2.94775 49.022 10.7957 51.4678 21.7114L51.1823 21.4259C50.7553 20.9988 50.0628 20.9987 49.6355 21.4258C49.2083 21.8529 49.2083 22.5454 49.6354 22.9726L51.8846 25.222C52.0897 25.4272 52.3679 25.5424 52.658 25.5424C52.948 25.5424 53.2263 25.4272 53.4314 25.222L55.6806 22.9726C56.108 22.5455 56.108 21.8529 55.6807 21.4258Z" fill="#78C2A4"/>
<path d="M29.926 33.8889C30.104 33.9644 30.2875 34 30.468 34C31.0518 34 31.6038 33.6268 31.8327 33.0142L35.8957 22.1407C36.1953 21.3387 35.8274 20.43 35.0741 20.111C34.321 19.7922 33.467 20.1835 33.1673 20.9857L29.1043 31.8592C28.8047 32.6612 29.1726 33.5699 29.926 33.8889Z" fill="#BF7FE3"/>
<path d="M38.5442 23.1253H42.0899L38.3182 31.8077C37.9749 32.5978 38.3297 33.5199 39.1105 33.8673C39.3128 33.9573 39.5236 34 39.7313 34C40.3252 33.9998 40.8915 33.6512 41.1457 33.0658L45.8694 22.1917C46.0793 21.7083 46.0341 21.1505 45.749 20.7086C45.4637 20.2665 44.9774 20 44.4558 20H38.5443C37.6915 20 37 20.6998 37 21.5628C36.9998 22.4255 37.6912 23.1253 38.5442 23.1253Z" fill="#BF7FE3"/>
<path d="M19.1963 30.0226C19.4504 30.4988 19.9131 30.7908 20.413 30.7908H23.907C23.903 31.3669 23.8989 31.9186 23.895 32.4239C23.8884 33.2869 24.5156 33.9925 25.2958 34H25.3083C26.0829 34 26.7142 33.3091 26.721 32.4507C26.7242 32.0418 26.7285 31.4614 26.7333 30.7826C27.4448 30.7015 28 30.0365 28 29.2282C28 28.4268 27.4547 27.7664 26.752 27.6759C26.7648 25.1323 26.7696 22.5716 26.7407 22.1881C26.6652 21.1831 26.1101 20.3607 25.3268 20.0922C24.5445 19.8246 23.722 20.1475 23.1262 20.956C22.5666 21.715 20.1773 26.4659 19.1759 28.4732C18.9343 28.9575 18.9421 29.5465 19.1963 30.0226ZM23.9344 25.4833C23.9323 26.1582 23.9293 26.901 23.9255 27.6655H22.8163C23.209 26.8918 23.5906 26.1462 23.9344 25.4833Z" fill="#BF7FE3"/>
<path d="M17.4738 33.9721C18.3273 33.9615 19.0105 33.2637 18.9999 32.4138C18.9894 31.5705 18.2994 30.8941 17.4548 30.8941C17.4482 30.8941 17.4415 30.8941 17.4349 30.8942C16.5886 30.9047 15.6995 30.9126 14.8962 30.9164C15.4523 30.1667 16.1663 29.1843 17.0682 27.9011C17.7797 26.889 18.2448 25.9268 18.451 25.0413C18.5017 24.8449 18.5437 24.5671 18.5442 24.2795C18.5476 21.9197 16.6163 20 14.2464 20C12.1974 20 10.424 21.4517 10.0293 23.4516C9.8648 24.2856 10.4103 25.0946 11.248 25.2585C12.0863 25.4227 12.8982 24.8791 13.0627 24.0449C13.1732 23.4847 13.6711 23.0782 14.2464 23.0782C14.8852 23.0782 15.4095 23.5753 15.4502 24.2013L15.4231 24.412C15.3309 24.7631 15.1007 25.3319 14.5356 26.1359C12.8358 28.5542 11.8218 29.8761 11.2771 30.5863C10.5786 31.497 10.1939 31.9985 10.4509 32.8315C10.6023 33.3211 10.9884 33.7117 11.485 33.8767C11.6914 33.9452 11.8566 34 13.9675 34C14.7963 33.9998 15.925 33.9915 17.4738 33.9721Z" fill="#BF7FE3"/>
</svg>
