<svg width="51" height="56" viewBox="0 0 51 56" fill="none" xmlns="http://www.w3.org/2000/svg">
<path d="M39.0288 44.0101C39.0737 42.6284 37.956 41.4808 36.5811 41.4808H36.576V41.48H36.7806C38.1154 41.4787 39.1963 40.3956 39.1954 39.0609C39.1946 37.7262 38.1115 36.6521 36.7768 36.6529C35.6638 36.6529 27.9037 36.6529 26.7211 36.6529C26.4409 36.6529 26.2422 36.3791 26.3293 36.1129L27.2108 33.4225C27.961 31.1329 27.8277 29.5739 27.8277 26.8921C27.8277 25.3147 26.549 24.0364 24.9716 24.0364C23.5386 24.0364 22.3273 25.0977 22.1398 26.5182C21.9326 28.0901 21.7924 30.8851 19.1943 33.3871L17.3602 35.1525C16.3386 36.1364 14.9757 36.6858 13.5577 36.6858H11.1484V52.5392C11.8038 52.5388 13.1206 52.5388 13.1215 52.5388C16.6227 52.5367 16.3027 56.0038 20.6572 55.9999H35.4771C36.8101 55.9999 37.8906 54.919 37.8906 53.586C37.8906 52.2525 36.8101 51.172 35.4771 51.172H35.9022C37.2139 51.172 38.3341 50.1518 38.3777 48.8406C38.4234 47.47 37.3258 46.3442 35.9655 46.3442H36.5525C37.8654 46.3442 38.9865 45.3226 39.0288 44.0101Z" fill="#FFCDBF"/>
<path d="M35.4767 53.1825H20.6568C16.3023 53.1868 16.6223 49.7193 13.121 49.7214C13.1202 49.7214 11.8034 49.7219 11.1484 49.7223V52.5391C11.8034 52.5387 13.1202 52.5387 13.121 52.5387C16.6223 52.5366 16.3023 56.0036 20.6568 55.9998H35.4767C36.8097 55.9998 37.8902 54.9189 37.8902 53.5859C37.8902 53.0595 37.7202 52.5737 37.4339 52.1772C36.996 52.7852 36.2833 53.1825 35.4767 53.1825Z" fill="#FFBEAB"/>
<path d="M10.4618 35.2615H1.31915C0.629578 35.2615 0.0703125 35.8207 0.0703125 36.5103V53.0251C0.0703125 53.7151 0.62915 54.2744 1.31915 54.2744H10.4618C11.1514 54.2744 11.7106 53.7151 11.7106 53.0251V36.5103C11.7106 35.8207 11.1514 35.2615 10.4618 35.2615Z" fill="#95D6A4"/>
<path d="M3.45068 53.0255V36.5103C3.45068 35.8207 4.00995 35.2615 4.69995 35.2615H1.31915C0.629578 35.2615 0.0703125 35.8207 0.0703125 36.5103V53.0251C0.0703125 53.7151 0.62915 54.2744 1.31915 54.2744H4.69952C4.00995 54.2744 3.45068 53.7151 3.45068 53.0255Z" fill="#78C2A4"/>
<path d="M13.2434 13.0766C13.5843 12.7507 13.3963 12.1837 12.9251 12.1162L9.2845 11.5984C9.09737 11.5715 8.93587 11.4565 8.85213 11.2903L7.22389 8.05907C7.01326 7.64079 6.40443 7.64079 6.19338 8.05907L4.56557 11.2903C4.48183 11.4565 4.3199 11.5719 4.13277 11.5984L0.492629 12.1162C0.0213768 12.1833 -0.167039 12.7507 0.174331 13.0766L2.8083 15.5918C2.94374 15.7209 3.00526 15.9071 2.97365 16.09L2.35158 19.6413C2.27126 20.101 2.76387 20.4518 3.18556 20.2347L6.44161 18.5578C6.60866 18.4719 6.80904 18.4719 6.97609 18.5578L10.2321 20.2347C10.6538 20.4518 11.1464 20.101 11.0661 19.6413L10.444 16.09C10.412 15.9071 10.474 15.7209 10.6094 15.5918L13.2434 13.0766Z" fill="#FECA57"/>
<path d="M6.94856 15.4396C6.9806 15.2572 6.91908 15.0709 6.78364 14.9415L4.14924 12.4263C3.88819 12.1772 3.93818 11.7867 4.18726 11.5872C4.16932 11.5914 4.15138 11.5953 4.13258 11.5978L0.49244 12.1161C0.0211873 12.1832 -0.166801 12.7505 0.174142 13.0761L2.80811 15.5913C2.94355 15.7208 3.0055 15.907 2.97346 16.0895L2.35181 19.6412C2.27107 20.1009 2.76368 20.4517 3.18537 20.2346L6.39912 18.5795L6.94856 15.4396Z" fill="#F4B537"/>
<path d="M4.46436 11.4664L8.10449 10.9481C8.28564 10.9225 8.44244 10.8131 8.52832 10.6554L7.22052 8.05907C7.00946 7.64079 6.40063 7.64079 6.19 8.05907L4.56177 11.2903C4.52417 11.3647 4.47034 11.4283 4.40625 11.4787C4.42505 11.474 4.44427 11.4693 4.46436 11.4664Z" fill="#F4B537"/>
<path d="M50.7358 13.0766C51.0767 12.7507 50.8883 12.1837 50.4171 12.1162L46.7769 11.5984C46.5898 11.5715 46.4279 11.4565 46.3441 11.2903L44.7163 8.05907C44.5057 7.64079 43.8964 7.64079 43.6858 8.05907L42.0575 11.2903C41.9738 11.4565 41.8123 11.5719 41.6252 11.5984L37.985 12.1162C37.5134 12.1833 37.3254 12.7507 37.6663 13.0766L40.3003 15.5918C40.4357 15.7209 40.4977 15.9071 40.4656 16.09L39.844 19.6413C39.7632 20.101 40.2563 20.4518 40.6775 20.2347L43.9336 18.5578C44.1011 18.4719 44.301 18.4719 44.4685 18.5578L47.7241 20.2347C48.1458 20.4518 48.6384 20.101 48.5581 19.6413L47.936 16.09C47.904 15.9071 47.9659 15.7209 48.1014 15.5918L50.7358 13.0766Z" fill="#FECA57"/>
<path d="M44.4411 15.4396C44.4731 15.2572 44.4111 15.0709 44.2757 14.9415L41.6417 12.4263C41.3807 12.1772 41.4307 11.7867 41.6793 11.5872C41.6614 11.5914 41.6434 11.5953 41.6251 11.5978L37.9849 12.1161C37.5137 12.1832 37.3253 12.7505 37.6662 13.0761L40.3006 15.5913C40.436 15.7208 40.4976 15.907 40.4655 16.0895L39.8439 19.6412C39.7636 20.1009 40.2562 20.4517 40.6779 20.2346L43.8916 18.5795L44.4411 15.4396Z" fill="#F4B537"/>
<path d="M41.9644 11.4664L45.6045 10.9481C45.7861 10.9225 45.9429 10.8131 46.0283 10.6554L44.7205 8.05907C44.5099 7.64079 43.9006 7.64079 43.69 8.05907L42.0622 11.2903C42.0246 11.3647 41.9708 11.4283 41.9062 11.4787C41.9255 11.474 41.9443 11.4693 41.9644 11.4664Z" fill="#F4B537"/>
<path d="M36.0228 8.61998C36.5744 8.09319 36.2697 7.17589 35.508 7.06737L29.6218 6.22954C29.3193 6.18639 29.0574 6.00053 28.9224 5.7318L26.2901 0.507004C25.9492 -0.169327 24.9644 -0.169327 24.6239 0.507004L21.9916 5.7318C21.8562 6.00053 21.5947 6.18639 21.2918 6.22954L15.406 7.06737C14.6438 7.17589 14.3396 8.09319 14.8908 8.61998L19.15 12.6865C19.3692 12.8959 19.4691 13.1971 19.4174 13.4923L18.4117 19.2345C18.2818 19.9779 19.0786 20.5448 19.7601 20.1941L25.0246 17.4828C25.2955 17.3435 25.6185 17.3435 25.8894 17.4828L31.1539 20.1941C31.8353 20.5448 32.6322 19.9779 32.5019 19.2345L31.4965 13.4923C31.4448 13.1971 31.5448 12.8959 31.7636 12.6865L36.0228 8.61998Z" fill="#FECA57"/>
<path d="M25.2635 5.5797C25.566 5.53654 25.8275 5.35027 25.9629 5.08195L27.2771 2.47362L26.2863 0.507004C25.9454 -0.169327 24.9606 -0.169327 24.6201 0.507004L21.9878 5.7318C21.9117 5.88176 21.796 6.00523 21.6562 6.09325L25.2635 5.5797Z" fill="#F4B537"/>
<path d="M22.3872 18.5847L23.3925 12.8421C23.4442 12.5469 23.3443 12.2457 23.1255 12.0367L18.8663 7.96979C18.4177 7.54169 18.5356 6.8551 19.0047 6.55518L15.406 7.06744C14.6438 7.17596 14.3396 8.09326 14.8908 8.62006L19.15 12.6866C19.3692 12.8959 19.4691 13.1971 19.4174 13.4924L18.4117 19.2346C18.2818 19.978 19.0782 20.5449 19.7601 20.1941L22.3795 18.8449C22.3697 18.7616 22.3714 18.6744 22.3872 18.5847Z" fill="#F4B537"/>
<path d="M31.6094 45.2172C31.6094 45.8397 32.114 46.3443 32.736 46.3443H36.5522C37.8382 46.3443 38.9371 45.3638 39.0221 44.0906H32.7364C32.114 44.0906 31.6094 44.5952 31.6094 45.2172Z" fill="#FFBEAB"/>
<path d="M31.6094 40.353C31.6094 40.9755 32.114 41.48 32.736 41.48H36.7799C38.0591 41.4788 39.1024 40.4837 39.187 39.2263H32.736C32.114 39.2263 31.6094 39.7309 31.6094 40.353Z" fill="#FFBEAB"/>
<path d="M38.371 48.9185H32.736C32.114 48.9185 31.6094 49.423 31.6094 50.0451C31.6094 50.6676 32.114 51.1722 32.736 51.1722H35.9019C37.1875 51.1722 38.2859 50.1917 38.371 48.9185Z" fill="#FFBEAB"/>
</svg>
