<svg width="27" height="27" viewBox="0 0 27 27" fill="none" xmlns="http://www.w3.org/2000/svg">
<path d="M17.0176 6.69897H9.91523C8.13793 6.69897 6.69189 8.14501 6.69189 9.92231V17.0898C6.69189 18.8671 8.13793 20.3131 9.91523 20.3131H17.0176C18.7949 20.3131 20.2409 18.8671 20.2409 17.0898V9.92231C20.2409 8.14501 18.7949 6.69897 17.0176 6.69897ZM13.4799 17.7978C11.0708 17.7978 9.1109 15.8587 9.1109 13.4753C9.1109 11.0918 11.0711 9.15275 13.4799 9.15275C15.8888 9.15275 17.849 11.0918 17.849 13.4753C17.849 15.8587 15.8891 17.7978 13.4799 17.7978ZM17.9267 10.0039C17.359 10.0039 16.8988 9.54369 16.8988 8.97589C16.8988 8.4081 17.359 7.9479 17.9267 7.9479C18.4945 7.9479 18.9547 8.4081 18.9547 8.97589C18.9547 9.54369 18.4945 10.0039 17.9267 10.0039Z" fill="#00554E"/>
<path d="M13.5 0C6.04423 0 0 6.04423 0 13.5C0 20.9558 6.04423 27 13.5 27C20.9558 27 27 20.9558 27 13.5C27 6.04423 20.9558 0 13.5 0ZM21.8354 17.0899C21.8354 19.7465 19.674 21.9077 17.0176 21.9077H9.91529C7.25866 21.9077 5.09754 19.7463 5.09754 17.0899V9.92241C5.09754 7.26578 7.25893 5.10466 9.91529 5.10466H17.0176C19.6743 5.10466 21.8354 7.26605 21.8354 9.92241V17.0899Z" fill="#00554E"/>
<path d="M13.4798 10.7441C11.9481 10.7441 10.7021 11.9692 10.7021 13.4752C10.7021 14.9812 11.9481 16.2063 13.4798 16.2063C15.0115 16.2063 16.2574 14.9812 16.2574 13.4752C16.2574 11.9692 15.0115 10.7441 13.4798 10.7441Z" fill="#00554E"/>
</svg>
