<svg width="32" height="32" viewBox="0 0 32 32" fill="none" xmlns="http://www.w3.org/2000/svg">
<path d="M23.1998 14.4C23.1998 20 15.9998 24.8 15.9998 24.8C15.9998 24.8 8.7998 20 8.7998 14.4C8.7998 12.4904 9.55837 10.659 10.9086 9.30878C12.2589 7.95852 14.0902 7.19995 15.9998 7.19995C17.9094 7.19995 19.7407 7.95852 21.091 9.30878C22.4412 10.659 23.1998 12.4904 23.1998 14.4Z" stroke="#333333" stroke-width="1.5" stroke-linecap="round" stroke-linejoin="round"/>
<path d="M15.9998 16.8C17.3253 16.8 18.3998 15.7254 18.3998 14.4C18.3998 13.0745 17.3253 12 15.9998 12C14.6743 12 13.5998 13.0745 13.5998 14.4C13.5998 15.7254 14.6743 16.8 15.9998 16.8Z" stroke="#333333" stroke-width="1.5" stroke-linecap="round" stroke-linejoin="round"/>
</svg>
