<svg width="20" height="20" viewBox="0 0 20 20" fill="none" xmlns="http://www.w3.org/2000/svg">
<path d="M11.9843 11.696C11.7646 11.9317 11.4996 12.1209 11.2052 12.252C10.9108 12.3832 10.593 12.4538 10.2708 12.4594C9.9485 12.4651 9.62841 12.4059 9.32957 12.2851C9.03073 12.1644 8.75926 11.9848 8.53136 11.7569C8.30346 11.529 8.1238 11.2575 8.00309 10.9587C7.88238 10.6598 7.8231 10.3397 7.82879 10.0175C7.83447 9.69523 7.90501 9.37743 8.03618 9.08303C8.16736 8.78863 8.35648 8.52367 8.59228 8.30395M1.48828 1.19995L19.0883 18.8M15.0403 14.752C13.6728 15.7944 12.0076 16.3718 10.2883 16.4C4.68828 16.4 1.48828 9.99995 1.48828 9.99995C2.48339 8.14547 3.86359 6.52524 5.53628 5.24795L15.0403 14.752ZM8.60828 3.79195C9.15895 3.66305 9.72273 3.59862 10.2883 3.59995C15.8883 3.59995 19.0883 9.99995 19.0883 9.99995C18.6027 10.9084 18.0235 11.7637 17.3603 12.552L8.60828 3.79195Z" stroke="#333333" stroke-linecap="round" stroke-linejoin="round"/>
</svg>
