<svg width="45" height="56" viewBox="0 0 45 56" fill="none" xmlns="http://www.w3.org/2000/svg">
<path d="M44.3965 50.4561L38.0715 33.8263C38.6965 33.4527 39.2396 32.9569 39.6686 32.3686C40.1294 31.7352 40.4448 31.008 40.5924 30.2388C40.7399 29.4696 40.716 28.6772 40.5222 27.9183C40.3584 27.2547 40.386 26.5583 40.6016 25.9097C40.8173 25.2611 41.2122 24.6869 41.7407 24.2535C42.3525 23.752 42.8452 23.1209 43.1832 22.4057C43.5212 21.6905 43.696 20.9091 43.695 20.1181C43.694 19.327 43.5172 18.5461 43.1775 17.8317C42.8377 17.1174 42.3434 16.4875 41.7304 15.9875C41.2038 15.5524 40.8112 14.9771 40.5979 14.3282C40.3846 13.6792 40.3593 12.9832 40.5251 12.3205C40.7173 11.5629 40.7402 10.7722 40.5922 10.0048C40.4443 9.2373 40.129 8.51186 39.6689 7.88003C39.1971 7.23101 38.588 6.69401 37.885 6.30727C37.182 5.92054 36.4023 5.69358 35.6016 5.64257C34.9127 5.59621 34.2503 5.3591 33.6884 4.95778C33.1266 4.55645 32.6875 4.00673 32.4202 3.37011C32.121 2.64132 31.6664 1.98659 31.0881 1.45159C30.5099 0.916589 29.8218 0.514208 29.072 0.272518C28.3114 0.023838 27.5058 -0.0559832 26.7112 0.0386182C25.9167 0.13322 25.1523 0.399967 24.4714 0.820268C23.8777 1.183 23.1954 1.37493 22.4997 1.37493C21.8039 1.37493 21.1216 1.183 20.5279 0.820268C19.847 0.399951 19.0827 0.133193 18.2881 0.0385915C17.4935 -0.0560103 16.6879 0.0238202 15.9274 0.272518C15.1778 0.514406 14.49 0.916862 13.9119 1.45183C13.3339 1.9868 12.8794 2.64141 12.5803 3.37002C12.3123 4.00783 11.8718 4.55837 11.3084 4.95989C10.745 5.36141 10.0809 5.59805 9.3905 5.64327C8.59111 5.69508 7.81297 5.92244 7.11144 6.30916C6.4099 6.69588 5.80222 7.23247 5.33163 7.88073C4.87081 8.51408 4.55538 9.24129 4.40783 10.0105C4.26027 10.7798 4.28423 11.5721 4.47798 12.331C4.64175 12.9946 4.61421 13.691 4.39856 14.3396C4.18291 14.9882 3.78797 15.5625 3.25946 15.9959C2.64769 16.4974 2.155 17.1285 1.81702 17.8437C1.47904 18.5589 1.30423 19.3403 1.30522 20.1313C1.30621 20.9223 1.48297 21.7033 1.82273 22.4176C2.16249 23.1319 2.65676 23.7619 3.26978 24.2618C3.79633 24.6969 4.18895 25.2721 4.40225 25.921C4.61554 26.5699 4.6408 27.2659 4.4751 27.9286C4.2829 28.6862 4.25998 29.4768 4.40796 30.2443C4.55594 31.0117 4.87118 31.7372 5.33128 32.369C5.76037 32.957 6.3036 33.4525 6.92851 33.8258L0.603745 50.4561C0.544142 50.6124 0.530649 50.7826 0.564866 50.9464C0.599084 51.1102 0.679576 51.2607 0.796789 51.3801C0.914002 51.4995 1.06301 51.5828 1.22614 51.6201C1.38927 51.6573 1.55966 51.647 1.7171 51.5903L8.60606 49.1141L12.1069 55.5428C12.1821 55.681 12.2931 55.7963 12.4283 55.8767C12.5635 55.9571 12.7178 55.9995 12.8751 55.9995C12.8948 55.9995 12.9144 55.9987 12.9341 55.9974C13.101 55.9862 13.2613 55.9272 13.3958 55.8276C13.5302 55.7281 13.6334 55.592 13.6929 55.4356L19.6144 39.8746C19.9323 39.7544 20.2384 39.605 20.5288 39.4283C21.1224 39.0658 21.8045 38.874 22.5001 38.874C23.1957 38.874 23.8778 39.0658 24.4714 39.4283L24.4723 39.4288C24.7619 39.6031 25.0669 39.7503 25.3836 39.8686L31.3073 55.4348C31.3668 55.5912 31.47 55.7273 31.6044 55.8269C31.7389 55.9264 31.8992 55.9854 32.0661 55.9966C32.0858 55.9979 32.1054 55.9987 32.1251 55.9987C32.2824 55.9987 32.4368 55.9563 32.5719 55.8759C32.7071 55.7955 32.8181 55.6802 32.8933 55.542L36.3941 49.1133L43.2831 51.5895C43.4405 51.6462 43.6109 51.6565 43.7741 51.6193C43.9372 51.582 44.0862 51.4987 44.2034 51.3793C44.3206 51.2599 44.4011 51.1094 44.4353 50.9456C44.4696 50.7818 44.4561 50.6116 44.3965 50.4553V50.4561ZM12.7341 53.0353L9.78442 47.619C9.6845 47.4358 9.52239 47.2943 9.32733 47.22C9.13227 47.1457 8.91709 47.1436 8.7206 47.214L2.91515 49.3004L8.55373 34.4759C8.83173 34.541 9.11431 34.5846 9.39898 34.6065C10.0879 34.6528 10.7503 34.8899 11.3121 35.2913C11.874 35.6926 12.3131 36.2423 12.5803 36.8789C12.8795 37.6077 13.334 38.2624 13.9123 38.7974C14.4905 39.3323 15.1785 39.7347 15.9282 39.9764C16.469 40.1511 17.0334 40.2413 17.6016 40.244L12.7341 53.0353ZM19.6085 37.9395C19.144 38.2264 18.6225 38.4084 18.0804 38.4728C17.5383 38.5372 16.9887 38.4825 16.4699 38.3125C15.962 38.1491 15.4958 37.877 15.1038 37.515C14.7118 37.1529 14.4035 36.7098 14.2004 36.2164C13.8073 35.2765 13.1602 34.4646 12.3316 33.8717C11.5031 33.2789 10.5257 32.9286 9.50923 32.86C8.96573 32.8251 8.43657 32.671 7.95939 32.4084C7.48221 32.1459 7.06873 31.7815 6.74835 31.3411C6.43844 30.9152 6.22636 30.4262 6.12726 29.9089C6.02816 29.3916 6.04448 28.8588 6.17505 28.3486C6.419 27.3636 6.37931 26.3297 6.06057 25.3663C5.74183 24.4029 5.15705 23.5493 4.37377 22.9042C3.96083 22.5669 3.62824 22.1419 3.40016 21.6599C3.17208 21.178 3.05425 20.6513 3.05523 20.1181C3.05621 19.5849 3.17597 19.0586 3.40582 18.5775C3.63568 18.0964 3.96983 17.6726 4.38401 17.3368C5.16539 16.6901 5.74794 15.8356 6.06442 14.872C6.3809 13.9083 6.4184 12.8748 6.1726 11.8908C6.04354 11.3818 6.02824 10.8506 6.12778 10.335C6.22732 9.81947 6.43926 9.33217 6.74852 8.90781C7.07015 8.46642 7.48518 8.10141 7.96404 7.83879C8.44289 7.57617 8.97378 7.42241 9.51886 7.38846C10.5338 7.31856 11.5092 6.96763 12.336 6.37494C13.1628 5.78225 13.8084 4.97118 14.2005 4.03248C14.4035 3.53903 14.7118 3.09583 15.1038 2.73387C15.4958 2.37191 15.9621 2.0999 16.4701 1.93686C16.9891 1.767 17.5388 1.71237 18.081 1.77678C18.6232 1.84119 19.1448 2.02308 19.6095 2.30978C20.4802 2.84145 21.4806 3.12274 22.5007 3.12274C23.5209 3.12274 24.5212 2.84145 25.3919 2.30978C25.8565 2.02316 26.3779 1.8413 26.92 1.77689C27.4621 1.71249 28.0116 1.76707 28.5304 1.93686C29.0384 2.10018 29.5046 2.37234 29.8966 2.73435C30.2886 3.09637 30.5969 3.53952 30.8 4.03292C31.1931 4.97286 31.8402 5.78475 32.6687 6.37758C33.4973 6.97041 34.4746 7.32075 35.4911 7.38933C36.0346 7.42421 36.5638 7.57839 37.041 7.84091C37.5181 8.10343 37.9316 8.46784 38.252 8.90825C38.562 9.3341 38.774 9.82313 38.8731 10.3404C38.9722 10.8577 38.9559 11.3905 38.8253 11.9007C38.5814 12.8857 38.6211 13.9196 38.9398 14.883C39.2585 15.8464 39.8433 16.7 40.6266 17.3451C41.0395 17.6824 41.3721 18.1075 41.6002 18.5894C41.8283 19.0713 41.9461 19.5981 41.9452 20.1312C41.9442 20.6644 41.8244 21.1907 41.5946 21.6718C41.3647 22.1529 41.0305 22.5768 40.6164 22.9125C39.835 23.5592 39.2524 24.4136 38.9359 25.3772C38.6194 26.3408 38.5819 27.3743 38.8276 28.3583C38.9567 28.8673 38.972 29.3984 38.8725 29.914C38.7729 30.4296 38.561 30.9169 38.2517 31.3412C37.9301 31.7826 37.515 32.1477 37.0362 32.4103C36.5573 32.6729 36.0264 32.8267 35.4813 32.8606C34.4664 32.9305 33.491 33.2814 32.6642 33.8741C31.8374 34.4668 31.1918 35.2779 30.7997 36.2166C30.5967 36.71 30.2885 37.1532 29.8964 37.5152C29.5044 37.8771 29.0381 38.1491 28.5301 38.3122C28.0112 38.4826 27.4614 38.5375 26.9191 38.473C26.3768 38.4086 25.8552 38.2264 25.3907 37.9393C24.52 37.4077 23.5196 37.1264 22.4995 37.1265C21.4794 37.1265 20.4791 37.4079 19.6085 37.9395ZM36.2796 47.2137C36.0831 47.1432 35.8679 47.1453 35.6728 47.2195C35.4777 47.2938 35.3156 47.4354 35.2158 47.6187L32.2661 53.0349L27.3993 40.246C27.9674 40.2427 28.5315 40.152 29.072 39.977C29.8218 39.7351 30.5099 39.3326 31.0883 38.7976C31.6667 38.2625 32.1214 37.6078 32.4208 36.8789C32.6885 36.2411 33.1287 35.6904 33.692 35.2889C34.2553 34.8874 34.9194 34.6508 35.6097 34.6058C35.8916 34.5841 36.1715 34.5409 36.4468 34.4765L42.0851 49.3001L36.2796 47.2137Z" fill="#EBEBEB"/>
<path d="M35.625 20.125C35.625 17.5291 34.8552 14.9915 33.413 12.8331C31.9708 10.6748 29.921 8.99249 27.5227 7.99909C25.1244 7.00569 22.4854 6.74577 19.9394 7.2522C17.3934 7.75863 15.0548 9.00867 13.2192 10.8442C11.3837 12.6798 10.1336 15.0184 9.6272 17.5644C9.12077 20.1104 9.38069 22.7494 10.3741 25.1477C11.3675 27.546 13.0498 29.5959 15.2081 31.038C17.3665 32.4802 19.9041 33.25 22.5 33.25C25.9798 33.2461 29.3159 31.8621 31.7765 29.4015C34.2371 26.9409 35.6211 23.6048 35.625 20.125ZM22.5 31.5C20.2502 31.5 18.051 30.8329 16.1804 29.583C14.3098 28.3331 12.8518 26.5565 11.9909 24.478C11.1299 22.3995 10.9047 20.1124 11.3436 17.9059C11.7825 15.6993 12.8658 13.6725 14.4567 12.0817C16.0475 10.4908 18.0743 9.40748 20.2809 8.96857C22.4874 8.52967 24.7745 8.75493 26.853 9.61588C28.9315 10.4768 30.7081 11.9348 31.958 13.8054C33.2079 15.676 33.875 17.8752 33.875 20.125C33.8716 23.1408 32.6721 26.0321 30.5396 28.1646C28.4071 30.2971 25.5158 31.4966 22.5 31.5Z" fill="#EBEBEB"/>
<path d="M29.4592 17.2227L25.1927 16.6028L23.2847 12.737C23.2042 12.6006 23.0895 12.4875 22.9519 12.4089C22.8144 12.3304 22.6587 12.2891 22.5003 12.2891C22.3418 12.2891 22.1862 12.3304 22.0486 12.4089C21.911 12.4875 21.7963 12.6006 21.7158 12.737L19.8078 16.6028L15.5413 17.2227C15.3796 17.2461 15.2277 17.3143 15.1028 17.4195C14.9779 17.5247 14.8849 17.6628 14.8344 17.8182C14.7839 17.9735 14.7779 18.1399 14.817 18.2985C14.8562 18.457 14.9389 18.6015 15.0559 18.7155L18.1441 21.7246L17.4152 25.9736C17.3877 26.1344 17.4057 26.2997 17.4672 26.4508C17.5287 26.6019 17.6312 26.7329 17.7631 26.8288C17.8951 26.9247 18.0512 26.9819 18.2139 26.9937C18.3767 27.0056 18.5394 26.9718 18.6839 26.896L22.5003 24.8901L26.3164 26.896C26.4609 26.9718 26.6237 27.0056 26.7864 26.9937C26.9491 26.9819 27.1052 26.9247 27.2372 26.8288C27.3691 26.7329 27.4717 26.6019 27.5331 26.4508C27.5946 26.2997 27.6126 26.1344 27.5851 25.9736L26.8563 21.7246L29.9444 18.7155C30.0614 18.6015 30.1442 18.457 30.1833 18.2985C30.2225 18.1399 30.2165 17.9735 30.1659 17.8182C30.1154 17.6628 30.0225 17.5247 29.8975 17.4195C29.7726 17.3143 29.6207 17.2461 29.459 17.2227H29.4592ZM25.3056 20.7927C25.2041 20.8918 25.1283 21.0141 25.0845 21.149C25.0407 21.2839 25.0303 21.4275 25.0543 21.5673L25.561 24.5222L22.907 23.1271C22.7815 23.0612 22.6418 23.0267 22.5001 23.0267C22.3583 23.0267 22.2187 23.0612 22.0932 23.1271L19.4395 24.5218L19.9462 21.5669C19.9702 21.4271 19.9598 21.2836 19.916 21.1487C19.8723 21.0138 19.7964 20.8915 19.6949 20.7924L17.5478 18.6997L20.5146 18.2686C20.6551 18.2483 20.7884 18.194 20.9032 18.1105C21.018 18.0271 21.1107 17.917 21.1734 17.7896L22.5003 15.1016L23.8273 17.7898C23.89 17.9171 23.9827 18.0273 24.0975 18.1107C24.2123 18.1942 24.3456 18.2484 24.4861 18.2688L27.4529 18.6999L25.3056 20.7927Z" fill="#EBEBEB"/>
</svg>
