<svg width="57" height="46" viewBox="0 0 57 46" fill="none" xmlns="http://www.w3.org/2000/svg">
<path d="M30.3573 31.864H45.286C45.8458 31.864 46.219 31.4908 46.219 30.931V22.5336C46.219 21.9738 45.8458 21.6006 45.286 21.6006H30.3573C29.7975 21.6006 29.4243 21.9738 29.4243 22.5336V30.931C29.4242 31.4907 29.7975 31.864 30.3573 31.864ZM31.2903 23.4666H44.353V29.9978H31.2903V23.4666Z" fill="#EBEBEB"/>
<path d="M5.16543 19.7342H12.6298C13.1896 19.7342 13.5628 19.361 13.5628 18.8012C13.5628 18.2413 13.1896 17.8682 12.6298 17.8682H5.16543C4.6056 17.8682 4.23242 18.2413 4.23242 18.8012C4.23242 19.361 4.6056 19.7342 5.16543 19.7342Z" fill="#EBEBEB"/>
<path d="M16.3617 19.7342H23.8261C24.3859 19.7342 24.7591 19.361 24.7591 18.8012C24.7591 18.2413 24.3859 17.8682 23.8261 17.8682H16.3617C15.8019 17.8682 15.4287 18.2413 15.4287 18.8012C15.4287 19.361 15.8019 19.7342 16.3617 19.7342Z" fill="#EBEBEB"/>
<path d="M5.16543 23.4666H17.2949C17.8548 23.4666 18.2279 23.0934 18.2279 22.5336C18.2279 21.9738 17.8548 21.6006 17.2949 21.6006H5.16543C4.6056 21.6006 4.23242 21.9738 4.23242 22.5336C4.23242 23.0934 4.6056 23.4666 5.16543 23.4666Z" fill="#EBEBEB"/>
<path d="M23.8259 21.6006H21.0268C20.4669 21.6006 20.0938 21.9738 20.0938 22.5336C20.0938 23.0934 20.4669 23.4666 21.0268 23.4666H23.8259C24.3857 23.4666 24.7589 23.0934 24.7589 22.5336C24.7589 21.9738 24.3857 21.6006 23.8259 21.6006Z" fill="#EBEBEB"/>
<path d="M55.6428 10.0308C54.9897 9.19109 54.1499 8.72454 53.1235 8.63127L50.8842 8.35989V5.73877V3.87276C50.8842 1.8201 49.2048 0.140625 47.1521 0.140625H4.23213C2.17947 0.140516 0.5 1.81999 0.5 3.87276V5.73888V13.2032V33.7301C0.5 35.4154 1.63244 36.8483 3.17371 37.3075C3.12669 39.195 4.55479 40.8336 6.47154 41.0079L49.5781 45.8596C49.6713 45.8596 49.858 45.8596 49.9512 45.8596C51.8174 45.8596 53.4968 44.4601 53.6834 42.6873L56.4825 12.7367C56.5758 11.8036 56.2959 10.7772 55.6428 10.0308ZM2.36612 6.67188H49.0182V9.09783V12.2701H2.36612V6.67188ZM4.23213 2.00664H47.152C48.1784 2.00664 49.0181 2.84637 49.0181 3.87276V4.80576H2.36612V3.87276C2.36612 2.84637 3.20586 2.00664 4.23213 2.00664ZM2.36612 33.73V14.1361H49.0182V33.73C49.0182 34.7564 48.1785 35.5961 47.1521 35.5961H4.32551H4.23224C3.20586 35.5961 2.36612 34.7564 2.36612 33.73ZM54.6164 12.3634L51.8173 42.314C51.724 43.3404 50.7909 44.0868 49.7646 43.9935L6.75134 39.1417C5.81834 39.0485 5.16514 38.302 5.07187 37.4623H47.152C49.2047 37.4623 50.8841 35.7828 50.8841 33.7301V13.2031V10.1241L53.0302 10.3107C53.4967 10.3107 53.9632 10.5907 54.2431 10.9638C54.5231 11.337 54.7098 11.8968 54.6164 12.3634Z" fill="#EBEBEB"/>
</svg>
