<svg width="57" height="36" viewBox="0 0 57 36" fill="none" xmlns="http://www.w3.org/2000/svg">
<path d="M52.5798 15.3054L51.1296 9.50468C51.5261 9.42046 51.8236 9.06871 51.8236 8.64729V7.71202C51.8236 5.68137 50.1715 4.02937 48.1409 4.02937H41.5355V2.10021C41.5355 1.10096 40.7227 0.288086 39.7234 0.288086H6.05319C5.05394 0.288086 4.24106 1.10096 4.24106 2.10021V18.0001C4.24106 18.4843 4.63361 18.8769 5.11792 18.8769C5.60213 18.8769 5.99478 18.4844 5.99478 18.0001V2.10021C5.99478 2.06795 6.02092 2.0418 6.05319 2.0418H39.7233C39.7556 2.0418 39.7817 2.06795 39.7817 2.10021V18.0003C39.7817 18.4845 40.1743 18.8771 40.6586 18.8771C41.1428 18.8771 41.5354 18.4846 41.5354 18.0003V17.0063H51.8789C51.8798 17.0063 51.8804 17.0065 51.8812 17.0065C51.8821 17.0065 51.8828 17.0064 51.8836 17.0064C53.1564 17.0073 54.2371 17.8427 54.6084 18.9938H51.8819C51.3977 18.9938 51.005 19.3864 51.005 19.8707V21.7412C51.005 23.2562 52.2374 24.4886 53.7524 24.4886H54.7462V28.3466H52.4535C51.7003 26.1719 49.633 24.6054 47.2054 24.6054C44.7778 24.6054 42.7104 26.1719 41.9574 28.3466H41.5352V21.7411C41.5352 21.2569 41.1427 20.8643 40.6583 20.8643C40.1741 20.8643 39.7815 21.2568 39.7815 21.7411V28.3464H21.5894C20.8362 26.1717 18.7689 24.6052 16.3413 24.6052C13.9138 24.6052 11.8463 26.1717 11.0933 28.3464H6.05319C6.02092 28.3464 5.99478 28.3202 5.99478 28.288V26.3589H9.79436C10.2786 26.3589 10.6712 25.9664 10.6712 25.4821C10.6712 24.9978 10.2787 24.6052 9.79436 24.6052H1.37686C0.892656 24.6052 0.5 24.9978 0.5 25.4821C0.5 25.9664 0.892547 26.3589 1.37686 26.3589H4.24117V28.288C4.24117 29.2872 5.05405 30.1001 6.0533 30.1001H10.7897C10.7895 30.1196 10.7881 30.1389 10.7881 30.1585C10.7881 33.2206 13.2794 35.7117 16.3413 35.7117C19.4033 35.7117 21.8945 33.2206 21.8945 30.1585C21.8945 30.1388 21.8932 30.1196 21.893 30.1001H41.6538C41.6535 30.1196 41.6522 30.1389 41.6522 30.1585C41.6522 33.2206 44.1435 35.7117 47.2054 35.7117C50.2674 35.7117 52.7586 33.2206 52.7586 30.1585C52.7586 30.1388 52.7573 30.1196 52.7571 30.1001H55.623C56.1072 30.1001 56.4999 29.7076 56.4999 29.2232V19.8705C56.5 17.5614 54.7963 15.6428 52.5798 15.3054ZM41.5355 5.78298H48.1409C49.2046 5.78298 50.07 6.64835 50.07 7.71202V7.77043H41.5355V5.78298ZM41.5355 15.2527V9.52404H49.3269L50.759 15.2527H41.5355ZM16.3413 33.9583C14.2463 33.9583 12.5417 32.2539 12.5417 30.1587C12.5417 28.0635 14.2463 26.3591 16.3413 26.3591C18.4364 26.3591 20.1409 28.0635 20.1409 30.1587C20.1409 32.2539 18.4364 33.9583 16.3413 33.9583ZM47.2056 33.9583C45.1106 33.9583 43.4061 32.2539 43.4061 30.1587C43.4061 28.0635 45.1106 26.3591 47.2056 26.3591C49.3007 26.3591 51.0052 28.0635 51.0052 30.1587C51.0052 32.2539 49.3007 33.9583 47.2056 33.9583ZM54.7464 22.7349H53.7526C53.2046 22.7349 52.7588 22.2891 52.7588 21.7411V20.7473H54.7463V22.7349H54.7464Z" fill="#EBEBEB"/>
<path d="M16.3414 28.3467C15.3422 28.3467 14.5293 29.1596 14.5293 30.1588C14.5293 31.1581 15.3422 31.9709 16.3414 31.9709C17.3407 31.9709 18.1535 31.1581 18.1535 30.1588C18.1535 29.1596 17.3407 28.3467 16.3414 28.3467Z" fill="#EBEBEB"/>
<path d="M47.2057 28.3467C46.2064 28.3467 45.3936 29.1596 45.3936 30.1588C45.3936 31.1581 46.2064 31.9709 47.2057 31.9709C48.2049 31.9709 49.0178 31.1581 49.0178 30.1588C49.0178 29.1596 48.2049 28.3467 47.2057 28.3467Z" fill="#EBEBEB"/>
<path d="M36.9176 24.6055H23.8236C23.3394 24.6055 22.9468 24.998 22.9468 25.4823C22.9468 25.9666 23.3393 26.3592 23.8236 26.3592H36.9176C37.4018 26.3592 37.7944 25.9666 37.7944 25.4823C37.7944 24.998 37.4019 24.6055 36.9176 24.6055Z" fill="#EBEBEB"/>
<path d="M14.4709 20.8643H3.24746C2.76326 20.8643 2.37061 21.2568 2.37061 21.7411C2.37061 22.2254 2.76315 22.618 3.24746 22.618H14.4709C14.9551 22.618 15.3477 22.2254 15.3477 21.7411C15.3477 21.2568 14.9551 20.8643 14.4709 20.8643Z" fill="#EBEBEB"/>
<path d="M30.9907 8.9628C30.6483 8.62045 30.093 8.62046 29.7507 8.96291L21.9531 16.7604L17.8967 12.704C17.5543 12.3615 16.9991 12.3615 16.6567 12.704C16.3143 13.0464 16.3143 13.6015 16.6567 13.944L21.3332 18.6204C21.5044 18.7917 21.7288 18.8772 21.9531 18.8772C22.1774 18.8772 22.402 18.7917 22.5731 18.6204L30.9906 10.2029C31.333 9.86033 31.333 9.30525 30.9907 8.9628Z" fill="#EBEBEB"/>
</svg>
