<svg width="56" height="56" viewBox="0 0 56 56" fill="none" xmlns="http://www.w3.org/2000/svg">
<path d="M28 21C28.5192 21 29.0267 20.8461 29.4584 20.5576C29.8901 20.2692 30.2265 19.8592 30.4252 19.3795C30.6239 18.8999 30.6759 18.3721 30.5746 17.8629C30.4733 17.3537 30.2233 16.886 29.8562 16.5188C29.489 16.1517 29.0213 15.9017 28.5121 15.8004C28.0029 15.6992 27.4751 15.7511 26.9955 15.9498C26.5158 16.1485 26.1058 16.485 25.8174 16.9166C25.529 17.3483 25.375 17.8558 25.375 18.375C25.3758 19.071 25.6526 19.7382 26.1447 20.2303C26.6368 20.7224 27.304 20.9992 28 21ZM28 17.5C28.1731 17.5 28.3422 17.5513 28.4861 17.6475C28.63 17.7436 28.7422 17.8803 28.8084 18.0402C28.8746 18.2 28.892 18.376 28.8582 18.5457C28.8244 18.7154 28.7411 18.8714 28.6187 18.9937C28.4964 19.1161 28.3404 19.1994 28.1707 19.2332C28.001 19.267 27.825 19.2496 27.6652 19.1834C27.5053 19.1172 27.3686 19.005 27.2725 18.8611C27.1763 18.7172 27.125 18.5481 27.125 18.375C27.1252 18.143 27.2175 17.9206 27.3815 17.7565C27.5456 17.5925 27.768 17.5002 28 17.5Z" fill="#AE8646"/>
<path d="M35 12.25C35.5192 12.25 36.0267 12.096 36.4584 11.8076C36.8901 11.5192 37.2265 11.1092 37.4252 10.6295C37.6239 10.1499 37.6759 9.62209 37.5746 9.11289C37.4733 8.60369 37.2233 8.13596 36.8562 7.76885C36.489 7.40173 36.0213 7.15173 35.5121 7.05044C35.0029 6.94915 34.4751 7.00114 33.9955 7.19982C33.5158 7.3985 33.1058 7.73495 32.8174 8.16663C32.529 8.59831 32.375 9.10583 32.375 9.625C32.3758 10.321 32.6526 10.9882 33.1447 11.4803C33.6368 11.9724 34.304 12.2492 35 12.25ZM35 8.75C35.1731 8.75 35.3422 8.80132 35.4861 8.89747C35.63 8.99361 35.7422 9.13027 35.8084 9.29015C35.8746 9.45004 35.892 9.62597 35.8582 9.79571C35.8244 9.96544 35.7411 10.1213 35.6187 10.2437C35.4963 10.3661 35.3404 10.4494 35.1707 10.4832C35.001 10.517 34.825 10.4996 34.6652 10.4334C34.5053 10.3672 34.3686 10.255 34.2725 10.1111C34.1763 9.96723 34.125 9.79806 34.125 9.625C34.1252 9.393 34.2175 9.17056 34.3815 9.00651C34.5456 8.84246 34.768 8.75021 35 8.75Z" fill="#AE8646"/>
<path d="M21 12.25C21.5192 12.25 22.0267 12.096 22.4584 11.8076C22.89 11.5192 23.2265 11.1092 23.4252 10.6295C23.6239 10.1499 23.6758 9.62209 23.5746 9.11289C23.4733 8.60369 23.2233 8.13596 22.8562 7.76885C22.489 7.40173 22.0213 7.15173 21.5121 7.05044C21.0029 6.94915 20.4751 7.00114 19.9955 7.19982C19.5158 7.3985 19.1058 7.73495 18.8174 8.16663C18.529 8.59831 18.375 9.10583 18.375 9.625C18.3758 10.321 18.6526 10.9882 19.1447 11.4803C19.6368 11.9724 20.304 12.2492 21 12.25ZM21 8.75C21.1731 8.75 21.3422 8.80132 21.4861 8.89747C21.63 8.99361 21.7422 9.13027 21.8084 9.29015C21.8746 9.45004 21.8919 9.62597 21.8582 9.79571C21.8244 9.96544 21.7411 10.1213 21.6187 10.2437C21.4963 10.3661 21.3404 10.4494 21.1707 10.4832C21.001 10.517 20.825 10.4996 20.6652 10.4334C20.5053 10.3672 20.3686 10.255 20.2725 10.1111C20.1763 9.96723 20.125 9.79806 20.125 9.625C20.1252 9.393 20.2175 9.17056 20.3815 9.00651C20.5456 8.84246 20.768 8.75021 21 8.75Z" fill="#AE8646"/>
<path d="M49.7803 22.3536C49.7071 22.2096 49.5954 22.0888 49.4577 22.0043C49.3201 21.9198 49.1617 21.8751 49.0002 21.875H47.0031C47.2406 21.1941 47.3083 20.4654 47.2002 19.7524C47.0922 19.0393 46.8118 18.3634 46.3832 17.7833C45.9547 17.2033 45.3911 16.7366 44.7412 16.4238C44.0914 16.111 43.375 15.9616 42.6543 15.9885C42.5235 15.6618 42.3533 15.3523 42.1474 15.0668C42.4589 13.9945 42.3347 12.8426 41.8019 11.8613C42.5994 11.3198 43.1993 10.5339 43.5113 9.62181C43.8233 8.70977 43.8305 7.72104 43.5318 6.80455C43.2331 5.88807 42.6446 5.09348 41.8551 4.54048C41.0656 3.98747 40.1177 3.70601 39.1543 3.73848C38.8338 2.89641 38.265 2.17163 37.5232 1.66024C36.7813 1.14885 35.9016 0.875 35.0006 0.875C34.0996 0.875 33.2199 1.14885 32.4781 1.66024C31.7363 2.17163 31.1674 2.89641 30.8469 3.73848C29.8195 3.6983 28.8111 4.02299 28.0002 4.65505C27.189 4.02388 26.181 3.69934 25.154 3.73866C24.8335 2.89658 24.2646 2.17181 23.5228 1.66041C22.781 1.14902 21.9013 0.875175 21.0003 0.875175C20.0993 0.875175 19.2195 1.14902 18.4777 1.66041C17.7359 2.17181 17.167 2.89658 16.8465 3.73866C15.8832 3.70618 14.9353 3.98765 14.1458 4.54065C13.3562 5.09365 12.7678 5.88825 12.4691 6.80473C12.1703 7.72121 12.1775 8.70995 12.4895 9.62199C12.8016 10.534 13.4015 11.32 14.199 11.8615C13.6662 12.8428 13.542 13.9947 13.8534 15.067C13.6476 15.3525 13.4774 15.662 13.3465 15.9887C12.7505 15.9715 12.157 16.0738 11.6011 16.2896C11.0452 16.5054 10.5381 16.8303 10.1097 17.2452C9.68138 17.66 9.3404 18.1564 9.1069 18.7051C8.8734 19.2538 8.75211 19.8437 8.75017 20.44C8.75265 20.9287 8.83615 21.4137 8.99727 21.875H7.00017C6.83858 21.875 6.68014 21.9197 6.54241 22.0042C6.40468 22.0887 6.29304 22.2097 6.21987 22.3538C6.14669 22.4979 6.11484 22.6594 6.12784 22.8204C6.14084 22.9815 6.19819 23.1358 6.29352 23.2663L22.6327 45.6248L19.3126 53.9253C19.2595 54.0581 19.2398 54.2018 19.2551 54.344C19.2705 54.4861 19.3204 54.6224 19.4006 54.7407C19.4808 54.8591 19.5888 54.956 19.7151 55.023C19.8414 55.09 19.9822 55.1251 20.1252 55.125H35.8752C36.0182 55.1251 36.159 55.09 36.2853 55.023C36.4116 54.956 36.5195 54.8591 36.5997 54.7407C36.6799 54.6224 36.7299 54.4861 36.7452 54.344C36.7606 54.2018 36.7408 54.0581 36.6878 53.9253L33.3677 45.6248L49.7068 23.2663C49.8022 23.1358 49.8595 22.9814 49.8725 22.8203C49.8855 22.6592 49.8536 22.4977 49.7803 22.3536ZM42.2241 17.8077C42.4113 17.7608 42.6035 17.7369 42.7964 17.7363C43.5132 17.7372 44.2004 18.0224 44.7072 18.5293C45.2141 19.0361 45.4992 19.7233 45.5002 20.44C45.5015 20.9484 45.3567 21.4465 45.0831 21.875H41.1252C41.1252 21.1789 40.8486 20.5112 40.3563 20.0189C39.864 19.5266 39.1964 19.25 38.5002 19.25C37.804 19.25 37.1363 19.5266 36.644 20.0189C36.1517 20.5112 35.8752 21.1789 35.8752 21.875H35.1164C35.0883 21.4392 34.9785 21.0125 34.7926 20.6172C35.6413 20.0273 36.2656 19.1679 36.5644 18.1785C37.3629 18.4202 38.213 18.4341 39.019 18.2185C39.8249 18.0029 40.5546 17.5664 41.1257 16.9583C41.1372 17.0079 41.1471 17.0566 41.1556 17.1071C41.176 17.2251 41.2205 17.3377 41.2862 17.4379C41.352 17.538 41.4376 17.6236 41.5378 17.6893C41.638 17.755 41.7506 17.7994 41.8686 17.8198C41.9867 17.8401 42.1077 17.836 42.2241 17.8077ZM39.3752 21.875H37.6252C37.6252 21.643 37.7174 21.4204 37.8815 21.2563C38.0456 21.0922 38.2681 21 38.5002 21C38.7322 21 38.9548 21.0922 39.1189 21.2563C39.283 21.4204 39.3752 21.643 39.3752 21.875ZM31.2763 5.5577C31.3925 5.58591 31.5132 5.59 31.6311 5.56973C31.7489 5.54945 31.8613 5.50524 31.9614 5.43982C32.0615 5.37439 32.1472 5.28915 32.213 5.18934C32.2789 5.08954 32.3236 4.97729 32.3444 4.85953C32.4532 4.23416 32.7792 3.66725 33.265 3.25867C33.7508 2.8501 34.3652 2.62608 35 2.62608C35.6348 2.62608 36.2492 2.8501 36.735 3.25867C37.2208 3.66725 37.5468 4.23416 37.6556 4.85953C37.6764 4.97729 37.7211 5.08954 37.787 5.18934C37.8528 5.28915 37.9385 5.37439 38.0386 5.43982C38.1387 5.50524 38.2511 5.54945 38.3689 5.56973C38.4868 5.59 38.6075 5.58591 38.7237 5.5577C38.911 5.51081 39.1033 5.48683 39.2964 5.4863C39.9314 5.48498 40.5464 5.70765 41.0334 6.11513C41.5203 6.52261 41.848 7.08878 41.9586 7.71402C42.0693 8.33925 41.9559 8.98348 41.6383 9.53333C41.3208 10.0832 40.8195 10.5034 40.2227 10.7201C40.0883 10.7687 39.9679 10.8496 39.872 10.9555C39.7761 11.0615 39.7077 11.1894 39.6727 11.3279C39.6377 11.4665 39.6372 11.6115 39.6713 11.7503C39.7053 11.8891 39.7729 12.0174 39.8681 12.124C40.316 12.6155 40.5646 13.2563 40.5652 13.9213C40.5642 14.3759 40.4485 14.8229 40.2288 15.2209C40.0091 15.6189 39.6925 15.9549 39.3083 16.198C38.9241 16.441 38.4848 16.5831 38.031 16.6112C37.5773 16.6392 37.1238 16.5523 36.7126 16.3584H36.7122C36.5711 15.2615 36.0257 14.2568 35.1826 13.541C34.3396 12.8252 33.2597 12.4499 32.1544 12.4886C31.9185 11.8775 31.5519 11.3254 31.0804 10.8708C30.6088 10.4162 30.0437 10.0701 29.4244 9.85666C29.6762 9.23132 29.7829 8.55702 29.7365 7.88449C29.6901 7.21195 29.4918 6.55869 29.1566 5.97385C29.4574 5.75257 29.8034 5.60052 30.1698 5.52858C30.5363 5.45664 30.9141 5.46658 31.2763 5.5577ZM30.656 13.6095C30.6769 13.7271 30.7216 13.8392 30.7874 13.9389C30.8531 14.0386 30.9386 14.1238 31.0385 14.1892C31.1384 14.2547 31.2507 14.299 31.3683 14.3195C31.486 14.3401 31.6066 14.3363 31.7228 14.3085L31.7364 14.3063C32.404 14.1612 33.1018 14.2754 33.6884 14.6256C34.275 14.9758 34.7065 15.5359 34.8955 16.1925C35.0846 16.849 35.017 17.5528 34.7064 18.1613C34.3959 18.7699 33.8657 19.2376 33.2231 19.4698C33.0888 19.5184 32.9683 19.5992 32.8725 19.7052C32.7766 19.8112 32.7081 19.939 32.6731 20.0776C32.6381 20.2161 32.6376 20.3612 32.6717 20.5C32.7058 20.6388 32.7733 20.7671 32.8685 20.8737C33.1294 21.1466 33.3022 21.4918 33.3643 21.8642V21.8751H22.6364C22.6909 21.497 22.8647 21.1462 23.1325 20.8737C23.2275 20.767 23.2949 20.6387 23.3288 20.4999C23.3627 20.3612 23.3622 20.2163 23.3272 20.0778C23.2923 19.9393 23.2239 19.8115 23.1282 19.7055C23.0324 19.5995 22.9122 19.5186 22.778 19.4698C22.2521 19.2749 21.7992 18.9223 21.4813 18.4603C21.1633 17.9983 20.9959 17.4493 21.0017 16.8885C21.0074 16.4902 21.1017 16.0981 21.2777 15.7408C21.4537 15.3834 21.7071 15.0698 22.0195 14.8225C22.3318 14.5753 22.6953 14.4007 23.0835 14.3114C23.4717 14.2221 23.8749 14.2204 24.2639 14.3063L24.2774 14.3087C24.3936 14.3366 24.5142 14.3404 24.6319 14.3199C24.7496 14.2995 24.8619 14.2551 24.9618 14.1897C25.0617 14.1242 25.1472 14.039 25.213 13.9392C25.2787 13.8395 25.3234 13.7273 25.3442 13.6097C25.4606 12.9905 25.7898 12.4314 26.2747 12.0291C26.7597 11.6268 27.3699 11.4066 28 11.4066C28.6301 11.4066 29.2404 11.6267 29.7254 12.029C30.2103 12.4312 30.5395 12.9903 30.656 13.6095ZM14.0002 8.19005C14.0011 7.47326 14.2863 6.7861 14.7931 6.27926C15.3 5.77241 15.9871 5.48725 16.7039 5.4863C16.897 5.48699 17.0892 5.51111 17.2764 5.55813C17.3926 5.58635 17.5134 5.59044 17.6312 5.57017C17.7491 5.54989 17.8615 5.50568 17.9616 5.44025C18.0617 5.37483 18.1473 5.28958 18.2132 5.18978C18.2791 5.08997 18.3238 4.97773 18.3445 4.85997C18.4534 4.2346 18.7794 3.66768 19.2652 3.25911C19.751 2.85054 20.3654 2.62652 21.0002 2.62652C21.6349 2.62652 22.2494 2.85054 22.7352 3.25911C23.221 3.66768 23.547 4.2346 23.6558 4.85997C23.6766 4.97773 23.7213 5.08997 23.7872 5.18978C23.853 5.28958 23.9386 5.37483 24.0387 5.44025C24.1388 5.50568 24.2513 5.54989 24.3691 5.57017C24.487 5.59044 24.6077 5.58635 24.7239 5.55813C25.1979 5.43759 25.6965 5.45572 26.1605 5.61037C26.6245 5.76502 27.0343 6.04969 27.3412 6.43051C27.726 6.86861 27.9553 7.42151 27.9936 8.00333C28.0319 8.58515 27.8769 9.16333 27.5529 9.64806C26.7342 9.73716 25.9557 10.0492 25.3021 10.5501C24.6484 11.051 24.1447 11.7216 23.8458 12.4889C22.7508 12.4489 21.6799 12.8166 20.8404 13.5208C20.0009 14.2251 19.4525 15.2157 19.3014 16.301C19.2985 16.3209 19.2907 16.3389 19.2881 16.3589C18.7258 16.6222 18.0898 16.6834 17.4877 16.5321C16.8855 16.3808 16.354 16.0263 15.983 15.5284C15.612 15.0305 15.4242 14.4199 15.4514 13.7996C15.4786 13.1793 15.7191 12.5874 16.1322 12.1239C16.2274 12.0173 16.295 11.8889 16.329 11.7502C16.3631 11.6114 16.3626 11.4663 16.3276 11.3278C16.2926 11.1892 16.2242 11.0614 16.1283 10.9554C16.0324 10.8494 15.912 10.7686 15.7776 10.7199C15.2581 10.5307 14.8092 10.1867 14.4913 9.73432C14.1735 9.28193 14.0021 8.74293 14.0002 8.19005ZM13.7763 17.8073C13.8927 17.8356 14.0136 17.8397 14.1317 17.8193C14.2497 17.7989 14.3623 17.7544 14.4625 17.6888C14.5627 17.6231 14.6483 17.5375 14.7141 17.4374C14.7798 17.3372 14.8243 17.2247 14.8448 17.1066C14.8536 17.0562 14.8632 17.0075 14.8747 16.9579C15.4451 17.5649 16.1734 18.0009 16.9779 18.2169C17.7823 18.4329 18.6311 18.4203 19.4288 18.1806C19.7283 19.1708 20.3555 20.0298 21.2074 20.6168C21.0173 21.0107 20.9074 21.4384 20.884 21.875H20.1252C20.1252 21.1789 19.8486 20.5112 19.3563 20.0189C18.864 19.5266 18.1964 19.25 17.5002 19.25C16.804 19.25 16.1363 19.5266 15.644 20.0189C15.1517 20.5112 14.8752 21.1789 14.8752 21.875H10.9172C10.6436 21.4465 10.4989 20.9484 10.5002 20.44C10.4996 20.0366 10.5897 19.6381 10.7639 19.2742C10.938 18.9102 11.1917 18.5901 11.5062 18.3374C11.8208 18.0846 12.1881 17.9058 12.581 17.8142C12.9739 17.7225 13.3824 17.7203 13.7763 17.8077V17.8073ZM18.3752 21.875H16.6252C16.6252 21.643 16.7174 21.4204 16.8815 21.2563C17.0455 21.0922 17.2681 21 17.5002 21C17.7322 21 17.9548 21.0922 18.1189 21.2563C18.283 21.4204 18.3752 21.643 18.3752 21.875ZM34.5827 53.375H21.4176L24.2176 46.375H31.7827L34.5827 53.375ZM31.9308 44.625H24.0696L8.72322 23.625H47.2771L31.9308 44.625Z" fill="#AE8646"/>
</svg>
