<svg width="56" height="56" viewBox="0 0 56 56" fill="none" xmlns="http://www.w3.org/2000/svg">
<path d="M44.3423 18.7185V2.59259C44.3415 1.90524 44.0681 1.24626 43.582 0.760224C43.096 0.274189 42.437 0.000789099 41.7497 0H13.7497C13.0623 0.000789099 12.4033 0.274189 11.9173 0.760224C11.4313 1.24626 11.1579 1.90524 11.1571 2.59259V18.7185C10.5718 18.8388 10.046 19.1572 9.66815 19.62C9.29033 20.0828 9.08366 20.6618 9.08301 21.2593V53.4074C9.0838 54.0948 9.3572 54.7537 9.84323 55.2398C10.3293 55.7258 10.9882 55.9992 11.6756 56H43.8237C44.5111 55.9992 45.1701 55.7258 45.6561 55.2398C46.1422 54.7537 46.4156 54.0948 46.4163 53.4074V21.2593C46.4157 20.6618 46.209 20.0828 45.8312 19.62C45.4534 19.1572 44.9275 18.8388 44.3423 18.7185ZM44.3423 36.2963H30.7505C30.6899 36.0571 30.6039 35.8251 30.4939 35.6042C30.4407 35.497 30.4129 35.379 30.4129 35.2593C30.4129 35.1396 30.4407 35.0215 30.4939 34.9143C30.6039 34.6934 30.6899 34.4614 30.7505 34.2222H44.3423V36.2963ZM28.9235 41.5521H27.7497C27.532 41.5521 27.3199 41.6206 27.1433 41.7479C26.9668 41.8751 26.8347 42.0547 26.7659 42.2612L26.4744 43.1359L24.4142 39.4275L25.5979 40.1377C25.9906 40.3744 26.4263 40.5308 26.8799 40.5977C27.3335 40.6646 27.7958 40.6407 28.2401 40.5274L28.9235 41.5521ZM18.6546 43.1359L18.3631 42.2612C18.2942 42.0547 18.1622 41.8751 17.9856 41.7479C17.8091 41.6206 17.5969 41.5521 17.3793 41.5521H16.2059L16.8245 40.6241C16.91 40.6305 16.9957 40.6347 17.0817 40.6347C17.7115 40.6346 18.3294 40.4628 18.869 40.1379L20.8972 38.9209C20.9216 38.9365 20.9459 38.952 20.9708 38.9669L18.6546 43.1359ZM11.1571 36.2963V34.2222H13.7167C13.7773 34.4614 13.8633 34.6934 13.9733 34.9143C14.0266 35.0215 14.0543 35.1396 14.0543 35.2593C14.0543 35.379 14.0266 35.497 13.9733 35.6042C13.8633 35.8251 13.7773 36.0571 13.7167 36.2963H11.1571ZM15.8284 33.9867C15.6921 33.7155 15.6477 33.4074 15.7017 33.1088C15.7557 32.8101 15.9054 32.5371 16.128 32.3309C16.3507 32.1247 16.6343 31.9964 16.9362 31.9654C17.2381 31.9343 17.5419 32.0023 17.8019 32.1589L19.6115 33.2447C19.5067 33.5599 19.4533 33.89 19.4534 34.2222V36.2963C19.4533 36.6284 19.5067 36.9583 19.6115 37.2734L17.8019 38.3594C17.5419 38.5155 17.2383 38.583 16.9366 38.5517C16.635 38.5205 16.3517 38.3922 16.1292 38.1861C15.9067 37.9801 15.7571 37.7074 15.7028 37.409C15.6486 37.1107 15.6927 36.8027 15.8284 36.5316C16.0249 36.1362 16.1271 35.7007 16.1271 35.2591C16.1271 34.8176 16.0249 34.3821 15.8284 33.9867ZM17.7902 17.963C17.6624 17.8585 17.5593 17.7269 17.4883 17.5779C17.4173 17.4288 17.38 17.2659 17.3793 17.1007C17.3786 16.9356 17.4143 16.7723 17.4841 16.6227C17.5538 16.473 17.6557 16.3405 17.7826 16.2348C18.0377 16.0203 18.3641 15.9097 18.6971 15.9248C19.03 15.9399 19.345 16.0798 19.5796 16.3165L20.0817 16.8185C20.178 16.9148 20.2923 16.9912 20.4181 17.0434C20.544 17.0955 20.6788 17.1223 20.815 17.1223C20.9512 17.1223 21.0861 17.0955 21.2119 17.0434C21.3377 16.9912 21.452 16.9148 21.5483 16.8185L22.0504 16.3164C22.285 16.0796 22.6001 15.9398 22.9331 15.9248C23.266 15.9097 23.5925 16.0204 23.8476 16.2349C23.9744 16.3407 24.0763 16.4731 24.146 16.6228C24.2157 16.7725 24.2515 16.9357 24.2507 17.1009C24.2499 17.266 24.2127 17.4289 24.1416 17.5779C24.0706 17.727 23.9675 17.8585 23.8397 17.963L22.9793 18.6667H18.6724L17.7902 17.963ZM28.6388 36.5318C28.7751 36.803 28.8196 37.1111 28.7655 37.4098C28.7115 37.7084 28.5618 37.9814 28.3392 38.1876C28.1165 38.3939 27.8329 38.5221 27.531 38.5532C27.2291 38.5842 26.9253 38.5163 26.6653 38.3596L25.3907 37.5948C25.5787 37.1878 25.6759 36.7447 25.6756 36.2963V34.2222C25.6758 33.7739 25.5785 33.3309 25.3904 32.924L26.6651 32.1592C26.925 32.0031 27.2287 31.9356 27.5303 31.9668C27.8319 31.998 28.1153 32.1263 28.3378 32.3324C28.5603 32.5384 28.7099 32.8111 28.7641 33.1095C28.8183 33.4079 28.7743 33.7158 28.6385 33.9869C28.4421 34.3824 28.3399 34.8179 28.34 35.2594C28.34 35.7009 28.4423 36.1365 28.6388 36.5318ZM23.6015 34.2222V36.2963C23.6015 36.5713 23.4923 36.8351 23.2978 37.0296C23.1033 37.2241 22.8395 37.3333 22.5645 37.3333C22.2894 37.3333 22.0257 37.2241 21.8312 37.0296C21.6367 36.8351 21.5274 36.5713 21.5274 36.2963V34.2222C21.5274 33.9472 21.6367 33.6834 21.8312 33.4889C22.0257 33.2944 22.2894 33.1852 22.5645 33.1852C22.8395 33.1852 23.1033 33.2944 23.2978 33.4889C23.4923 33.6834 23.6015 33.9472 23.6015 34.2222ZM23.6015 20.7407V31.2895C22.9306 31.0517 22.1984 31.0517 21.5274 31.2895V20.7407H23.6015ZM30.6404 32.1481C30.4664 31.6763 30.1917 31.248 29.8355 30.8931C29.4792 30.5381 29.05 30.2649 28.5775 30.0925C28.1051 29.9202 27.6008 29.8527 27.0997 29.8949C26.5985 29.9371 26.1126 30.0878 25.6756 30.3367V20.7407H43.8237C43.9613 20.7407 44.0932 20.7954 44.1904 20.8926C44.2876 20.9899 44.3423 21.1217 44.3423 21.2593V32.1481H30.6404ZM31.6601 17.963C31.5323 17.8585 31.4291 17.727 31.3581 17.5779C31.287 17.4288 31.2498 17.2659 31.249 17.1008C31.2483 16.9356 31.284 16.7724 31.3538 16.6227C31.4235 16.473 31.5254 16.3405 31.6523 16.2348C31.9074 16.0203 32.2338 15.9096 32.5668 15.9248C32.8997 15.9399 33.2148 16.0797 33.4494 16.3165L33.9514 16.8185C34.0477 16.9148 34.162 16.9912 34.2879 17.0434C34.4137 17.0955 34.5485 17.1223 34.6847 17.1223C34.8209 17.1223 34.9558 17.0955 35.0816 17.0434C35.2074 16.9912 35.3217 16.9148 35.418 16.8185L35.9201 16.3164C36.1548 16.0797 36.4699 15.9399 36.8028 15.9249C37.1357 15.9098 37.4622 16.0205 37.7173 16.2349C37.8441 16.3407 37.946 16.4731 38.0157 16.6228C38.0854 16.7725 38.1212 16.9357 38.1204 17.1008C38.1197 17.2659 38.0824 17.4288 38.0114 17.5779C37.9404 17.727 37.8373 17.8585 37.7095 17.963L36.8497 18.6667H32.5416L31.6601 17.963ZM13.2312 2.59259C13.2312 2.45507 13.2858 2.32318 13.383 2.22594C13.4803 2.1287 13.6122 2.07407 13.7497 2.07407H41.7497C41.8872 2.07407 42.0191 2.1287 42.1163 2.22594C42.2136 2.32318 42.2682 2.45507 42.2682 2.59259V18.6667H39.7814C40.149 18.0156 40.2765 17.2562 40.1419 16.5207C40.0073 15.7852 39.619 15.1202 39.0446 14.6415C38.4343 14.1281 37.6625 13.8464 36.865 13.8458C36.0675 13.8452 35.2953 14.1259 34.6843 14.6384C34.0733 14.1259 33.3012 13.8452 32.5037 13.8458C31.7062 13.8463 30.9344 14.128 30.3241 14.6414C29.7495 15.12 29.361 15.785 29.2266 16.5207C29.0921 17.2563 29.2201 18.0158 29.5883 18.6667H25.912C26.2796 18.0156 26.4072 17.2562 26.2726 16.5207C26.1379 15.7852 25.7497 15.1203 25.1754 14.6415C24.565 14.1282 23.7933 13.8464 22.9957 13.8458C22.1982 13.8453 21.426 14.1259 20.815 14.6384C20.204 14.1259 19.4319 13.8452 18.6343 13.8457C17.8368 13.8462 17.0651 14.128 16.4548 14.6414C15.8801 15.12 15.4917 15.785 15.3573 16.5207C15.2228 17.2563 15.3508 18.0158 15.719 18.6667H13.2312V2.59259ZM11.6756 20.7407H19.4534V30.7314L18.869 30.3808C18.432 30.117 17.9422 29.953 17.4345 29.9005C16.9268 29.8481 16.4137 29.9084 15.932 30.0773C15.4504 30.2461 15.0119 30.5193 14.6481 30.8773C14.2843 31.2353 14.0041 31.6693 13.8275 32.1481H11.1571V21.2593C11.1571 21.1217 11.2117 20.9899 11.309 20.8926C11.4062 20.7954 11.5381 20.7407 11.6756 20.7407ZM11.1571 53.4074V38.3704H13.8275C14.0369 38.9399 14.3935 39.4438 14.8611 39.8307L13.4056 42.0139C13.3015 42.17 13.2417 42.3515 13.2326 42.539C13.2236 42.7264 13.2655 42.9129 13.3541 43.0784C13.4426 43.2438 13.5744 43.3822 13.7354 43.4787C13.8964 43.5752 14.0805 43.6262 14.2682 43.6262H16.6319L17.4326 46.0282C17.4962 46.2192 17.6141 46.3875 17.7717 46.5126C17.9294 46.6377 18.12 46.7143 18.3204 46.7329C18.3526 46.7359 18.3852 46.7373 18.4166 46.7373C18.6015 46.7373 18.783 46.6878 18.9423 46.594C19.1017 46.5002 19.233 46.3655 19.3228 46.2039L19.4534 45.9689V53.9259H11.6756C11.5381 53.9259 11.4062 53.8713 11.309 53.7741C11.2117 53.6768 11.1571 53.5449 11.1571 53.4074ZM21.5274 53.9259V42.2355L22.5645 40.3689L23.6015 42.2355V53.9259H21.5274ZM43.8237 53.9259H25.6756V45.9684L25.8064 46.2039C25.8962 46.3655 26.0275 46.5002 26.1869 46.594C26.3462 46.6878 26.5277 46.7373 26.7126 46.7373C26.7447 46.7373 26.7774 46.7358 26.8089 46.7329C27.0094 46.7143 27.2 46.6377 27.3577 46.5126C27.5153 46.3875 27.6331 46.2192 27.6968 46.0282L28.4975 43.6262H30.8608C31.0485 43.6262 31.2327 43.5753 31.3937 43.4788C31.5548 43.3824 31.6866 43.244 31.7752 43.0785C31.8638 42.913 31.9058 42.7266 31.8967 42.5391C31.8877 42.3516 31.8279 42.1701 31.7237 42.0139L30.0074 39.4394C30.1047 39.3273 30.1947 39.2091 30.2771 39.0857C30.4255 38.8621 30.5475 38.6221 30.6404 38.3704H44.3423V53.4074C44.3423 53.5449 44.2876 53.6768 44.1904 53.7741C44.0932 53.8713 43.9613 53.9259 43.8237 53.9259ZM16.4769 9.86481L20.1584 12.8769C20.3437 13.0285 20.5757 13.1113 20.8151 13.1113C21.0545 13.1113 21.2866 13.0285 21.4718 12.8769L25.1533 9.86481C25.5177 9.56673 25.8116 9.19181 26.0142 8.76686C26.2168 8.34192 26.3229 7.87746 26.325 7.40671C26.3272 6.93597 26.2252 6.47057 26.0265 6.04381C25.8278 5.61705 25.5373 5.23948 25.1756 4.93811C24.5653 4.42473 23.7935 4.14297 22.996 4.14238C22.1985 4.14179 21.4263 4.4224 20.8153 4.93487C20.2042 4.42237 19.4321 4.14172 18.6346 4.14229C17.8371 4.14286 17.0653 4.42461 16.455 4.93798C16.0934 5.23935 15.8028 5.61693 15.6041 6.04369C15.4054 6.47046 15.3034 6.93586 15.3056 7.40662C15.3077 7.87738 15.4138 8.34185 15.6163 8.76681C15.8189 9.19176 16.1126 9.56671 16.4769 9.86481ZM17.7826 6.53139C18.0376 6.31683 18.3641 6.20612 18.6971 6.22125C19.03 6.23638 19.3451 6.37625 19.5796 6.61305L20.0817 7.11511C20.178 7.21141 20.2923 7.28781 20.4181 7.33993C20.544 7.39205 20.6788 7.41887 20.815 7.41887C20.9512 7.41887 21.0861 7.39205 21.2119 7.33993C21.3377 7.28781 21.452 7.21141 21.5483 7.11511L22.0504 6.61305C22.285 6.37631 22.6001 6.2365 22.9331 6.22142C23.266 6.20633 23.5925 6.31708 23.8476 6.53165C23.9744 6.63736 24.0763 6.7698 24.146 6.9195C24.2157 7.06919 24.2515 7.23244 24.2507 7.39756C24.2499 7.56268 24.2127 7.72559 24.1416 7.87464C24.0706 8.02369 23.9675 8.15519 23.8397 8.25974L20.8145 10.7344L17.7902 8.25961C17.6624 8.15503 17.5593 8.0235 17.4883 7.87443C17.4173 7.72536 17.38 7.56243 17.3793 7.3973C17.3786 7.23217 17.4143 7.06892 17.4841 6.91923C17.5538 6.76953 17.6557 6.63709 17.7826 6.53139ZM30.3463 9.86481L34.0278 12.8769C34.213 13.0285 34.4451 13.1113 34.6845 13.1113C34.9239 13.1113 35.1559 13.0285 35.3412 12.8769L39.0227 9.86481C39.387 9.56672 39.681 9.19179 39.8835 8.76684C40.0861 8.34189 40.1922 7.87743 40.1943 7.40668C40.1964 6.93594 40.0945 6.47054 39.8958 6.04379C39.697 5.61703 39.4065 5.23947 39.0448 4.93811C38.4345 4.42472 37.6628 4.14295 36.8653 4.14235C36.0678 4.14176 35.2956 4.42238 34.6846 4.93487C34.0736 4.42241 33.3014 4.1418 32.5039 4.14237C31.7064 4.14294 30.9347 4.42465 30.3244 4.93798C29.9627 5.23935 29.6721 5.61693 29.4734 6.04369C29.2747 6.47046 29.1728 6.93586 29.1749 7.40662C29.177 7.87738 29.2831 8.34185 29.4857 8.76681C29.6882 9.19176 29.9819 9.56671 30.3463 9.86481ZM31.6515 6.53139C31.9066 6.31683 32.233 6.20612 32.566 6.22125C32.899 6.23638 33.214 6.37625 33.4486 6.61305L33.9506 7.11511C34.0469 7.21141 34.1613 7.28781 34.2871 7.33993C34.4129 7.39205 34.5478 7.41887 34.684 7.41887C34.8201 7.41887 34.955 7.39205 35.0808 7.33993C35.2066 7.28781 35.321 7.21141 35.4173 7.11511L35.9193 6.61305C36.154 6.37636 36.4691 6.23659 36.802 6.22151C37.135 6.20643 37.4614 6.31714 37.7165 6.53165C37.8433 6.63736 37.9452 6.7698 38.0149 6.91949C38.0846 7.06918 38.1204 7.23241 38.1196 7.39753C38.1189 7.56264 38.0817 7.72555 38.0106 7.8746C37.9396 8.02365 37.8365 8.15517 37.7087 8.25974L34.6849 10.7344L31.6602 8.25961C31.5324 8.15505 31.4292 8.02354 31.3582 7.87447C31.2871 7.7254 31.2499 7.56247 31.2491 7.39733C31.2484 7.23219 31.2842 7.06893 31.3539 6.91923C31.4236 6.76953 31.5246 6.63709 31.6515 6.53139Z" fill="#AE8646"/>
</svg>
