<svg width="56" height="56" viewBox="0 0 56 56" fill="none" xmlns="http://www.w3.org/2000/svg">
<g clip-path="url(#clip0_96_2585)">
<path d="M1.86667 24.2669V53.2002C1.86667 54.7466 3.12027 56.0002 4.66667 56.0002H51.3333C52.8797 56.0002 54.1333 54.7466 54.1333 53.2002V42.9335C55.1642 42.9335 56 42.0978 56 41.0669V38.2669C55.9955 36.8445 54.923 35.6526 53.5089 35.4986C53.7517 35.3183 53.9841 35.1244 54.2052 34.9181C54.8384 34.2998 55.1487 33.4226 55.0452 32.5437C54.7871 30.6426 54.0482 28.8388 52.8985 27.303C52.2377 26.3806 51.0854 25.9482 49.9809 26.2082C49.4893 26.3267 49.0058 26.4767 48.5333 26.6571V24.2669C49.5643 24.2669 50.4 23.4311 50.4 22.4002V17.7335C50.4 16.1871 49.1464 14.9335 47.6 14.9335H45.5177C47.6689 13.4557 49.0978 11.1397 49.4536 8.55419C49.5055 8.24379 49.3975 7.92813 49.1663 7.71462C48.9351 7.5011 48.6118 7.41848 48.3065 7.49485L45.4795 8.20139L44.772 5.37339C44.6902 5.04736 44.4395 4.79046 44.1156 4.70083C43.7916 4.6112 43.4445 4.70268 43.2068 4.94032C42.4476 5.63882 41.6031 6.23843 40.6933 6.72485C40.2129 4.18219 38.7554 1.92894 36.6333 0.448185C36.0658 0.0768048 35.3807 -0.0708542 34.7107 0.0337847C30.4612 0.77266 26.8785 3.62054 25.2 7.59379C23.5232 3.62194 19.9431 0.774214 15.6959 0.0337847C15.0255 -0.0706414 14.3402 0.0769924 13.7723 0.448185C11.6491 1.9268 10.1896 4.17833 9.70666 6.72019C8.79557 6.2327 7.949 5.63321 7.18666 4.93565C6.94879 4.69851 6.60185 4.60747 6.27819 4.69727C5.95453 4.78707 5.70408 5.04385 5.6224 5.36965L4.91493 8.19765L2.09347 7.49485C1.78817 7.41848 1.46493 7.5011 1.23373 7.71462C1.00253 7.92813 0.894506 8.24379 0.9464 8.55419C1.30222 11.1397 2.73108 13.4557 4.88227 14.9335H2.8C1.2536 14.9335 0 16.1871 0 17.7335V22.4002C0 23.4311 0.835735 24.2669 1.86667 24.2669ZM3.73333 53.2002V24.2669H20.5333V54.1335H4.66667C4.1512 54.1335 3.73333 53.7157 3.73333 53.2002ZM22.4 12.1335C22.4 11.6181 22.8179 11.2002 23.3333 11.2002H27.0667C27.5821 11.2002 28 11.6181 28 12.1335V14.9335H22.4V12.1335ZM21.4667 16.8002H28.9333V22.4002H21.4667V16.8002ZM22.4 54.1335V24.2669H28V54.1335H22.4ZM35.4667 53.2002V42.9335H40.1333V54.1335H36.4C35.8845 54.1335 35.4667 53.7157 35.4667 53.2002ZM34.8133 33.5694C34.599 33.3565 34.4956 33.0562 34.5333 32.7565C34.7558 31.1752 35.3762 29.6764 36.3365 28.4006C36.5573 28.0907 36.9425 27.9435 37.3137 28.0273C39.5303 28.4237 41.4484 29.8021 42.5311 31.7765C41.1597 31.9755 40.1402 33.1478 40.1333 34.5335V35.4669H40.1193C38.1724 35.5497 36.2701 34.8689 34.818 33.5694H34.8133ZM46.6667 41.0669H41.0667V37.3335H46.6667V41.0669ZM45.7333 35.4669H42V34.5335C42 34.0181 42.4179 33.6002 42.9333 33.6002H44.8C45.3155 33.6002 45.7333 34.0181 45.7333 34.5335V35.4669ZM39.2 37.3335V41.0669H33.6V38.2669C33.6 37.7514 34.0179 37.3335 34.5333 37.3335H39.2ZM42 54.1335V42.9335H45.7333V54.1335H42ZM52.2667 53.2002C52.2667 53.7157 51.8488 54.1335 51.3333 54.1335H47.6V42.9335H52.2667V53.2002ZM54.1333 38.2669V41.0669H48.5333V37.3335H53.2C53.7155 37.3335 54.1333 37.7514 54.1333 38.2669ZM50.4131 28.0245C50.7845 27.9406 51.1701 28.0877 51.3912 28.3978C52.3519 29.6757 52.9721 31.1768 53.1935 32.7602C53.2315 33.06 53.128 33.3604 52.9135 33.5731C51.4616 34.8714 49.5599 35.551 47.614 35.4669H47.6V34.5335C47.594 33.1446 46.5707 31.97 45.1957 31.7737C46.2784 29.7993 48.1965 28.4209 50.4131 28.0245ZM46.6667 27.5671C45.5341 28.2631 44.5762 29.2095 43.8667 30.3335C42.4751 28.1824 40.2668 26.6913 37.7515 26.2045C36.6468 25.9439 35.4942 26.3759 34.8329 27.2983C33.6833 28.8349 32.9444 30.6393 32.6863 32.5409C32.583 33.4198 32.8933 34.2968 33.5263 34.9153C33.7472 35.1211 33.9793 35.3146 34.2216 35.4949C32.8072 35.6503 31.7357 36.844 31.7333 38.2669V41.0669C31.7333 42.0978 32.5691 42.9335 33.6 42.9335V53.2002C33.6031 53.5189 33.6612 53.8346 33.7717 54.1335H29.8667V24.2669H46.6667V27.5671ZM47.6 16.8002C48.1155 16.8002 48.5333 17.2181 48.5333 17.7335V22.4002H30.8V16.8002H47.6ZM40.6644 11.2422C40.943 10.7865 41.0828 10.2594 41.0667 9.72552C41.0561 9.35841 41.0349 9.00437 41.0032 8.66339C41.8176 8.27072 42.594 7.80362 43.3225 7.26805L43.8956 9.56032C44.0209 10.0603 44.5277 10.3641 45.0277 10.2389L47.2565 9.67885C45.9527 13.5233 42.3621 14.9335 39.2 14.9335H36.4747C38.1777 14.1021 39.625 12.8269 40.6644 11.2422ZM35.0075 1.87712C35.2209 1.84575 35.4384 1.89463 35.6179 2.01432C36.6445 2.68352 39.0591 4.77792 39.2 9.77779C39.205 9.94997 39.1606 10.12 39.0721 10.2678C38.3581 11.4345 36.0341 14.2102 29.8667 14.9261V12.1335C29.8657 11.6007 29.7115 11.0794 29.4224 10.6318C30.2443 9.22242 31.4804 8.10041 32.9625 7.41832C33.2793 7.31262 33.5156 7.04595 33.5825 6.71876C33.6493 6.39157 33.5365 6.05358 33.2866 5.83209C33.0367 5.61061 32.6876 5.53928 32.3708 5.64499C30.5271 6.42616 28.9771 7.76965 27.9421 9.48379C27.6604 9.38661 27.3647 9.33586 27.0667 9.33352H26.4693C27.2459 7.20552 29.5008 2.76285 35.0075 1.87712ZM14.7877 2.01432C14.9673 1.89407 15.1853 1.84515 15.3991 1.87712C20.9067 2.76285 23.1597 7.20552 23.9372 9.33352H23.3333C23.0351 9.33707 22.7394 9.38908 22.4579 9.48752C21.4228 7.77338 19.8729 6.4299 18.0292 5.64872C17.7124 5.54302 17.3633 5.61434 17.1134 5.83583C16.8635 6.05731 16.7507 6.39531 16.8175 6.72249C16.8844 7.04968 17.1207 7.31635 17.4375 7.42205C18.9196 8.10414 20.1556 9.22616 20.9776 10.6355C20.6892 11.0821 20.535 11.602 20.5333 12.1335V14.9251C14.3733 14.2083 12.0475 11.4335 11.3344 10.2678C11.2451 10.1203 11.2007 9.95007 11.2065 9.77779C11.3465 4.77792 13.7583 2.68352 14.7877 2.01432ZM3.1444 9.68166L5.3732 10.2417C5.8732 10.3669 6.38006 10.0631 6.50533 9.56312L7.0784 7.26992C7.80867 7.8071 8.58694 8.27575 9.40333 8.66992C9.37284 9.01028 9.352 9.36401 9.3408 9.73112C9.32383 10.2653 9.46332 10.7928 9.74213 11.2487C10.7821 12.8313 12.2295 14.1042 13.9319 14.9335H11.2C8.03786 14.9335 4.44733 13.5233 3.1444 9.68166ZM1.86667 17.7335C1.86667 17.2181 2.28453 16.8002 2.8 16.8002H19.6V22.4002H1.86667V17.7335Z" fill="#AE8646"/>
</g>
<defs>
<clipPath id="clip0_96_2585">
<rect width="56" height="56" fill="white"/>
</clipPath>
</defs>
</svg>
