<svg width="56" height="56" viewBox="0 0 56 56" fill="none" xmlns="http://www.w3.org/2000/svg">
<path d="M11.6248 37.1109C11.6068 37.05 11.5903 36.9892 11.574 36.9284C9.86617 35.7191 7.89775 35.5624 7.07131 36.6118C6.20102 37.7167 6.92628 39.7394 8.69138 41.1297C10.4564 42.5198 12.5927 42.7511 13.463 41.6462C13.7353 41.3004 13.8514 40.8648 13.8282 40.3867C12.8964 39.7694 12.0622 38.5893 11.6248 37.1109Z" fill="#BF7FE3"/>
<path d="M8.53584 25.4045C8.51998 25.351 8.50554 25.2977 8.49122 25.2444C6.99322 24.1837 5.26673 24.0463 4.54168 24.9667C3.77835 25.9359 4.41448 27.71 5.96268 28.9295C7.51089 30.1489 9.3847 30.3517 10.148 29.3825C10.3869 29.0792 10.4887 28.6971 10.4684 28.2778C9.65125 27.7364 8.91953 26.7013 8.53584 25.4045Z" fill="#BF7FE3"/>
<path d="M5.87501 14.8227C5.86188 14.7785 5.84996 14.7344 5.83804 14.6903C4.59915 13.8131 3.17137 13.6994 2.57177 14.4607C1.94046 15.2622 2.46656 16.7295 3.7469 17.7379C5.02724 18.7463 6.57698 18.9141 7.20818 18.1125C7.40571 17.8617 7.48993 17.5457 7.47309 17.1989C6.79748 16.7511 6.19231 15.8951 5.87501 14.8227Z" fill="#BF7FE3"/>
<path d="M3.46042 5.57052C3.44927 5.53279 3.4391 5.49516 3.42892 5.45754C2.37181 4.70908 1.15349 4.61207 0.641939 5.26165C0.103267 5.94557 0.552252 7.19747 1.64469 8.05804C2.73713 8.91849 4.05947 9.06166 4.59814 8.37774C4.76669 8.1638 4.83855 7.89408 4.82422 7.59823C4.24749 7.21607 3.73124 6.48566 3.46042 5.57052Z" fill="#BF7FE3"/>
<path d="M10.8973 41.1294C9.13225 39.7392 8.40698 37.7165 9.27728 36.6116C9.45162 36.3902 9.67726 36.2232 9.93998 36.1077C8.7479 35.7387 7.63961 35.8899 7.07129 36.6116C6.201 37.7165 6.92637 39.7392 8.69136 41.1294C10.1024 42.2409 11.7502 42.6106 12.7993 42.1499C12.1661 41.954 11.5094 41.6116 10.8973 41.1294Z" fill="#B166DB"/>
<path d="M8.16871 28.9296C6.62051 27.7101 5.98439 25.936 6.74771 24.9668C6.87525 24.8049 7.03515 24.6775 7.21792 24.5804C6.11247 24.1918 5.06553 24.3018 4.54173 24.9668C3.77829 25.936 4.41453 27.7101 5.96273 28.9296C7.25095 29.9442 8.76404 30.2542 9.6759 29.7716C9.17103 29.5939 8.6539 29.3117 8.16871 28.9296Z" fill="#B166DB"/>
<path d="M5.95287 17.7377C4.67252 16.7293 4.14643 15.262 4.77774 14.4605C4.8473 14.3723 4.92901 14.297 5.01924 14.2321C4.02119 13.8069 3.04185 13.8637 2.57176 14.4605C1.94044 15.262 2.46665 16.7293 3.74688 17.7377C4.88504 18.6342 6.2344 18.8643 6.96393 18.3418C6.62246 18.1962 6.27902 17.9947 5.95287 17.7377Z" fill="#B166DB"/>
<path d="M3.85069 8.05794C2.75825 7.19749 2.30927 5.94547 2.84794 5.26155C2.87572 5.22633 2.90646 5.19417 2.93829 5.16333C2.01746 4.69871 1.07574 4.71085 0.641958 5.26155C0.103287 5.94547 0.552162 7.19738 1.64471 8.05794C2.68016 8.87344 3.9208 9.0433 4.50629 8.47674C4.28404 8.36452 4.06299 8.22518 3.85069 8.05794Z" fill="#B166DB"/>
<path d="M21.6834 33.5479L21.7916 33.3868C21.5517 32.9823 21.2213 32.6863 20.8107 32.5464C19.5462 32.1156 17.98 33.318 17.205 35.2618C17.2244 35.3218 17.2437 35.3817 17.2617 35.4427C17.6991 36.9212 17.6412 38.3651 17.1953 39.39C17.4359 39.8036 17.7704 40.106 18.187 40.2479C19.1883 40.589 20.3791 39.9062 21.2163 38.6421L21.2255 38.2214C21.2255 38.2214 20.5039 37.0096 20.3283 35.4673C20.1525 33.9251 21.6834 33.5479 21.6834 33.5479Z" fill="#BF7FE3"/>
<path d="M25.0592 35.4674C25.0592 35.4039 25.0606 35.3409 25.0621 35.2779C23.7675 33.6338 21.9245 32.9251 20.8342 33.697C19.6862 34.5097 19.8078 36.6549 21.106 38.4888C22.4041 40.3226 24.3871 41.1505 25.5351 40.3378C25.8942 40.0835 26.1292 39.6987 26.2426 39.2338C25.5243 38.3774 25.0592 37.0092 25.0592 35.4674Z" fill="#BF7FE3"/>
<path d="M25.4199 23.3661C25.4199 23.3103 25.4212 23.2551 25.4225 23.1999C24.287 21.7578 22.6704 21.1362 21.714 21.8131C20.7071 22.5259 20.8138 24.4077 21.9524 26.0162C23.091 27.6246 24.8303 28.3508 25.8373 27.638C26.1524 27.415 26.3583 27.0774 26.4578 26.6696C25.8278 25.9186 25.4199 24.7186 25.4199 23.3661Z" fill="#BF7FE3"/>
<path d="M25.8624 12.4629C25.8624 12.4168 25.8635 12.371 25.8646 12.3254C24.9255 11.1328 23.5886 10.6187 22.7977 11.1786C21.9649 11.7681 22.0532 13.3243 22.9948 14.6546C23.9364 15.9848 25.3749 16.5853 26.2076 15.9958C26.4681 15.8114 26.6385 15.5322 26.7209 15.195C26.1998 14.5737 25.8624 13.5813 25.8624 12.4629Z" fill="#BF7FE3"/>
<path d="M26.1805 2.90686C26.1805 2.86748 26.1814 2.82854 26.1824 2.7895C25.3811 1.77187 24.2403 1.33317 23.5655 1.81092C22.8549 2.31393 22.9302 3.64175 23.7337 4.77684C24.5372 5.91193 25.7646 6.42425 26.4751 5.92134C26.6974 5.76395 26.8428 5.52573 26.913 5.23797C26.4684 4.70804 26.1805 3.86115 26.1805 2.90686Z" fill="#BF7FE3"/>
<path d="M23.4375 38.4887C22.1425 36.6593 22.0185 34.5203 23.1577 33.7031C22.2994 33.2971 21.4476 33.2627 20.8342 33.6969C19.6862 34.5096 19.8078 36.6549 21.106 38.4886C22.4041 40.3224 24.3871 41.1503 25.5351 40.3376C25.5378 40.3356 25.5401 40.3335 25.5428 40.3315C24.7947 39.978 24.0419 39.3425 23.4375 38.4887Z" fill="#B166DB"/>
<path d="M24.2839 26.0164C23.1923 24.4743 23.0498 22.6818 23.9272 21.9082C23.1163 21.4705 22.2938 21.4029 21.714 21.8134C20.7071 22.5262 20.8138 24.408 21.9525 26.0164C23.0911 27.6249 24.8304 28.351 25.8373 27.6382C25.8789 27.6088 25.9182 27.5772 25.9559 27.544C25.3582 27.2217 24.767 26.6989 24.2839 26.0164Z" fill="#B166DB"/>
<path d="M25.3263 14.6546C24.4898 13.4728 24.3286 12.1144 24.8865 11.4122C24.1362 10.9159 23.339 10.7955 22.7977 11.1787C21.9649 11.7681 22.0532 13.3244 22.9949 14.6546C23.9365 15.9849 25.375 16.5853 26.2077 15.9959C26.3005 15.9302 26.3815 15.8519 26.4515 15.7637C26.047 15.4966 25.6562 15.1206 25.3263 14.6546Z" fill="#B166DB"/>
<path d="M26.0652 4.7771C25.414 3.85703 25.2414 2.81064 25.5776 2.17922C24.875 1.61911 24.0832 1.44466 23.5655 1.81118C22.8549 2.31419 22.9302 3.642 23.7337 4.7771C24.5372 5.91219 25.7646 6.4245 26.4751 5.9216C26.6096 5.82633 26.7156 5.7011 26.7941 5.55355C26.5327 5.34508 26.2831 5.08488 26.0652 4.7771Z" fill="#B166DB"/>
<path d="M39.3977 21.4006C40.5068 21.0227 41.8806 22.0774 42.5604 23.7825C42.5434 23.8351 42.5265 23.8877 42.5107 23.9412C42.127 25.2379 42.1778 26.5045 42.5689 27.4035C42.3578 27.7663 42.0645 28.0315 41.699 28.156C40.5312 28.5538 39.0693 27.3641 38.4339 25.4986C37.7984 23.6332 38.2299 21.7984 39.3977 21.4006Z" fill="#BF7FE3"/>
<path d="M43.4615 11.5114C44.3787 11.1989 45.5149 12.0712 46.077 13.4812C46.063 13.5246 46.049 13.5682 46.0359 13.6125C45.7186 14.6849 45.7606 15.7324 46.084 16.4758C45.9094 16.7758 45.6669 16.9952 45.3646 17.0981C44.3989 17.4271 43.1899 16.4432 42.6644 14.9006C42.1388 13.3577 42.4957 11.8404 43.4615 11.5114Z" fill="#BF7FE3"/>
<path d="M46.848 2.74525C47.6307 2.4786 48.6001 3.22289 49.0798 4.42602C49.0679 4.4631 49.0558 4.50029 49.0447 4.53802C48.774 5.45316 48.8098 6.34686 49.0857 6.98124C48.9367 7.23729 48.7298 7.42443 48.4719 7.51226C47.6479 7.79302 46.6162 6.95346 46.1678 5.63713C45.7195 4.32069 46.024 3.02591 46.848 2.74525Z" fill="#BF7FE3"/>
<path d="M40.343 25.4986C39.7924 23.8825 40.0432 22.2901 40.8793 21.6345C40.3865 21.3387 39.8683 21.2403 39.3977 21.4007C38.2299 21.7985 37.7984 23.6333 38.4339 25.4986C39.0693 27.364 40.5312 28.5538 41.699 28.156C41.8548 28.103 41.9965 28.023 42.1253 27.9222C41.3956 27.484 40.7221 26.6118 40.343 25.4986Z" fill="#B166DB"/>
<path d="M44.5735 14.9004C44.1506 13.6589 44.2996 12.4343 44.8769 11.8318C44.4149 11.4905 43.9118 11.3579 43.4615 11.5113C42.4957 11.8403 42.1388 13.3577 42.6644 14.9004C43.1899 16.4431 44.399 17.4271 45.3648 17.0981C45.5532 17.0339 45.7184 16.9244 45.8585 16.7784C45.3293 16.388 44.8541 15.7239 44.5735 14.9004Z" fill="#B166DB"/>
<path d="M48.0769 5.63708C47.7454 4.66386 47.8263 3.70355 48.2237 3.15504C47.7861 2.76479 47.2876 2.59547 46.848 2.74521C46.0239 3.02597 45.7194 4.32065 46.1679 5.63697C46.6163 6.9533 47.6479 7.79287 48.472 7.5121C48.6867 7.43893 48.8655 7.29619 49.0056 7.10282C48.6225 6.76179 48.2861 6.25144 48.0769 5.63708Z" fill="#B166DB"/>
<path d="M38.733 35.4427C38.751 35.3818 38.7703 35.3218 38.7896 35.2618C38.0147 33.318 36.4485 32.1156 35.184 32.5464C34.7734 32.6863 34.443 32.9823 34.2031 33.3868L34.3515 33.6104C34.3515 33.6104 35.6835 34.0821 35.642 35.1505C35.6003 36.2189 34.7262 38.2169 34.7262 38.2169L34.7784 38.6422C35.6156 39.9063 36.8064 40.589 37.8077 40.248C38.2243 40.1062 38.5586 39.8037 38.7994 39.3901C38.3535 38.3651 38.2956 36.9212 38.733 35.4427Z" fill="#B166DB"/>
<path d="M36.3508 54.6981C35.8908 54.6981 35.5176 54.3248 35.5182 53.8643C35.5224 51.2726 33.6864 49.6759 33.6679 49.6601C33.3194 49.3627 33.2753 48.838 33.5711 48.4881C33.867 48.1381 34.3886 48.092 34.74 48.3862C34.84 48.47 37.1887 50.4768 37.1833 53.867C37.1825 54.3262 36.8099 54.6981 36.3508 54.6981Z" fill="#95D6A4"/>
<path d="M36.0233 42.3467C36.1982 42.3513 36.3567 42.5984 36.2879 42.7593C35.6842 44.1719 34.5661 45.5104 33.0329 46.4937C31.4997 47.4768 29.8166 47.9346 28.281 47.8939C28.1061 47.8893 27.9476 47.6422 28.0164 47.4813C28.6202 46.0688 29.7382 44.7302 31.2714 43.7469C32.8047 42.7637 34.4877 42.306 36.0233 42.3467Z" fill="#95D6A4"/>
<path d="M32.6034 44.7089C33.6866 44.0143 34.8443 43.5832 35.9722 43.4036C36.0888 43.1911 36.1952 42.9762 36.2879 42.7593C36.3567 42.5984 36.1982 42.3513 36.0233 42.3467C34.4877 42.306 32.8048 42.7637 31.2714 43.7469C29.7382 44.7301 28.6201 46.0688 28.0164 47.4813C27.9476 47.6422 28.1061 47.8893 28.281 47.8939C28.7319 47.9058 29.1955 47.8736 29.6642 47.799C30.3069 46.6282 31.3057 45.5411 32.6034 44.7089Z" fill="#78C2A4"/>
<path d="M47.3679 46.2287C47.5311 46.2919 47.5971 46.5779 47.4782 46.7062C46.4341 47.833 44.9306 48.7169 43.1558 49.1265C41.381 49.536 39.6421 49.4003 38.21 48.8449C38.0468 48.7817 37.9808 48.4957 38.0997 48.3674C39.1438 47.2406 40.6473 46.3566 42.4221 45.947C44.1968 45.5375 45.9357 45.6733 47.3679 46.2287Z" fill="#95D6A4"/>
<path d="M43.7542 46.9092C45.0106 46.6192 46.2483 46.6038 47.3726 46.8158C47.408 46.7793 47.4441 46.7432 47.4783 46.7063C47.5972 46.578 47.5312 46.292 47.3681 46.2286C45.9358 45.6732 44.1971 45.5375 42.4221 45.9471C40.6473 46.3566 39.1438 47.2406 38.0997 48.3673C37.9808 48.4956 38.0468 48.7817 38.2099 48.8449C38.6282 49.0071 39.0734 49.1323 39.5374 49.2198C40.5763 48.1459 42.0377 47.3052 43.7542 46.9092Z" fill="#78C2A4"/>
<path d="M8.63185 46.2287C8.46866 46.2919 8.40271 46.5779 8.5216 46.7062C9.56569 47.833 11.0692 48.7169 12.844 49.1265C14.6188 49.536 16.3577 49.4003 17.7898 48.8449C17.953 48.7817 18.019 48.4957 17.9001 48.3674C16.856 47.2406 15.3525 46.3566 13.5777 45.947C11.803 45.5375 10.0641 45.6733 8.63185 46.2287Z" fill="#95D6A4"/>
<path d="M17.5253 47.993C16.3938 48.2105 15.1464 48.1971 13.88 47.9049C12.307 47.542 10.9479 46.8059 9.93229 45.8589C9.47805 45.9462 9.04198 46.0695 8.63182 46.2286C8.46863 46.2918 8.40268 46.5778 8.52168 46.7062C9.56577 47.833 11.0692 48.717 12.8441 49.1266C14.6188 49.5361 16.3576 49.4003 17.7899 48.8449C17.9531 48.7817 18.019 48.4957 17.9002 48.3674C17.7813 48.2391 17.6558 48.1145 17.5253 47.993Z" fill="#78C2A4"/>
<path d="M19.9763 44.8919C19.8014 44.8965 19.643 45.1436 19.7118 45.3045C20.3155 46.717 21.4335 48.0556 22.9668 49.0388C24.5 50.022 26.183 50.4797 27.7187 50.4391C27.8936 50.4345 28.052 50.1874 27.9832 50.0265C27.3795 48.6139 26.2615 47.2753 24.7282 46.2921C23.195 45.3088 21.512 44.8512 19.9763 44.8919Z" fill="#95D6A4"/>
<path d="M27.5329 49.1471C26.3544 48.9843 25.1376 48.5452 24.0028 47.8174C22.7923 47.0412 21.8421 46.0432 21.1979 44.9625C20.7843 44.9053 20.3752 44.8815 19.9763 44.8921C19.8014 44.8967 19.643 45.1438 19.7118 45.3047C20.3155 46.7172 21.4335 48.0558 22.9668 49.0391C24.5001 50.0222 26.183 50.4799 27.7187 50.4393C27.8936 50.4347 28.052 50.1876 27.9832 50.0267C27.8562 49.7292 27.7048 49.4354 27.5329 49.1471Z" fill="#78C2A4"/>
<path d="M35.1662 33.6967C34.0759 32.9249 32.2329 33.6336 30.9383 35.2776C30.9398 35.3406 30.9412 35.4036 30.9412 35.4672C30.9412 37.0089 30.4761 38.3772 29.7578 39.2334C29.8712 39.6984 30.1062 40.0831 30.4654 40.3374C31.6134 41.1501 33.5963 40.3222 34.8944 38.4885C36.1925 36.6547 36.3142 34.5094 35.1662 33.6967Z" fill="#BF7FE3"/>
<path d="M34.283 21.8134C33.3266 21.1364 31.71 21.7581 30.5745 23.2002C30.5758 23.2554 30.5771 23.3106 30.5771 23.3664C30.5771 24.7187 30.1692 25.9189 29.5391 26.67C29.6386 27.0778 29.8445 27.4154 30.1597 27.6384C31.1666 28.3512 32.9059 27.625 34.0445 26.0166C35.1832 24.4079 35.29 22.5262 34.283 21.8134Z" fill="#BF7FE3"/>
<path d="M33.1966 11.1786C32.4057 10.6187 31.0688 11.1328 30.1297 12.3254C30.1308 12.3711 30.1319 12.4168 30.1319 12.4629C30.1319 13.5813 29.7945 14.5738 29.2734 15.195C29.3557 15.5323 29.5261 15.8114 29.7867 15.9958C30.6195 16.5854 32.0579 15.9848 32.9995 14.6546C33.9411 13.3243 34.0293 11.7682 33.1966 11.1786Z" fill="#BF7FE3"/>
<path d="M32.4335 1.81116C31.7586 1.33341 30.6178 1.77212 29.8166 2.78974C29.8175 2.82868 29.8184 2.86773 29.8184 2.9071C29.8184 3.8614 29.5305 4.70829 29.0859 5.23832C29.1562 5.52609 29.3015 5.7643 29.5239 5.92169C30.2345 6.42471 31.4618 5.91229 32.2652 4.77719C33.0687 3.64199 33.1441 2.31407 32.4335 1.81116Z" fill="#BF7FE3"/>
<path d="M27.9965 55.9998C27.5367 55.9998 27.1641 55.6271 27.1641 55.1673V5.1286C27.1641 4.66878 27.5368 4.29614 27.9965 4.29614C28.4562 4.29614 28.829 4.66878 28.829 5.1286V55.1672C28.829 55.6271 28.4563 55.9998 27.9965 55.9998Z" fill="#B3E59F"/>
<path d="M16.5931 21.4006C15.484 21.0227 14.1102 22.0774 13.4304 23.7825C13.4474 23.8351 13.4643 23.8877 13.4801 23.9412C13.8637 25.2379 13.813 26.5045 13.4219 27.4035C13.633 27.7663 13.9263 28.0315 14.2917 28.156C15.4595 28.5538 16.9214 27.3641 17.5569 25.4986C18.1924 23.6332 17.7609 21.7984 16.5931 21.4006Z" fill="#BF7FE3"/>
<path d="M12.5365 11.5114C11.6193 11.1989 10.4831 12.0712 9.92106 13.4812C9.93506 13.5246 9.94906 13.5682 9.96219 13.6125C10.2795 14.6849 10.2375 15.7324 9.91406 16.4758C10.0886 16.7758 10.3312 16.9952 10.6334 17.0981C11.5992 17.4271 12.8081 16.4432 13.3337 14.9006C13.8592 13.3577 13.5023 11.8404 12.5365 11.5114Z" fill="#BF7FE3"/>
<path d="M9.14395 2.74525C8.36127 2.4786 7.39188 3.22289 6.91216 4.42602C6.92408 4.4631 6.93611 4.50029 6.94727 4.53802C7.21797 5.45316 7.1822 6.34686 6.90625 6.98124C7.05522 7.23729 7.26216 7.42443 7.52006 7.51226C8.34409 7.79302 9.37572 6.95346 9.82416 5.63713C10.2725 4.32069 9.96799 3.02591 9.14395 2.74525Z" fill="#BF7FE3"/>
<path d="M20.0285 55.9999C19.6692 55.9999 19.3377 55.7654 19.2305 55.4034L5.06569 7.5257C4.93521 7.08481 5.18688 6.6216 5.62777 6.49123C6.06855 6.36075 6.53187 6.61242 6.66224 7.05331L20.8272 54.931C20.9577 55.3719 20.7059 55.8351 20.2651 55.9655C20.1864 55.9889 20.1067 55.9999 20.0285 55.9999Z" fill="#B3E59F"/>
<path d="M44.3703 37.1109C44.3883 37.05 44.4049 36.9892 44.4212 36.9284C46.1289 35.7191 48.0974 35.5624 48.9238 36.6118C49.7941 37.7167 49.0688 39.7394 47.3037 41.1297C45.5388 42.5198 43.4024 42.7511 42.5322 41.6462C42.2598 41.3004 42.1438 40.8648 42.1669 40.3867C43.0987 39.7694 43.9329 38.5893 44.3703 37.1109Z" fill="#BF7FE3"/>
<path d="M47.4585 25.4045C47.4744 25.351 47.4888 25.2977 47.5031 25.2444C49.0011 24.1837 50.7276 24.0463 51.4527 24.9667C52.216 25.9359 51.5799 27.71 50.0317 28.9295C48.4835 30.1489 46.6097 30.3517 45.8463 29.3825C45.6075 29.0792 45.5056 28.6971 45.526 28.2778C46.3431 27.7364 47.0748 26.7013 47.4585 25.4045Z" fill="#BF7FE3"/>
<path d="M50.1236 14.8227C50.1367 14.7785 50.1487 14.7344 50.1606 14.6903C51.3995 13.8131 52.8272 13.6994 53.4268 14.4607C54.0581 15.2622 53.5321 16.7295 52.2517 17.7379C50.9714 18.7463 49.4216 18.9141 48.7904 18.1125C48.5929 17.8617 48.5087 17.5457 48.5255 17.1989C49.2011 16.7511 49.8063 15.8951 50.1236 14.8227Z" fill="#BF7FE3"/>
<path d="M52.5375 5.57052C52.5486 5.53279 52.5588 5.49516 52.569 5.45754C53.6261 4.70908 54.8444 4.61207 55.3559 5.26165C55.8946 5.94557 55.4456 7.19747 54.3532 8.05804C53.2607 8.91849 51.9384 9.06166 51.3997 8.37774C51.2312 8.1638 51.1593 7.89408 51.1737 7.59823C51.7504 7.21607 52.2666 6.48566 52.5375 5.57052Z" fill="#BF7FE3"/>
<path d="M35.9659 56C35.8877 56 35.8082 55.9889 35.7293 55.9655C35.2884 55.8351 35.0368 55.3719 35.1673 54.931L49.3475 7.0015C49.478 6.56061 49.9409 6.30839 50.382 6.43943C50.8229 6.5698 51.0745 7.033 50.9441 7.47389L36.7638 55.4034C36.6567 55.7655 36.3251 56 35.9659 56Z" fill="#B3E59F"/>
<path d="M27.9995 5.81394C29.0045 5.81394 29.8192 4.51244 29.8192 2.90697C29.8192 1.30149 29.0045 0 27.9995 0C26.9944 0 26.1797 1.30149 26.1797 2.90697C26.1797 4.51244 26.9944 5.81394 27.9995 5.81394Z" fill="#CC98E9"/>
<path d="M6.03695 7.84098C7.00079 7.55554 7.4125 6.07602 6.95655 4.53637C6.50059 2.99672 5.34963 1.97998 4.3858 2.26541C3.42196 2.55084 3.01025 4.03036 3.4662 5.57001C3.92216 7.10966 5.07312 8.12641 6.03695 7.84098Z" fill="#CC98E9"/>
<path d="M52.5581 5.56812C53.0141 4.02847 52.6024 2.54895 51.6385 2.26352C50.6747 1.97809 49.5237 2.99484 49.0678 4.53449C48.6118 6.07414 49.0235 7.55365 49.9874 7.83908C50.9512 8.12451 52.1022 7.10777 52.5581 5.56812Z" fill="#CC98E9"/>
<path d="M28.0034 40.2194C29.6578 40.2194 30.9989 38.0918 30.9989 35.4673C30.9989 32.8429 29.6578 30.7153 28.0034 30.7153C26.349 30.7153 25.0078 32.8429 25.0078 35.4673C25.0078 38.0918 26.349 40.2194 28.0034 40.2194Z" fill="#CC98E9"/>
<path d="M28.0016 27.5413C29.4565 27.5413 30.636 25.6721 30.636 23.3664C30.636 21.0606 29.4565 19.1914 28.0016 19.1914C26.5467 19.1914 25.3672 21.0606 25.3672 23.3664C25.3672 25.6721 26.5467 27.5413 28.0016 27.5413Z" fill="#CC98E9"/>
<path d="M28.0008 15.9252C29.2093 15.9252 30.189 14.3751 30.189 12.4629C30.189 10.5506 29.2093 9.00049 28.0008 9.00049C26.7922 9.00049 25.8125 10.5506 25.8125 12.4629C25.8125 14.3751 26.7922 15.9252 28.0008 15.9252Z" fill="#CC98E9"/>
<path d="M28.088 2.90697C28.088 1.86047 28.4342 0.943578 28.9537 0.431594C28.6762 0.158156 28.3495 0 27.9995 0C26.9944 0 26.1797 1.30145 26.1797 2.90697C26.1797 4.51248 26.9944 5.81394 27.9995 5.81394C28.3495 5.81394 28.6762 5.65578 28.9537 5.38234C28.4342 4.87036 28.088 3.95347 28.088 2.90697Z" fill="#BF7FE3"/>
<path d="M26.9083 35.4673C26.9083 33.3763 27.7646 31.5977 28.9498 30.9639C28.6498 30.8036 28.3292 30.7153 27.9956 30.7153C26.3438 30.7153 25 32.847 25 35.4673C25 38.0875 26.3438 40.2194 27.9956 40.2194C28.3292 40.2194 28.6497 40.1311 28.9498 39.9708C27.7645 39.3371 26.9083 37.5585 26.9083 35.4673Z" fill="#BF7FE3"/>
<path d="M27.2677 23.3664C27.2677 21.5975 27.9658 20.0831 28.948 19.476C28.6519 19.293 28.3303 19.1914 27.9938 19.1914C26.5412 19.1914 25.3594 21.0643 25.3594 23.3664C25.3594 25.6684 26.5412 27.5413 27.9938 27.5413C28.3302 27.5413 28.6519 27.4397 28.948 27.2567C27.9659 26.6496 27.2677 25.1352 27.2677 23.3664Z" fill="#BF7FE3"/>
<path d="M27.7209 12.4629C27.7209 11.0947 28.2251 9.9095 28.955 9.34753C28.6664 9.12539 28.3427 9.00049 28.0008 9.00049C26.7941 9.00049 25.8125 10.5537 25.8125 12.4629C25.8125 14.372 26.7941 15.9252 28.0008 15.9252C28.3427 15.9252 28.6663 15.8003 28.955 15.5782C28.2252 15.0163 27.7209 13.8311 27.7209 12.4629Z" fill="#BF7FE3"/>
<path d="M15.5346 32.461C14.7356 31.7547 13.8703 31.4918 13.0983 31.7201C11.5144 32.1886 10.8305 34.6141 11.5739 37.1267C11.9327 38.3394 12.5664 39.3928 13.3582 40.0927C13.9694 40.633 14.6193 40.9138 15.2367 40.9138C15.4263 40.9138 15.613 40.8872 15.7945 40.8336C17.3783 40.3651 18.0623 37.9396 17.3188 35.427C16.9601 34.2143 16.3264 33.1608 15.5346 32.461Z" fill="#CC98E9"/>
<path d="M12.1953 28.6765C12.8749 28.4755 13.3877 27.8673 13.6394 26.9639C13.8884 26.0696 13.8521 24.9906 13.537 23.9256C13.2219 22.8607 12.6653 21.9356 11.9698 21.3208C11.2672 20.6997 10.506 20.4685 9.82636 20.6695C9.1467 20.8706 8.63395 21.4787 8.38228 22.3821C8.13323 23.2764 8.16966 24.3554 8.48466 25.4204C8.79976 26.4853 9.35637 27.4104 10.0518 28.0252C10.5891 28.5001 11.1607 28.7472 11.7039 28.7472C11.8711 28.7471 12.0354 28.7237 12.1953 28.6765Z" fill="#CC98E9"/>
<path d="M8.90057 17.5376C10.0576 17.1952 10.5583 15.4274 10.0166 13.5967C9.47512 11.7661 8.09305 10.5556 6.93608 10.8973C5.77901 11.2397 5.27829 13.0075 5.82002 14.8382C6.0811 15.7206 6.54244 16.4874 7.11896 16.9969C7.56521 17.3914 8.04012 17.5964 8.49151 17.5964C8.63052 17.5964 8.76746 17.5768 8.90057 17.5376Z" fill="#CC98E9"/>
<path d="M5.59935 5.5704C5.26597 4.44361 5.39788 3.34976 5.87016 2.73211C5.40138 2.31146 4.86654 2.12246 4.37927 2.26661C3.41557 2.55176 3.00344 4.03094 3.45899 5.5704C3.91443 7.10996 5.06494 8.12682 6.02876 7.84168C6.2871 7.76522 6.5053 7.60237 6.67833 7.37618C6.21983 6.96471 5.82455 6.33165 5.59935 5.5704Z" fill="#BF7FE3"/>
<path d="M16.191 40.0926C15.3991 39.3929 14.7655 38.3394 14.4066 37.1266C13.7994 35.0741 14.1449 33.0804 15.155 32.1634C14.4669 31.6858 13.7494 31.5275 13.0983 31.7201C11.5144 32.1887 10.8305 34.6142 11.5739 37.1267C11.9327 38.3395 12.5664 39.3929 13.3582 40.0928C13.9694 40.6331 14.6193 40.9138 15.2367 40.9138C15.4263 40.9138 15.613 40.8873 15.7945 40.8337C16.0843 40.7479 16.3436 40.5961 16.5699 40.3907C16.4424 40.302 16.3159 40.203 16.191 40.0926Z" fill="#BF7FE3"/>
<path d="M12.8846 28.0251C12.1891 27.4105 11.6325 26.4854 11.3174 25.4203C11.0024 24.3553 10.9659 23.2763 11.215 22.3821C11.3497 21.8984 11.56 21.5004 11.8299 21.2031C11.167 20.6713 10.4611 20.4818 9.82636 20.6695C9.14681 20.8704 8.63395 21.4786 8.38228 22.3821C8.13323 23.2763 8.16966 24.3553 8.48466 25.4203C8.79977 26.4853 9.35638 27.4104 10.0518 28.0251C10.5891 28.5001 11.1607 28.7471 11.7039 28.7471C11.8709 28.7471 12.0353 28.7237 12.1952 28.6765C12.5114 28.583 12.791 28.4002 13.0256 28.1415C12.9784 28.1037 12.9313 28.0664 12.8846 28.0251Z" fill="#BF7FE3"/>
<path d="M8.65272 14.8383C8.28129 13.583 8.40007 12.3573 8.88449 11.6004C8.28665 10.9957 7.57702 10.7083 6.93608 10.8975C5.77901 11.2398 5.27829 13.0077 5.82002 14.8384C6.0811 15.7208 6.54244 16.4875 7.11896 16.9971C7.56521 17.3915 8.04011 17.5966 8.49151 17.5966C8.63063 17.5966 8.76746 17.5771 8.90057 17.5378C9.2638 17.4302 9.56229 17.1823 9.7841 16.836C9.28622 16.3321 8.88777 15.6331 8.65272 14.8383Z" fill="#BF7FE3"/>
<path d="M42.9039 31.72C42.1319 31.4919 41.2667 31.7547 40.4676 32.4609C39.6757 33.1607 39.042 34.2142 38.6832 35.427C37.9399 37.9395 38.6237 40.3649 40.2076 40.8336C40.3892 40.8873 40.5757 40.9138 40.7655 40.9138C41.3828 40.9138 42.0327 40.6328 42.6439 40.0927C43.4358 39.3929 44.0694 38.3394 44.4283 37.1266C45.1716 34.6141 44.4878 32.1886 42.9039 31.72Z" fill="#CC98E9"/>
<path d="M46.1718 20.6694C45.4922 20.4686 44.7311 20.6997 44.0284 21.3207C43.3329 21.9353 42.7764 22.8604 42.4613 23.9255C42.1461 24.9905 42.1098 26.0694 42.3589 26.9638C42.6105 27.8672 43.1234 28.4754 43.803 28.6763C43.9629 28.7236 44.1271 28.747 44.2943 28.747C44.8374 28.747 45.409 28.4999 45.9464 28.025C46.6419 27.4103 47.1984 26.4852 47.5135 25.4201C47.8286 24.3552 47.8649 23.2762 47.6159 22.3819C47.3641 21.4786 46.8512 20.8704 46.1718 20.6694Z" fill="#CC98E9"/>
<path d="M49.0645 10.8973C47.9075 10.5557 46.5255 11.766 45.984 13.5967C45.4425 15.4274 45.9431 17.1952 47.1 17.5376C47.2332 17.5769 47.3701 17.5964 47.5091 17.5964C47.9606 17.5964 48.4355 17.3913 48.8816 16.9969C49.4582 16.4873 49.9195 15.7206 50.1806 14.8382C50.7222 13.0076 50.2216 11.2396 49.0645 10.8973Z" fill="#CC98E9"/>
<path d="M51.1621 4.53783C51.3895 3.76915 51.7904 3.13072 52.2546 2.71969C52.0832 2.49996 51.8682 2.34169 51.6146 2.26666C50.6509 1.98152 49.5004 2.99838 49.0449 4.53794C48.5894 6.07751 49.0015 7.55658 49.9653 7.84172C50.4477 7.98446 50.9771 7.80082 51.4426 7.38869C50.9623 6.77335 50.8265 5.67227 51.1621 4.53783Z" fill="#BF7FE3"/>
<path d="M41.2363 35.427C41.5951 34.2142 42.2288 33.1608 43.0206 32.4609C43.1968 32.3052 43.3764 32.1723 43.5573 32.0602C43.3611 31.9067 43.1429 31.7907 42.9039 31.72C42.1319 31.4919 41.2667 31.7547 40.4676 32.4609C39.6757 33.1607 39.042 34.2142 38.6832 35.427C37.9399 37.9395 38.6237 40.3649 40.2076 40.8336C40.3892 40.8873 40.5757 40.9138 40.7655 40.9138C41.205 40.9138 41.661 40.7706 42.1077 40.4938C41.0034 39.6307 40.6051 37.5605 41.2363 35.427Z" fill="#BF7FE3"/>
<path d="M44.9119 26.9638C44.6629 26.0695 44.6992 24.9905 45.0143 23.9255C45.3294 22.8605 45.8859 21.9355 46.5814 21.3207C46.6806 21.2329 46.781 21.154 46.8822 21.082C46.6741 20.8876 46.4357 20.7474 46.1718 20.6694C45.4922 20.4686 44.7311 20.6997 44.0284 21.3207C43.3329 21.9353 42.7764 22.8604 42.4613 23.9255C42.1461 24.9905 42.1098 26.0694 42.3589 26.9638C42.6106 27.8672 43.1234 28.4754 43.803 28.6763C43.9629 28.7236 44.1271 28.747 44.2943 28.747C44.7368 28.747 45.198 28.5803 45.6445 28.2626C45.3172 27.9565 45.0657 27.5155 44.9119 26.9638Z" fill="#BF7FE3"/>
<path d="M48.5369 13.5967C48.8059 12.6872 49.2825 11.9311 49.8358 11.4421C49.629 11.1782 49.3699 10.9878 49.0645 10.8973C47.9075 10.5557 46.5255 11.766 45.984 13.5967C45.4425 15.4274 45.9431 17.1952 47.1 17.5376C47.2332 17.5769 47.3701 17.5964 47.5091 17.5964C47.9606 17.5964 48.4355 17.3913 48.8816 16.9969C48.8823 16.9964 48.8828 16.9957 48.8835 16.9952C48.3052 16.2596 48.1379 14.9456 48.5369 13.5967Z" fill="#BF7FE3"/>
</svg>
