<svg width="27" height="22" viewBox="0 0 27 22" fill="none" xmlns="http://www.w3.org/2000/svg">
<path d="M25.5557 3.15521C25.2318 2.76872 24.7782 2.53264 24.2783 2.4905L6.67307 1.00673C6.17317 0.964588 5.68714 1.12146 5.30418 1.44837C4.92279 1.774 4.68924 2.22954 4.64618 2.73161L4.29198 6.08575H2.87768C1.84233 6.08575 1 6.93597 1 7.98101V19.1047C1 20.1498 1.84233 21 2.87768 21H20.5443C21.5796 21 22.422 20.1498 22.422 19.1047V17.3003L23.0489 17.3531C23.1018 17.3575 23.1543 17.3598 23.2065 17.3598C24.1717 17.3598 24.9946 16.6102 25.0763 15.6221L25.9934 4.53697C26.035 4.03243 25.8796 3.54175 25.5557 3.15521ZM2.87768 7.07145H20.5443C21.0411 7.07145 21.4454 7.47948 21.4454 7.98101V8.9946H1.97656V7.98101C1.97656 7.47948 2.3808 7.07145 2.87768 7.07145ZM1.97656 9.9803H21.4454V12.0251H1.97656V9.9803ZM20.5443 20.0143H2.87768C2.3808 20.0143 1.97656 19.6063 1.97656 19.1047V13.0108H21.4454V19.1047C21.4454 19.6063 21.0411 20.0143 20.5443 20.0143ZM25.0202 4.45491L24.1031 15.5401C24.0618 16.0399 23.6252 16.4127 23.1301 16.3708L22.422 16.3111V7.98101C22.422 6.93597 21.5796 6.08575 20.5443 6.08575H5.2741L5.6178 2.83096C5.61819 2.82722 5.61854 2.82352 5.61883 2.81973C5.66019 2.31993 6.09651 1.94713 6.59182 1.98903L24.1971 3.4728C24.437 3.49301 24.6547 3.60632 24.8102 3.79183C24.9656 3.97733 25.0402 4.21277 25.0202 4.45491Z" fill="#333333" stroke="#333333" stroke-width="0.5"/>
<path d="M19.4024 14.4761H14.7031C14.4334 14.4761 14.2148 14.6967 14.2148 14.9689V18.0635C14.2148 18.3357 14.4334 18.5564 14.7031 18.5564H19.4024C19.6721 18.5564 19.8907 18.3357 19.8907 18.0635V14.9689C19.8907 14.6967 19.6721 14.4761 19.4024 14.4761ZM18.9142 17.5706H15.1914V15.4618H18.9142V17.5706Z" fill="#333333" stroke="#333333" stroke-width="0.5"/>
</svg>
