<svg width="57" height="40" viewBox="0 0 57 40" fill="none" xmlns="http://www.w3.org/2000/svg">
<path d="M28.4455 6.5459C25.2189 6.5459 22.5938 9.17101 22.5938 12.3977C22.5938 15.6244 25.2189 18.2495 28.4455 18.2495C31.6722 18.2495 34.2973 15.6244 34.2973 12.3977C34.2973 9.17101 31.6722 6.5459 28.4455 6.5459ZM28.4455 16.6088C26.1235 16.6088 24.2344 14.7197 24.2344 12.3977C24.2344 10.0756 26.1235 8.18652 28.4455 8.18652C30.7676 8.18652 32.6567 10.0756 32.6567 12.3977C32.6567 14.7197 30.7676 16.6088 28.4455 16.6088Z" fill="#EBEBEB"/>
<path d="M56.4519 38.0399L54.2506 31.4062C54.2501 31.4047 54.2495 31.4031 54.249 31.4016L52.0001 24.6246C51.9996 24.6231 51.9991 24.6217 51.9986 24.6202L49.3633 16.6788C49.252 16.3434 48.9382 16.1169 48.5848 16.1169H39.6604C40.138 14.9848 40.4224 13.875 40.4224 12.8355C40.4224 6.23145 35.0496 0.858398 28.4454 0.858398C21.8412 0.858398 16.4683 6.23134 16.4683 12.8355C16.4683 13.875 16.7528 14.9848 17.2303 16.1169H13.1868V15.1359C14.6775 14.7576 15.7712 13.3731 15.6991 11.7509C15.6243 10.0673 14.2698 8.68276 12.5883 8.57338C10.6489 8.44728 9.03044 9.98924 9.03044 11.9022C9.03044 13.4587 10.102 14.7694 11.5462 15.1359V16.1169H8.41521C8.06182 16.1169 7.74791 16.3433 7.63668 16.6788L5.0014 24.6203C5.00096 24.6218 5.00041 24.6232 4.99998 24.6247L2.75101 31.4016C2.75057 31.4031 2.74991 31.4047 2.74948 31.4062L0.548085 38.0399C0.490991 38.2119 0.481257 38.3994 0.537804 38.5717C0.652319 38.9211 0.971803 39.1411 1.31918 39.1411H12.4835C12.4844 39.1411 12.4853 39.1413 12.4861 39.1413C12.487 39.1413 12.488 39.1411 12.4889 39.1411H28.8734C29.3264 39.1411 29.6937 38.7738 29.6937 38.3208C29.6937 37.8677 29.3264 37.5004 28.8734 37.5004H20.7945L22.5057 32.469H34.6035L36.3148 37.5004H33.6491C33.1961 37.5004 32.8288 37.8677 32.8288 38.3208C32.8288 38.7738 33.1961 39.1411 33.6491 39.1411H55.6807C56.0281 39.1411 56.3476 38.9211 56.4621 38.5717C56.5187 38.3994 56.509 38.212 56.4519 38.0399ZM47.9927 17.7575L50.0798 24.0468H47.7547L45.6157 17.7575H47.9927ZM39.133 17.7575L41.272 24.0468H34.0482C35.785 22.1837 37.6009 19.9716 38.8481 17.7575H39.133ZM28.4453 2.49902C34.1447 2.49902 38.7816 7.13598 38.7816 12.8354C38.7816 15.1452 36.9303 18.4156 33.4278 22.2931C31.4118 24.525 29.3726 26.3674 28.4422 27.1798C25.1281 24.3161 18.1089 17.3193 18.1089 12.8355C18.1089 7.13587 22.7457 2.49902 28.4453 2.49902ZM10.6711 11.9019C10.6711 10.9671 11.4316 10.2065 12.3665 10.2065C13.3014 10.2065 14.0619 10.9669 14.0619 11.9019C14.0619 12.8368 13.3014 13.5973 12.3665 13.5973C11.4316 13.5973 10.6711 12.8368 10.6711 11.9019ZM11.8986 37.5004H2.45558L4.1253 32.469H10.0371V33.8433C10.0371 34.2963 10.4043 34.6636 10.8574 34.6636C11.3106 34.6636 11.6778 34.2963 11.6778 33.8433V32.469H13.6098L11.8986 37.5004ZM9.54494 28.7429C9.54494 28.0192 10.1337 27.4304 10.8574 27.4304C11.5812 27.4304 12.1699 28.0192 12.1699 28.7429C12.1699 29.4666 11.5812 30.0554 10.8574 30.0554C10.1337 30.0554 9.54494 29.4666 9.54494 28.7429ZM41.5773 31.9128L43.4777 37.5004H38.0477L35.9676 31.3845C35.8546 31.052 35.5423 30.8284 35.191 30.8284H21.9183C21.5671 30.8284 21.2549 31.052 21.1418 31.3845L19.0617 37.5004H13.6316L15.532 31.9128C15.6442 31.5829 15.5377 31.2085 15.2423 30.9878C15.0964 30.8789 14.9148 30.8284 14.7327 30.8284H12.9466C13.5328 30.2412 13.8738 29.4092 13.8011 28.5011C13.6852 27.0537 12.5003 25.889 11.0513 25.796C9.33549 25.6859 7.90421 27.0504 7.90421 28.743C7.90421 29.5562 8.23463 30.2938 8.76827 30.8284H4.66977L6.37569 25.6875H14.5892C15.0422 25.6875 15.4095 25.3202 15.4095 24.8672C15.4095 24.4142 15.0422 24.0469 14.5892 24.0469H6.92016L9.00726 17.7576H11.5462V17.8836C11.5462 18.3328 11.8924 18.7245 12.3413 18.7379C12.8059 18.7518 13.1868 18.3794 13.1868 17.9179V17.7576H18.0423C19.2895 19.9718 21.1054 22.1839 22.8422 24.0469H19.3649C18.9118 24.0469 18.5445 24.4142 18.5445 24.8672C18.5445 25.3202 18.9118 25.6875 19.3649 25.6875H24.4346C26.2776 27.5151 27.7561 28.752 27.9214 28.8891C28.0733 29.0152 28.2592 29.0782 28.4453 29.0782C28.6313 29.0782 28.8173 29.0152 28.9692 28.8891C29.1344 28.752 30.6131 27.5149 32.4559 25.6875H42.3949C42.577 25.6875 42.7585 25.637 42.9044 25.528C43.2 25.3073 43.3064 24.9329 43.1942 24.6031L40.866 17.7575H43.8827L46.3905 25.1313C46.5036 25.4638 46.8159 25.6875 47.1672 25.6875H50.6241L52.33 30.8284H46.1197C46.9819 30.3985 47.6092 29.556 47.7349 28.5667C47.9801 26.6375 46.3503 25.0079 44.4212 25.2531C43.0666 25.4252 41.9979 26.531 41.867 27.8903C41.7436 29.1701 42.4432 30.3049 43.4977 30.8284H42.3767C42.1946 30.8284 42.013 30.8789 41.8671 30.9878C41.5716 31.2084 41.4651 31.5829 41.5773 31.9128ZM44.6351 29.4834C44.0509 29.4091 43.5792 28.9375 43.5047 28.3533C43.3954 27.4957 44.1198 26.771 44.9775 26.88C45.5617 26.9543 46.0334 27.4259 46.1079 28.0101C46.2172 28.8678 45.4927 29.5924 44.6351 29.4834ZM45.2106 37.5004L43.4993 32.469H43.9857V33.2549C43.9857 33.6452 44.2456 34.0032 44.6275 34.0837C45.1586 34.1956 45.6263 33.7935 45.6263 33.2822V32.469H52.8744L54.5441 37.5004H45.2106Z" fill="#EBEBEB"/>
</svg>
