<svg width="55" height="56" viewBox="0 0 55 56" fill="none" xmlns="http://www.w3.org/2000/svg">
<path d="M53.5645 20.3496L46.3065 13.0916C44.7978 11.5829 42.7919 10.752 40.6582 10.752H14.3418C12.2081 10.752 10.2022 11.5829 8.69344 13.0916L1.43543 20.3495C-0.168883 21.9539 -0.297289 24.4896 1.13694 26.2477L24.0873 54.3803C24.9274 55.4101 26.1712 56.0006 27.5 56.0006C28.8288 56.0006 30.0726 55.4101 30.9126 54.3804L53.863 26.2478C55.2972 24.4896 55.1689 21.954 53.5645 20.3496ZM42.3838 12.6307L39.0798 21.9921L29.4805 12.3927H40.6583C41.2501 12.3927 41.8291 12.4749 42.3838 12.6307ZM37.167 22.3994H17.833L27.5 12.7324L37.167 22.3994ZM25.5197 12.3927L15.9203 21.9921L12.6163 12.6307C13.1709 12.4749 13.75 12.3927 14.3418 12.3927H25.5197ZM9.85358 14.2517C10.234 13.8713 10.6543 13.5457 11.1048 13.2776L14.3243 22.3994H1.99893C2.13455 22.0759 2.33263 21.7727 2.59557 21.5097L9.85358 14.2517ZM27.3428 54.3555L17.5944 26.7352C17.4437 26.308 16.975 26.084 16.5479 26.2347C16.1207 26.3856 15.8966 26.8541 16.0474 27.2812L25.1596 53.0992L2.40832 25.2107C2.1211 24.8586 1.93484 24.4566 1.84559 24.04H38.3569L27.6573 54.3555C27.6051 54.3584 27.5528 54.36 27.5 54.36C27.4474 54.36 27.3949 54.3584 27.3428 54.3555ZM29.8405 53.0992L43.8952 13.2776C44.3457 13.5457 44.7662 13.8713 45.1465 14.2517L52.4045 21.5097C52.6674 21.7726 52.8655 22.0759 53.0011 22.3994H43.6273C43.1742 22.3994 42.8069 22.7667 42.8069 23.2197C42.8069 23.6727 43.1742 24.04 43.6273 24.04H53.1546C53.0653 24.4566 52.8791 24.8586 52.5919 25.2107L29.8405 53.0992Z" fill="#EBEBEB"/>
<path d="M27.5 7.9123C27.953 7.9123 28.3203 7.54513 28.3203 7.09198V0.820312C28.3203 0.367281 27.953 0 27.5 0C27.047 0 26.6797 0.367281 26.6797 0.820312V7.09198C26.6797 7.54502 27.047 7.9123 27.5 7.9123Z" fill="#EBEBEB"/>
<path d="M18.7029 7.45874C18.8466 7.74618 19.1363 7.91232 19.4373 7.91232C19.5605 7.91232 19.6857 7.88443 19.8035 7.82558C20.2087 7.62291 20.373 7.13029 20.1703 6.72505L18.3784 3.14116C18.1757 2.73593 17.6832 2.57164 17.2779 2.77432C16.8726 2.97699 16.7084 3.46961 16.911 3.87485L18.7029 7.45874Z" fill="#EBEBEB"/>
<path d="M35.1968 7.82549C35.3146 7.88444 35.4397 7.91222 35.563 7.91222C35.8639 7.91222 36.1536 7.74597 36.2973 7.45864L38.0892 3.87475C38.2919 3.46952 38.1276 2.97678 37.7224 2.77422C37.3173 2.57177 36.8245 2.73583 36.6218 3.14106L34.8299 6.72496C34.6274 7.13019 34.7915 7.62292 35.1968 7.82549Z" fill="#EBEBEB"/>
</svg>
