<svg width="56" height="56" viewBox="0 0 56 56" fill="none" xmlns="http://www.w3.org/2000/svg">
<path d="M47.25 14C45.7057 14.0229 44.1639 14.1337 42.6321 14.3316C42.8416 13.5711 43.0706 12.7851 43.3171 11.9801C43.7131 11.7489 44.042 11.4184 44.2713 11.0214C44.5007 10.6243 44.6226 10.1743 44.625 9.71578V7.875C44.625 7.64294 44.5328 7.42038 44.3687 7.25628C44.2046 7.09219 43.9821 7 43.75 7C43.6798 7 43.0422 7.00197 42.0252 7.06355C42.0278 6.74209 42.0287 6.4248 42.0273 6.1145C42.0228 5.4207 41.7445 4.75676 41.2529 4.26719C40.7612 3.77762 40.0962 3.50204 39.4023 3.50044H35.8872C35.4789 2.95817 34.9504 2.51791 34.3433 2.2142C33.7362 1.9105 33.067 1.75161 32.3881 1.75H23.7508C23.072 1.75163 22.4028 1.91049 21.7958 2.21411C21.1887 2.51773 20.6602 2.95787 20.2518 3.5H16.6643C16.3115 3.50011 15.9624 3.57129 15.6378 3.70928C15.3132 3.84728 15.0197 4.04927 14.7748 4.30319C14.53 4.55711 14.3388 4.85776 14.2127 5.18719C14.0866 5.51662 14.0282 5.86808 14.0409 6.22059C14.0514 6.50366 14.0633 6.7861 14.0765 7.06792C13.0239 7.00284 12.3504 7 12.25 7C12.0179 7 11.7954 7.09219 11.6313 7.25628C11.4672 7.42038 11.375 7.64294 11.375 7.875V9.71578C11.3774 10.1742 11.4993 10.624 11.7287 11.0209C11.9582 11.4177 12.2872 11.7479 12.6832 11.9786C12.9281 12.7787 13.1563 13.5632 13.3658 14.325C11.8346 14.1295 10.2935 14.021 8.75 14C8.51794 14 8.29538 14.0922 8.13128 14.2563C7.96719 14.4204 7.875 14.6429 7.875 14.875V16.7158C7.87848 17.2915 8.06995 17.8504 8.42028 18.3073C8.77061 18.7643 9.26062 19.0942 9.81575 19.247C10.8357 21.8793 11.375 24.2948 11.375 26.25C11.375 28.1895 11.7064 30.9712 13.2851 33.2077C14.7568 35.2925 16.9657 36.4649 19.8604 36.7035C19.7352 36.7957 19.6168 36.8969 19.5063 37.0063C14.9276 41.5849 14.875 46.1815 14.875 46.375C14.875 46.5586 14.9328 46.7376 15.0402 46.8866C15.1475 47.0356 15.2991 47.147 15.4733 47.2051C15.6475 47.2632 15.8356 47.265 16.0109 47.2102C16.1862 47.1554 16.3398 47.0469 16.45 46.9C16.4759 46.8655 19.0697 43.4176 21.6187 40.8687C22.7015 39.7859 24.1211 38.8498 25.375 38.1397V42.5125L23.8813 44.0063C23.8 44.0875 23.7356 44.184 23.6916 44.2901C23.6476 44.3963 23.625 44.5101 23.625 44.625C23.625 44.7399 23.6476 44.8537 23.6916 44.9599C23.7356 45.066 23.8 45.1625 23.8813 45.2437L25.375 46.7375V53.375C25.375 53.6071 25.4672 53.8296 25.6313 53.9937C25.7954 54.1578 26.0179 54.25 26.25 54.25H29.75C29.9821 54.25 30.2046 54.1578 30.3687 53.9937C30.5328 53.8296 30.625 53.6071 30.625 53.375V50.2375L32.1187 48.7437C32.2 48.6625 32.2644 48.566 32.3084 48.4599C32.3524 48.3537 32.375 48.2399 32.375 48.125C32.375 48.0101 32.3524 47.8963 32.3084 47.7901C32.2644 47.684 32.2 47.5875 32.1187 47.5063L30.625 46.0125V38.1397C31.8789 38.8498 33.298 39.7855 34.3813 40.8687C36.9297 43.4172 39.5241 46.8655 39.5501 46.9C39.6603 47.0469 39.8139 47.1554 39.9892 47.2101C40.1645 47.2648 40.3525 47.263 40.5267 47.2049C40.7009 47.1469 40.8524 47.0355 40.9598 46.8865C41.0672 46.7376 41.125 46.5586 41.125 46.375C41.125 46.1815 41.0724 41.5844 36.4937 37.0063C36.3832 36.8969 36.2648 36.7957 36.1396 36.7035C39.0343 36.4649 41.2432 35.2926 42.7149 33.2077C44.2936 30.9712 44.625 28.1895 44.625 26.25C44.625 23.8312 45.4344 21.1825 46.1824 19.2485C46.7381 19.0959 47.2286 18.7658 47.5793 18.3086C47.93 17.8514 48.1216 17.292 48.125 16.7158V14.875C48.125 14.6429 48.0328 14.4204 47.8687 14.2563C47.7046 14.0922 47.4821 14 47.25 14ZM36.505 15.5663C32.7274 16.668 29.8769 18.2751 28.0047 20.3249C27.3133 19.575 26.5362 18.909 25.6893 18.3405C30.9897 13.8639 38.7861 12.684 41.3613 12.4079C41.139 13.1619 40.9326 13.8973 40.7445 14.6077C39.3139 14.8448 37.8984 15.1648 36.505 15.5663ZM42.875 9.71578C42.8764 9.93418 42.7955 10.1451 42.6484 10.3065C42.5012 10.4679 42.2987 10.5679 42.081 10.5866C41.5006 10.6239 30.7863 11.3933 24.1123 17.3938L24.0672 17.3701C26.6 9.99884 39.3921 8.92959 42.875 8.7757V9.71578ZM21.2599 8.10534C21.2236 7.6638 21.191 7.21623 21.1614 6.76627C21.5461 7.0534 21.954 7.3081 22.3809 7.52773C23.9517 8.33875 25.8421 8.75 28 8.75C31.496 8.75 33.6976 7.66719 35.0011 6.63906C34.9885 7.11528 34.9718 7.59062 34.9501 8.06225C34.5748 8.14822 34.1964 8.24133 33.8149 8.34159C31.5801 8.93112 29.6324 9.69062 28 10.6085C25.909 9.43283 23.5275 8.63964 21.2599 8.10534ZM40.2773 6.12205C40.2788 6.47456 40.2773 6.83692 40.2735 7.2042C39.2318 7.30789 38.0173 7.46452 36.7168 7.70055C36.7365 7.20563 36.7521 6.70764 36.7618 6.2102C36.7678 5.88786 36.7382 5.56584 36.6734 5.25H39.4023C39.6337 5.25063 39.8555 5.34262 40.0193 5.50594C40.1832 5.66926 40.2759 5.89069 40.2773 6.12205ZM23.7508 3.5H32.3881C32.8199 3.50091 33.2448 3.60776 33.6256 3.81118C34.0064 4.0146 34.3314 4.30836 34.5722 4.6667C33.7203 5.58906 31.7953 7 28 7C26.6491 7 23.4356 6.77141 21.5101 4.75716C21.7455 4.37403 22.0749 4.05743 22.4671 3.83741C22.8592 3.61739 23.3011 3.50124 23.7508 3.5ZM15.7899 6.15781C15.7856 6.0402 15.8051 5.92293 15.8471 5.813C15.8891 5.70307 15.9529 5.60274 16.0346 5.51801C16.1162 5.43327 16.2141 5.36586 16.3224 5.31982C16.4308 5.27377 16.5472 5.25002 16.6649 5.25H19.4663C19.3899 5.62269 19.3623 6.00375 19.3844 6.38356C19.4112 6.83462 19.4418 7.28448 19.4755 7.7303C18.1496 7.48344 16.9061 7.31992 15.8364 7.21175C15.8188 6.86197 15.8033 6.51066 15.7899 6.15781ZM13.125 8.77505C15.3826 8.87348 21.5546 9.35386 26.3131 11.6974C25.7564 12.1067 25.2336 12.5603 24.7499 13.0537C19.6486 11.0324 14.1818 10.6058 13.9225 10.5866C13.7042 10.5687 13.5008 10.4691 13.3529 10.3076C13.2051 10.1461 13.1237 9.93473 13.125 9.71578V8.77505ZM14.6421 12.4179C16.2768 12.6066 20.0084 13.1516 23.5798 14.4794C23.1246 15.1425 22.7544 15.8602 22.4779 16.6156C20.0935 15.6003 17.5208 14.9788 15.2523 14.5988C15.0654 13.8915 14.8613 13.1625 14.6421 12.4179ZM9.625 15.7754C12.6421 15.9076 22.6469 16.7234 26.9165 21.7343C26.6816 22.099 26.4714 22.479 26.2874 22.8718C20.7386 18.4017 10.7756 17.6138 10.4226 17.5875C10.2042 17.5696 10.0006 17.4698 9.85272 17.3082C9.70481 17.1465 9.62347 16.9349 9.625 16.7158V15.7754ZM14.7149 32.1986C13.4008 30.337 13.125 27.9362 13.125 26.25C13.125 24.2775 12.671 22.0103 11.7763 19.4972C14.8255 19.9012 21.8244 21.1726 25.6637 24.6378L25.6689 24.6321C25.471 25.4482 25.3723 26.2852 25.375 27.125C25.375 29.0791 25.8704 31.0406 26.908 32.6779C25.526 34.1981 23.4991 35 21 35C18.1417 35 16.027 34.0574 14.7149 32.1986ZM20.3813 39.6313C19.4247 40.5879 18.4753 41.6491 17.6483 42.6205C18.4115 40.9891 19.4597 39.5069 20.7436 38.2437C21.2427 37.7447 22.3443 37.3891 23.6059 37.15C22.4949 37.8392 21.3355 38.6771 20.3813 39.6313ZM29.1313 46.9937L30.2626 48.125L29.1313 49.2563C29.05 49.3375 28.9856 49.434 28.9416 49.5401C28.8976 49.6463 28.875 49.7601 28.875 49.875V52.5H27.125V46.375C27.125 46.2601 27.1024 46.1463 27.0584 46.0401C27.0144 45.934 26.95 45.8375 26.8687 45.7563L25.7375 44.625L26.8687 43.4937C26.95 43.4125 27.0144 43.316 27.0584 43.2099C27.1024 43.1037 27.125 42.9899 27.125 42.875V37.227C27.4893 37.052 27.7907 36.9166 28 36.8254C28.2093 36.9166 28.5107 37.0522 28.875 37.227V46.375C28.875 46.4899 28.8976 46.6037 28.9416 46.7099C28.9856 46.816 29.05 46.9125 29.1313 46.9937ZM38.3516 42.6205C37.5246 41.6491 36.5752 40.5879 35.6186 39.6313C34.6644 38.6771 33.505 37.8392 32.3939 37.1504C33.6555 37.3891 34.7571 37.7447 35.2562 38.2442C36.54 39.5073 37.5883 40.9892 38.3517 42.6205H38.3516ZM28 35C27.853 35 27.45 35.0028 26.8907 35.0283C27.2893 34.7425 27.6619 34.422 28.004 34.0705C28.3462 34.4223 28.719 34.7429 29.1179 35.0287C28.5543 35.0028 28.1478 35 28 35ZM41.2851 32.1986C39.9726 34.058 37.8584 35 35 35C29.3477 35 27.2419 30.9886 27.13 27.4269C30.1505 23.7121 34.9139 21.7192 38.4144 20.6983C40.3184 20.1462 42.2619 19.7403 44.2279 19.4843C43.3307 22.0014 42.875 24.2728 42.875 26.25C42.875 27.9362 42.5993 30.337 41.2851 32.1986ZM46.375 16.7158C46.3764 16.9341 46.2955 17.145 46.1484 17.3064C46.0013 17.4678 45.7988 17.5678 45.5813 17.5866C44.9677 17.6259 34.2012 18.4011 27.5335 24.4643C28.6017 21.1976 31.7606 18.7791 36.9638 17.2553C40.7975 16.1328 44.6842 15.8471 46.375 15.7746V16.7158Z" fill="#AE8646"/>
</svg>
