<svg width="23" height="27" viewBox="0 0 23 27" fill="none" xmlns="http://www.w3.org/2000/svg">
<path d="M17.125 4.3335H5.875C4.8395 4.3335 4 5.26627 4 6.41681V19.3333C4 19.5635 4.16787 19.75 4.375 19.75C4.58198 19.75 4.75 19.5635 4.75 19.3333V6.41681C4.75 5.72655 5.25361 5.16682 5.875 5.16682H17.125C17.7462 5.16682 18.25 5.72655 18.25 6.41681V23.9166C18.25 24.6069 17.7462 25.1666 17.125 25.1666C16.5036 25.1666 16 24.6069 16 23.9166V21.8333C16 21.373 15.6641 21 15.25 21H1.75C1.33574 21 1 21.373 1 21.8333V23.9166C1 25.0672 1.8395 25.9999 2.875 25.9999H17.125C18.1604 25.9999 19 25.0672 19 23.9166V6.41681C19 5.26627 18.1604 4.3335 17.125 4.3335ZM2.875 25.1666C2.25361 25.1666 1.75 24.6069 1.75 23.9166V21.8333H15.25V23.9166C15.25 24.3675 15.3815 24.806 15.625 25.1666H2.875Z" fill="#333333" stroke="#333333" stroke-width="0.5"/>
<path d="M15.25 9.33333C15.457 9.33333 15.625 9.1468 15.625 8.91666C15.625 8.68652 15.457 8.5 15.25 8.5H9.25C9.04287 8.5 8.875 8.68652 8.875 8.91666C8.875 9.1468 9.04287 9.33333 9.25 9.33333H15.25Z" fill="#333333" stroke="#333333" stroke-width="0.5"/>
<path d="M7 11.4167C7 11.6468 7.16787 11.8333 7.375 11.8333H15.25C15.457 11.8333 15.625 11.6468 15.625 11.4167C15.625 11.1865 15.457 11 15.25 11H7.375C7.16787 11 7 11.1865 7 11.4167Z" fill="#333333" stroke="#333333" stroke-width="0.5"/>
<path d="M7.375 14.3333H15.25C15.457 14.3333 15.625 14.1468 15.625 13.9167C15.625 13.6865 15.457 13.5 15.25 13.5H7.375C7.16787 13.5 7 13.6865 7 13.9167C7 14.1468 7.16787 14.3333 7.375 14.3333Z" fill="#333333" stroke="#333333" stroke-width="0.5"/>
<path d="M7.375 16.8328H15.25C15.457 16.8328 15.625 16.6463 15.625 16.4162C15.625 16.186 15.457 15.9995 15.25 15.9995H7.375C7.16787 15.9995 7 16.186 7 16.4162C7 16.6463 7.16787 16.8328 7.375 16.8328Z" fill="#333333" stroke="#333333" stroke-width="0.5"/>
<path d="M7.375 19.3333H13.75C13.957 19.3333 14.125 19.1468 14.125 18.9167C14.125 18.6865 13.957 18.5 13.75 18.5H7.375C7.16787 18.5 7 18.6865 7 18.9167C7 19.1468 7.16787 19.3333 7.375 19.3333Z" fill="#333333" stroke="#333333" stroke-width="0.5"/>
<path d="M20.125 1H8.875C7.8395 1 7 1.93277 7 3.08331C7 3.31345 7.16787 3.49998 7.375 3.49998C7.58198 3.49998 7.75 3.31345 7.75 3.08331C7.75 2.39305 8.25361 1.83333 8.875 1.83333H20.125C20.7462 1.83333 21.25 2.39305 21.25 3.08331V20.5831C21.25 21.2734 20.7462 21.8331 20.125 21.8331C19.9179 21.8331 19.75 22.0196 19.75 22.2498C19.75 22.4799 19.9179 22.6665 20.125 22.6665C21.1604 22.6665 22 21.7337 22 20.5831V3.08331C22 1.93277 21.1604 1 20.125 1Z" fill="#333333" stroke="#333333" stroke-width="0.5"/>
</svg>
