<svg width="53" height="52" viewBox="0 0 53 52" fill="none" xmlns="http://www.w3.org/2000/svg">
<path d="M3.16681 26.0006C3.16618 21.6188 4.39955 17.3255 6.72567 13.6122C9.05179 9.89889 12.3766 6.91572 16.3195 5.0043C20.2623 3.09287 24.6638 2.33047 29.0198 2.80438C33.3758 3.2783 37.5103 4.96938 40.9499 7.68398H37.4005C37.0931 7.68695 36.7992 7.81118 36.5829 8.02965C36.3665 8.24811 36.2451 8.54315 36.2451 8.85063C36.2451 9.1581 36.3665 9.45314 36.5829 9.67161C36.7992 9.89007 37.0931 10.0143 37.4005 10.0173H44.0001C44.3095 10.0173 44.6063 9.89435 44.8251 9.67556C45.0439 9.45676 45.1668 9.16 45.1668 8.85057V2.25077C45.1683 2.09662 45.1392 1.94369 45.0813 1.80084C45.0233 1.65798 44.9376 1.52803 44.8291 1.4185C44.7206 1.30896 44.5915 1.22201 44.4492 1.16267C44.307 1.10333 44.1543 1.07277 44.0002 1.07277C43.846 1.07277 43.6934 1.10333 43.5511 1.16267C43.4088 1.22201 43.2797 1.30896 43.1712 1.4185C43.0627 1.52803 42.977 1.65798 42.919 1.80084C42.8611 1.94369 42.832 2.09662 42.8335 2.25077V6.2014C37.7463 2.00482 31.239 -0.0725915 24.6612 0.400027C18.0834 0.872646 11.9399 3.85903 7.50487 8.73978C3.06988 13.6205 0.683727 20.0211 0.841322 26.614C0.998917 33.2069 3.68816 39.4861 8.3513 44.1494C8.45916 44.2598 8.58785 44.3477 8.72992 44.4079C8.87199 44.4682 9.0246 44.4997 9.17893 44.5006C9.33326 44.5015 9.48623 44.4718 9.62898 44.4131C9.77174 44.3545 9.90143 44.2681 10.0106 44.159C10.1197 44.0498 10.2061 43.9201 10.2647 43.7774C10.3234 43.6346 10.3531 43.4817 10.3522 43.3273C10.3513 43.173 10.3198 43.0204 10.2595 42.8783C10.1993 42.7362 10.1114 42.6076 10.001 42.4997C7.82752 40.338 6.10437 37.7668 4.93128 34.9347C3.75819 32.1026 3.15846 29.066 3.16681 26.0006Z" fill="#EBEBEB"/>
<path d="M16.3034 46.9947C15.6414 46.6729 14.9863 46.3145 14.3565 45.9306C14.0924 45.7694 13.7751 45.7197 13.4744 45.7925C13.1736 45.8652 12.9141 46.0544 12.7529 46.3185C12.5917 46.5826 12.542 46.8999 12.6147 47.2007C12.6875 47.5014 12.8767 47.7609 13.1408 47.9221C13.8341 48.3454 14.5552 48.739 15.2839 49.0933C15.4217 49.1603 15.5713 49.1994 15.7243 49.2085C15.8772 49.2177 16.0304 49.1966 16.1752 49.1465C16.32 49.0964 16.4535 49.0183 16.5681 48.9166C16.6827 48.8149 16.7761 48.6917 16.843 48.5539C16.91 48.4161 16.9492 48.2664 16.9583 48.1135C16.9674 47.9606 16.9463 47.8074 16.8962 47.6626C16.8461 47.5178 16.768 47.3843 16.6663 47.2697C16.5647 47.1551 16.4414 47.0617 16.3036 46.9947H16.3034Z" fill="#EBEBEB"/>
<path d="M47.505 15.8249C47.5718 15.9628 47.6651 16.0862 47.7795 16.188C47.894 16.2898 48.0274 16.3681 48.1722 16.4184C48.3169 16.4687 48.4701 16.4899 48.6231 16.481C48.776 16.4721 48.9257 16.4331 49.0636 16.3663C49.2015 16.2995 49.3249 16.2062 49.4267 16.0917C49.5285 15.9773 49.6068 15.8439 49.6571 15.6991C49.7074 15.5544 49.7286 15.4012 49.7197 15.2482C49.7108 15.0953 49.6718 14.9456 49.605 14.8077C49.2535 14.0813 48.8605 13.3602 48.4372 12.664C48.3576 12.533 48.2529 12.4191 48.1292 12.3286C48.0056 12.2381 47.8653 12.1729 47.7164 12.1367C47.4157 12.0634 47.0983 12.1126 46.8339 12.2735C46.5695 12.4343 46.3798 12.6936 46.3066 12.9943C46.2334 13.295 46.2826 13.6124 46.4434 13.8768C46.8282 14.5098 47.1854 15.1652 47.505 15.8249Z" fill="#EBEBEB"/>
<path d="M29.268 49.1704C28.5315 49.2579 27.7863 49.31 27.0527 49.3277C26.7488 49.3393 26.4616 49.4691 26.252 49.6894C26.0425 49.9096 25.9272 50.203 25.9307 50.507C25.9343 50.811 26.0564 51.1016 26.271 51.317C26.4856 51.5323 26.7758 51.6553 27.0798 51.6599C27.0889 51.6599 27.0986 51.6599 27.1077 51.6593C27.9143 51.6405 28.7329 51.5828 29.5418 51.4873C29.8488 51.4507 30.1288 51.2938 30.3202 51.0509C30.5115 50.808 30.5987 50.4992 30.5624 50.1921C30.5262 49.885 30.3696 49.6049 30.1269 49.4133C29.8843 49.2216 29.5755 49.1341 29.2684 49.17L29.268 49.1704Z" fill="#EBEBEB"/>
<path d="M22.6282 49.0118C21.9025 48.8905 21.1727 48.7327 20.4595 48.5415C20.1605 48.4616 19.842 48.5037 19.5741 48.6587C19.3061 48.8136 19.1107 49.0686 19.0308 49.3676C18.9509 49.6666 18.993 49.9851 19.1479 50.253C19.3028 50.521 19.5578 50.7164 19.8568 50.7963C20.6418 51.006 21.4451 51.1796 22.2443 51.313C22.3954 51.3382 22.55 51.3334 22.6993 51.2988C22.8485 51.2643 22.9895 51.2007 23.1142 51.1117C23.2389 51.0226 23.3448 50.9099 23.4259 50.78C23.507 50.65 23.5618 50.5053 23.587 50.3542C23.6122 50.2031 23.6074 50.0485 23.5728 49.8992C23.5383 49.75 23.4747 49.609 23.3857 49.4843C23.2966 49.3596 23.1839 49.2537 23.054 49.1726C22.924 49.0914 22.7793 49.0367 22.6282 49.0115V49.0118Z" fill="#EBEBEB"/>
<path d="M51.0212 25.4378C50.7119 25.4303 50.4122 25.5459 50.1881 25.7592C49.964 25.9725 49.8338 26.2661 49.826 26.5753C49.8072 27.3131 49.7537 28.0581 49.6659 28.7907C49.6293 29.098 49.7163 29.4072 49.9076 29.6504C50.0989 29.8936 50.3789 30.051 50.6862 30.0878C50.7327 30.093 50.7794 30.0957 50.8263 30.0958C51.1114 30.0954 51.3866 29.9905 51.5997 29.8011C51.8129 29.6117 51.9493 29.3508 51.9832 29.0677C52.0789 28.2628 52.1382 27.4441 52.1582 26.6335C52.1621 26.4803 52.1358 26.3279 52.0808 26.1849C52.0257 26.0419 51.943 25.9111 51.8375 25.8001C51.7319 25.6891 51.6054 25.5999 51.4654 25.5378C51.3253 25.4756 51.1744 25.4416 51.0212 25.4378Z" fill="#EBEBEB"/>
<path d="M47.44 38.7832C47.184 38.6097 46.8696 38.5448 46.5657 38.6027C46.2619 38.6607 45.9935 38.8369 45.8193 39.0925C45.4046 39.7026 44.9563 40.3002 44.4857 40.8681C44.3857 40.9858 44.31 41.1222 44.2631 41.2693C44.2162 41.4165 44.199 41.5715 44.2125 41.7253C44.2259 41.8792 44.2698 42.0288 44.3416 42.1656C44.4134 42.3024 44.5116 42.4235 44.6306 42.522C44.7495 42.6205 44.8869 42.6944 45.0346 42.7394C45.1824 42.7844 45.3376 42.7996 45.4913 42.7841C45.6449 42.7686 45.794 42.7227 45.9298 42.6492C46.0656 42.5756 46.1855 42.4759 46.2824 42.3556C46.7997 41.7313 47.2936 41.0744 47.7492 40.4034C47.8353 40.2767 47.8956 40.1343 47.9267 39.9843C47.9577 39.8343 47.9589 39.6797 47.9302 39.5293C47.9015 39.3788 47.8434 39.2355 47.7593 39.1075C47.6752 38.9795 47.5667 38.8693 47.44 38.7832Z" fill="#EBEBEB"/>
<path d="M49.0479 19.9816C49.237 20.6919 49.3943 21.4217 49.5156 22.1508C49.5608 22.4231 49.7011 22.6707 49.9115 22.8493C50.122 23.028 50.389 23.1262 50.6651 23.1266C50.7294 23.1265 50.7936 23.1212 50.857 23.1107C51.0082 23.0856 51.153 23.031 51.283 22.95C51.4131 22.869 51.5259 22.7631 51.615 22.6385C51.7042 22.5138 51.7679 22.3728 51.8025 22.2236C51.8372 22.0743 51.842 21.9197 51.8169 21.7685C51.6841 20.9665 51.5107 20.1629 51.3028 19.3811C51.2232 19.0821 51.0281 18.827 50.7603 18.6718C50.4926 18.5167 50.1742 18.4743 49.8752 18.5539C49.5762 18.6336 49.3211 18.8287 49.166 19.0964C49.0109 19.3642 48.9685 19.6826 49.0481 19.9816H49.0479Z" fill="#EBEBEB"/>
<path d="M41.3471 44.0018C40.7768 44.4736 40.1793 44.9218 39.5715 45.3337C39.4447 45.4196 39.3361 45.5297 39.2519 45.6577C39.1676 45.7856 39.1094 45.9289 39.0805 46.0793C39.0516 46.2298 39.0526 46.3844 39.0835 46.5345C39.1144 46.6845 39.1746 46.827 39.2605 46.9538C39.3465 47.0806 39.4566 47.1892 39.5845 47.2735C39.7124 47.3577 39.8557 47.416 40.0062 47.4448C40.1566 47.4737 40.3113 47.4727 40.4613 47.4418C40.6113 47.4109 40.7538 47.3508 40.8806 47.2648C41.5495 46.8119 42.2063 46.3192 42.834 45.8008C43.0725 45.6037 43.223 45.3198 43.2523 45.0117C43.2815 44.7036 43.1872 44.3965 42.99 44.1579C42.7929 43.9193 42.509 43.7689 42.2009 43.7396C41.8928 43.7103 41.5857 43.8047 41.3471 44.0018Z" fill="#EBEBEB"/>
<path d="M50.1891 32.3673C49.8944 32.2737 49.5745 32.3008 49.2997 32.4427C49.025 32.5847 48.8177 32.8298 48.7235 33.1244C48.5001 33.8244 48.2393 34.5235 47.9481 35.203C47.8845 35.3443 47.8496 35.4969 47.8456 35.6518C47.8416 35.8067 47.8685 35.9608 47.9247 36.1052C47.9809 36.2496 48.0653 36.3814 48.173 36.4928C48.2807 36.6042 48.4095 36.693 48.5519 36.7541C48.6943 36.8152 48.8475 36.8473 49.0024 36.8485C49.1574 36.8497 49.311 36.8201 49.4544 36.7613C49.5978 36.7025 49.728 36.6157 49.8374 36.506C49.9469 36.3963 50.0334 36.2659 50.0919 36.1224C50.4132 35.3744 50.7003 34.6038 50.9458 33.833C50.9924 33.6871 51.0098 33.5334 50.997 33.3808C50.9842 33.2281 50.9415 33.0795 50.8712 32.9433C50.8009 32.8072 50.7045 32.6863 50.5875 32.5874C50.4704 32.4886 50.3351 32.4138 50.1891 32.3673Z" fill="#EBEBEB"/>
<path d="M35.6805 47.4575C35.0077 47.7457 34.3082 48.0061 33.6013 48.2317C33.4553 48.2782 33.32 48.353 33.2029 48.4518C33.0859 48.5507 32.9895 48.6716 32.9192 48.8077C32.8489 48.9438 32.806 49.0924 32.7932 49.2451C32.7803 49.3977 32.7976 49.5514 32.8442 49.6974C32.8907 49.8433 32.9655 49.9787 33.0644 50.0957C33.1632 50.2128 33.2841 50.3092 33.4202 50.3795C33.5563 50.4498 33.705 50.4926 33.8576 50.5055C34.0103 50.5183 34.164 50.501 34.3099 50.4545C35.0875 50.2066 35.8577 49.9202 36.5988 49.6029C36.8833 49.481 37.1077 49.2512 37.2228 48.9639C37.3378 48.6766 37.334 48.3553 37.2121 48.0708C37.0903 47.7863 36.8604 47.5619 36.5731 47.4469C36.2858 47.3318 35.9645 47.3357 35.6801 47.4575H35.6805Z" fill="#EBEBEB"/>
<path d="M16.6337 23.6164C16.6337 21.7043 15.3764 20.1722 13.4305 19.7128C12.3615 19.4596 11.2383 19.5763 10.2441 20.0437C9.24995 20.5111 8.44359 21.3018 7.95665 22.2865C7.8203 22.5631 7.79895 22.8823 7.89727 23.1746C7.99558 23.4668 8.20556 23.7082 8.48134 23.8461C8.75711 23.984 9.07625 24.0072 9.36903 23.9105C9.66181 23.8138 9.90442 23.6052 10.0439 23.3302C10.2929 22.8132 10.7119 22.3975 11.2308 22.1524C11.7496 21.9073 12.3369 21.8478 12.8944 21.9838C13.2243 22.0615 14.3003 22.4096 14.3003 23.6164C14.3003 24.8332 12.8949 25.7718 11.407 26.7655C9.73159 27.8838 7.8335 29.1512 7.8335 31.2499C7.8335 31.5593 7.95642 31.8561 8.17522 32.0749C8.39401 32.2937 8.69077 32.4166 9.0002 32.4166H15.467C15.6212 32.4181 15.7741 32.389 15.9169 32.3311C16.0598 32.2731 16.1897 32.1874 16.2993 32.0789C16.4088 31.9705 16.4958 31.8413 16.5551 31.6991C16.6144 31.5568 16.645 31.4041 16.645 31.25C16.645 31.0958 16.6144 30.9432 16.5551 30.8009C16.4958 30.6586 16.4088 30.5295 16.2993 30.421C16.1897 30.3125 16.0598 30.2268 15.9169 30.1689C15.7741 30.1109 15.6212 30.0818 15.467 30.0833H10.8448C11.3336 29.6202 12.0245 29.1588 12.7024 28.7059C14.5455 27.4754 16.6337 26.0809 16.6337 23.6164Z" fill="#EBEBEB"/>
<path d="M27.6669 27.4589C27.6669 27.1495 27.5439 26.8528 27.3251 26.634C27.1063 26.4152 26.8096 26.2923 26.5002 26.2923H25.5522V20.0943C25.5522 19.8527 25.4771 19.6171 25.3374 19.4199C25.1977 19.2228 25.0003 19.0739 24.7723 18.9937C24.5444 18.9136 24.2972 18.9063 24.0648 18.9726C23.8325 19.039 23.6265 19.1759 23.4753 19.3644L17.5691 26.7292C17.4317 26.9008 17.3455 27.1077 17.3205 27.3261C17.2956 27.5445 17.3328 27.7655 17.4279 27.9637C17.523 28.1618 17.6722 28.3291 17.8582 28.4462C18.0443 28.5633 18.2596 28.6255 18.4794 28.6256H23.2189V31.9068C23.2174 32.061 23.2465 32.2139 23.3045 32.3568C23.3624 32.4996 23.4481 32.6296 23.5566 32.7391C23.6651 32.8487 23.7942 32.9356 23.9365 32.995C24.0788 33.0543 24.2314 33.0848 24.3856 33.0848C24.5397 33.0848 24.6924 33.0543 24.8347 32.995C24.977 32.9356 25.1061 32.8487 25.2145 32.7391C25.323 32.6296 25.4087 32.4996 25.4667 32.3568C25.5246 32.2139 25.5537 32.061 25.5522 31.9068V28.6256H26.5002C26.8096 28.6256 27.1064 28.5027 27.3252 28.2839C27.544 28.0651 27.6669 27.7683 27.6669 27.4589ZM23.2189 26.2923H20.9111L23.2189 23.4138V26.2923Z" fill="#EBEBEB"/>
<path d="M33.6378 18.2946C33.4875 18.2642 33.3327 18.2638 33.1823 18.2934C33.0319 18.323 32.8888 18.382 32.7613 18.467C32.6337 18.552 32.5242 18.6614 32.439 18.7889C32.3538 18.9163 32.2947 19.0593 32.2649 19.2097L29.6399 32.3347C29.5792 32.6381 29.6414 32.9532 29.813 33.2106C29.9846 33.4681 30.2514 33.6468 30.5548 33.7076C30.6304 33.7226 30.7074 33.7303 30.7845 33.7303C31.054 33.73 31.315 33.6365 31.5233 33.4656C31.7316 33.2946 31.8743 33.0569 31.9272 32.7927L34.5522 19.6676C34.5824 19.5174 34.5827 19.3628 34.553 19.2124C34.5234 19.0621 34.4644 18.9191 34.3795 18.7916C34.2946 18.6641 34.1854 18.5546 34.0581 18.4693C33.9308 18.384 33.788 18.3246 33.6378 18.2946Z" fill="#EBEBEB"/>
<path d="M39.6246 32.4179C39.855 32.4178 40.0802 32.3495 40.2719 32.2217C40.4636 32.0939 40.6131 31.9122 40.7018 31.6996L45.0768 21.1996C45.1508 21.0223 45.1799 20.8295 45.1614 20.6383C45.1429 20.4471 45.0775 20.2634 44.971 20.1035C44.8645 19.9437 44.7201 19.8126 44.5508 19.722C44.3814 19.6313 44.1922 19.5839 44.0001 19.584H38.0939C37.7864 19.587 37.4926 19.7112 37.2762 19.9297C37.0599 20.1481 36.9385 20.4432 36.9385 20.7506C36.9385 21.0581 37.0599 21.3531 37.2762 21.5716C37.4926 21.7901 37.7864 21.9143 38.0939 21.9173H42.2501L38.5485 30.8023C38.4748 30.9795 38.446 31.1722 38.4646 31.3633C38.4832 31.5544 38.5486 31.7379 38.655 31.8977C38.7614 32.0575 38.9055 32.1886 39.0746 32.2794C39.2437 32.3702 39.4326 32.4179 39.6246 32.4184V32.4179Z" fill="#EBEBEB"/>
</svg>
