<svg width="56" height="56" viewBox="0 0 56 56" fill="none" xmlns="http://www.w3.org/2000/svg">
<g clip-path="url(#clip0_96_2581)">
<path d="M28.0003 8.74993C22.5456 8.74993 20.5864 6.94918 20.3817 6.74355C20.2593 6.62118 20.176 6.46529 20.1423 6.29558C20.1085 6.12587 20.1259 5.94997 20.1921 5.7901C20.2583 5.63024 20.3704 5.4936 20.5143 5.39745C20.6581 5.3013 20.8273 5.24996 21.0003 5.24993C24.7733 5.24993 27.1944 0.530178 27.2181 0.482928C27.299 0.347723 27.4136 0.235809 27.5507 0.158103C27.6878 0.0803961 27.8427 0.0395508 28.0003 0.0395508C28.1579 0.0395508 28.3128 0.0803961 28.4499 0.158103C28.587 0.235809 28.7016 0.347723 28.7826 0.482928C28.8062 0.530178 31.2264 5.24993 35.0003 5.24993C35.1733 5.24996 35.3425 5.3013 35.4863 5.39745C35.6302 5.4936 35.7423 5.63024 35.8085 5.7901C35.8747 5.94997 35.8921 6.12587 35.8583 6.29558C35.8246 6.46529 35.7413 6.62118 35.6189 6.74355C35.4142 6.94918 33.4551 8.74993 28.0003 8.74993ZM23.6166 6.44693C25.0436 6.84102 26.5201 7.02727 28.0003 6.99993C29.4803 7.02755 30.9565 6.8413 32.3832 6.44693C30.5957 5.57526 29.0802 4.23192 28.0003 2.56193C26.9206 4.23236 25.4047 5.5758 23.6166 6.44693Z" fill="#AE8646"/>
<path d="M21.8753 14.0001C17.7917 14.0001 16.7128 10.9087 16.6708 10.7766C16.627 10.6451 16.6151 10.5051 16.636 10.3681C16.6569 10.2312 16.71 10.1011 16.791 9.98866C16.872 9.87622 16.9785 9.78463 17.1019 9.72143C17.2252 9.65822 17.3617 9.6252 17.5003 9.6251C20.5103 9.6251 22.9026 6.50572 22.9253 6.4751L24.3253 7.5251C22.9725 9.27316 21.1097 10.5574 18.9948 11.2001C19.38 11.5594 19.8335 11.8375 20.3283 12.0179C20.8232 12.1983 21.3493 12.2772 21.8753 12.2501V14.0001Z" fill="#AE8646"/>
<path d="M34.1253 14.0001V12.2501C34.6525 12.2787 35.1801 12.2004 35.6763 12.0199C36.1725 11.8395 36.6271 11.5606 37.0128 11.2001C34.8951 10.5592 33.0296 9.27473 31.6753 7.5251L33.0753 6.4751C33.0989 6.50747 35.4912 9.6251 38.5003 9.6251C38.6389 9.6252 38.7754 9.65822 38.8988 9.72143C39.0221 9.78463 39.1286 9.87622 39.2096 9.98866C39.2906 10.1011 39.3437 10.2312 39.3646 10.3681C39.3855 10.5051 39.3736 10.6451 39.3298 10.7766C39.2878 10.9087 38.2089 14.0001 34.1253 14.0001Z" fill="#AE8646"/>
<path d="M35.0003 18.375C34.1688 18.3662 33.3522 18.1528 32.6228 17.7536C31.8933 17.3544 31.2734 16.7816 30.8178 16.086C30.2176 17.3635 29.2481 18.375 28.0003 18.375C26.7526 18.375 25.7831 17.3635 25.1828 16.086C24.7272 16.7816 24.1073 17.3544 23.3778 17.7536C22.6484 18.1528 21.8318 18.3662 21.0003 18.375C19.1461 18.3409 17.369 17.6269 16.0067 16.3686C15.8843 16.2463 15.801 16.0904 15.7673 15.9207C15.7335 15.7509 15.7509 15.575 15.8171 15.4152C15.8833 15.2553 15.9954 15.1187 16.1393 15.0225C16.2831 14.9264 16.4523 14.875 16.6253 14.875C19.6589 14.875 22.9104 10.8684 22.9428 10.8281L24.3087 11.9219C22.8384 13.7293 20.978 15.1804 18.8671 16.1665C19.5393 16.4637 20.2653 16.6197 21.0003 16.625C23.4249 16.625 24.5003 14.0875 24.5003 13.125C24.5003 12.8929 24.5925 12.6704 24.7566 12.5063C24.9207 12.3422 25.1432 12.25 25.3753 12.25C25.6074 12.25 25.8299 12.3422 25.994 12.5063C26.1581 12.6704 26.2503 12.8929 26.2503 13.125C26.2503 14.8146 27.2776 16.625 28.0003 16.625C28.7231 16.625 29.7503 14.8146 29.7503 13.125C29.7503 12.8929 29.8425 12.6704 30.0066 12.5063C30.1707 12.3422 30.3932 12.25 30.6253 12.25C30.8574 12.25 31.0799 12.3422 31.244 12.5063C31.4081 12.6704 31.5003 12.8929 31.5003 13.125C31.5003 14.0875 32.5757 16.625 35.0003 16.625C35.7368 16.6211 36.4647 16.466 37.1388 16.1691C35.0256 15.1831 33.1633 13.731 31.6919 11.9219L33.0578 10.8281C33.0902 10.8684 36.3417 14.875 39.3753 14.875C39.5483 14.875 39.7175 14.9264 39.8613 15.0225C40.0052 15.1187 40.1173 15.2553 40.1835 15.4152C40.2497 15.575 40.2671 15.7509 40.2333 15.9207C40.1996 16.0904 40.1163 16.2463 39.9939 16.3686C38.6316 17.6269 36.8545 18.3409 35.0003 18.375Z" fill="#AE8646"/>
<path d="M37.6252 26.2501C36.467 26.2396 35.3282 25.9521 34.3039 25.4116C33.2796 24.871 32.3995 24.0931 31.7373 23.1429C30.9831 24.8886 29.6242 26.2501 28.0002 26.2501C26.3762 26.2501 25.0173 24.8886 24.2631 23.1429C23.6008 24.0931 22.7208 24.871 21.6965 25.4116C20.6722 25.9521 19.5333 26.2396 18.3752 26.2501C17.2168 26.2398 16.0763 25.9638 15.0414 25.4434C14.0065 24.9229 13.1048 24.1718 12.4059 23.2479C12.3151 23.1167 12.2619 22.9631 12.2521 22.8037C12.2423 22.6444 12.2763 22.4854 12.3504 22.344C12.4245 22.2026 12.5358 22.0842 12.6724 22.0015C12.809 21.9188 12.9656 21.8751 13.1252 21.8751C17.1554 21.8751 20.2293 17.0818 20.2599 17.0337L21.7413 17.9656C21.6144 18.1668 18.9737 22.3021 14.9942 23.3731C15.9693 24.1052 17.1558 24.5007 18.3752 24.5001C21.7877 24.5001 23.6252 21.3947 23.6252 20.1251C23.6252 19.893 23.7174 19.6704 23.8815 19.5063C24.0456 19.3423 24.2681 19.2501 24.5002 19.2501C24.7323 19.2501 24.9548 19.3423 25.1189 19.5063C25.283 19.6704 25.3752 19.893 25.3752 20.1251C25.3752 22.2513 26.7244 24.5001 28.0002 24.5001C29.2759 24.5001 30.6252 22.2513 30.6252 20.1251C30.6252 19.893 30.7174 19.6704 30.8815 19.5063C31.0456 19.3423 31.2681 19.2501 31.5002 19.2501C31.7323 19.2501 31.9548 19.3423 32.1189 19.5063C32.283 19.6704 32.3752 19.893 32.3752 20.1251C32.3752 21.3947 34.2127 24.5001 37.6252 24.5001C38.844 24.4991 40.0297 24.1031 41.0044 23.3713C39.1337 22.784 37.4505 21.7148 36.1237 20.2712L37.3784 19.0523C38.6297 20.3403 40.6002 21.8751 42.8752 21.8751C43.0348 21.8751 43.1914 21.9188 43.328 22.0015C43.4645 22.0842 43.5759 22.2026 43.65 22.344C43.724 22.4854 43.758 22.6444 43.7482 22.8037C43.7385 22.9631 43.6853 23.1167 43.5944 23.2479C42.8955 24.1718 41.9939 24.9229 40.959 25.4434C39.9241 25.9638 38.7836 26.2398 37.6252 26.2501Z" fill="#AE8646"/>
<path d="M39.3752 35C37.9547 34.9706 36.5691 34.5543 35.3676 33.7961C34.1661 33.0378 33.1941 31.9663 32.5563 30.6967C31.6524 33.0548 29.954 35 28.0001 35C26.0463 35 24.3479 33.0548 23.444 30.6967C22.8062 31.9663 21.8342 33.0378 20.6327 33.7961C19.4312 34.5543 18.0456 34.9706 16.6251 35C12.013 35 9.06077 31.325 8.93827 31.1666C8.8366 31.0376 8.77329 30.8826 8.75559 30.7193C8.73788 30.556 8.7665 30.391 8.83816 30.2432C8.90982 30.0954 9.02163 29.9708 9.16081 29.8835C9.29998 29.7963 9.4609 29.75 9.62515 29.75C12.0466 29.6833 14.3431 28.6605 16.0126 26.9053L17.2376 28.1496C15.6954 29.7265 13.7289 30.8223 11.5764 31.304C12.9901 32.5061 14.7703 33.1923 16.6251 33.25C20.8671 33.25 22.7501 28.812 22.7501 27.125C22.7501 26.8929 22.8423 26.6703 23.0064 26.5062C23.1705 26.3421 23.3931 26.25 23.6251 26.25C23.8572 26.25 24.0798 26.3421 24.2439 26.5062C24.408 26.6703 24.5001 26.8929 24.5001 27.125C24.5001 29.9302 26.3971 33.25 28.0001 33.25C29.6031 33.25 31.5001 29.9302 31.5001 27.125C31.5001 26.8929 31.5923 26.6703 31.7564 26.5062C31.9205 26.3421 32.1431 26.25 32.3751 26.25C32.6072 26.25 32.8298 26.3421 32.9939 26.5062C33.158 26.6703 33.2501 26.8929 33.2501 27.125C33.2501 28.812 35.1332 33.25 39.3752 33.25C41.2281 33.1923 43.0065 32.5068 44.4187 31.3057C39.5887 30.3336 36.9925 26.0251 36.8718 25.8195L38.3777 24.9287C38.4074 24.9768 41.3054 29.75 46.3752 29.75C46.5394 29.75 46.7003 29.7963 46.8395 29.8835C46.9787 29.9708 47.0905 30.0954 47.1621 30.2432C47.2338 30.391 47.2624 30.556 47.2447 30.7193C47.227 30.8826 47.1637 31.0376 47.062 31.1666C46.9395 31.325 43.9873 35 39.3752 35Z" fill="#AE8646"/>
<path d="M48.125 40.25C38.2515 40.25 35.3745 37.4868 35.2563 37.3686L36.4813 36.1209C36.5041 36.1419 38.5656 37.9943 45.297 38.4151C43.6282 37.1155 42.2396 35.4916 41.2151 33.6411L42.7814 32.8589C44.3931 36.0833 48.5327 38.5998 48.5739 38.6251C48.7376 38.7236 48.8647 38.873 48.9356 39.0505C49.0064 39.228 49.0173 39.4238 48.9664 39.608C48.9155 39.7922 48.8057 39.9547 48.6537 40.0706C48.5018 40.1866 48.3161 40.2496 48.125 40.25Z" fill="#AE8646"/>
<path d="M38.5 42C32.0075 42 29.197 40.0356 28 38.549C26.803 40.0356 23.9925 42 17.5 42C17.3164 42 17.1374 41.9422 16.9884 41.8348C16.8394 41.7275 16.728 41.5759 16.6699 41.4017C16.6118 41.2275 16.61 41.0394 16.6648 40.8641C16.7196 40.6888 16.8281 40.5352 16.975 40.425C17.1001 40.3288 20.125 37.9444 20.125 32.375H21.875C21.9503 35.1558 21.1368 37.8881 19.5528 40.1748C26.3104 39.6498 27.1381 36.5951 27.1451 36.5619C27.1875 36.3638 27.2986 36.1872 27.4588 36.0632C27.6189 35.9393 27.8178 35.876 28.0201 35.8846C28.2185 35.8868 28.4101 35.9568 28.5631 36.0831C28.7161 36.2093 28.8212 36.3842 28.861 36.5785C28.8663 36.5969 29.6931 39.6524 36.4508 40.1748C34.8654 37.8885 34.0507 35.1561 34.125 32.375H35.875C35.875 37.9978 38.9935 40.4014 39.025 40.425C39.1719 40.5352 39.2804 40.6888 39.3352 40.8641C39.39 41.0394 39.3882 41.2275 39.3301 41.4017C39.272 41.5759 39.1606 41.7275 39.0116 41.8348C38.8626 41.9422 38.6836 42 38.5 42Z" fill="#AE8646"/>
<path d="M7.87521 40.25C7.68395 40.2499 7.49798 40.1872 7.34575 40.0714C7.19352 39.9556 7.08343 39.7932 7.03231 39.6088C6.9812 39.4245 6.99188 39.2286 7.06273 39.0509C7.13357 38.8732 7.26067 38.7237 7.42459 38.6251C7.46571 38.5998 11.6053 36.0833 13.2171 32.8589L14.7833 33.6411C13.7581 35.4906 12.3693 37.1136 10.7006 38.4125C17.4425 37.9943 19.4856 36.1489 19.5066 36.1279L20.7438 37.3651C20.6257 37.4868 17.7487 40.25 7.87521 40.25Z" fill="#AE8646"/>
<path d="M30.625 56H25.375C24.6788 56 24.0111 55.7235 23.5188 55.2312C23.0266 54.7389 22.75 54.0712 22.75 53.375V51.7414C22.75 51.6244 22.7576 51.5075 22.7727 51.3914L24.1334 41.874L25.8667 42.1216L24.507 51.6338C24.5022 51.6694 24.4999 51.7054 24.5 51.7414V53.375C24.5 53.6071 24.5922 53.8297 24.7563 53.9937C24.9204 54.1578 25.1429 54.25 25.375 54.25H30.625C30.8571 54.25 31.0796 54.1578 31.2437 53.9937C31.4078 53.8297 31.5 53.6071 31.5 53.375V51.7414C31.5 51.7025 31.4974 51.6636 31.4921 51.625L30.1332 42.1243L31.8666 41.8767L33.2264 51.3862C33.2419 51.5039 33.2498 51.6226 33.25 51.7414V53.375C33.25 53.7197 33.1821 54.0611 33.0502 54.3796C32.9183 54.698 32.7249 54.9874 32.4812 55.2312C32.2374 55.4749 31.948 55.6683 31.6295 55.8002C31.3111 55.9321 30.9697 56 30.625 56Z" fill="#AE8646"/>
</g>
<defs>
<clipPath id="clip0_96_2581">
<rect width="56" height="56" fill="white"/>
</clipPath>
</defs>
</svg>
