<svg width="32" height="32" viewBox="0 0 32 32" fill="none" xmlns="http://www.w3.org/2000/svg">
<g clip-path="url(#clip0_128_4989)">
<path d="M16.6513 6.77539C12.1931 6.77539 8.56754 10.4006 8.56592 14.8568C8.56527 16.3841 8.99259 17.8711 9.80148 19.1579L9.99356 19.4636L9.17721 22.4461L12.2359 21.6437L12.5312 21.8189C13.772 22.5554 15.1944 22.9448 16.6448 22.9454H16.648C21.1026 22.9454 24.7282 19.3198 24.7301 14.8633C24.7311 12.7037 23.891 10.6732 22.3651 9.1456C20.8391 7.6177 18.8099 6.77604 16.6513 6.77539ZM21.4053 18.3315C21.2028 18.899 20.232 19.4172 19.7655 19.4866C19.3469 19.5492 18.8171 19.5752 18.2353 19.3903C17.8826 19.2783 17.43 19.1287 16.8502 18.8786C14.4124 17.8263 12.8206 15.3721 12.6993 15.2102C12.5779 15.0479 11.7071 13.8928 11.7071 12.6969C11.7071 11.5009 12.3346 10.9133 12.5575 10.6699C12.7801 10.4266 13.0435 10.3659 13.2054 10.3659C13.3673 10.3659 13.5296 10.3675 13.671 10.3744C13.8203 10.3818 14.0205 10.3179 14.2178 10.7913C14.4202 11.278 14.9063 12.4736 14.967 12.5953C15.0276 12.717 15.0682 12.8588 14.9871 13.021C14.906 13.1829 14.8657 13.2845 14.7441 13.4263C14.6224 13.5681 14.489 13.7429 14.3797 13.852C14.258 13.973 14.1315 14.1047 14.2733 14.3477C14.415 14.5911 14.9027 15.3867 15.625 16.0307C16.5529 16.8585 17.3359 17.1151 17.5789 17.2368C17.8219 17.3585 17.9637 17.338 18.1052 17.1761C18.247 17.0139 18.7126 16.4665 18.8745 16.2235C19.0364 15.9805 19.1983 16.0207 19.4212 16.1018C19.6438 16.1829 20.8385 16.7705 21.0815 16.8922C21.3245 17.0139 21.4864 17.0745 21.5471 17.1761C21.6078 17.2773 21.6078 17.764 21.4053 18.3315Z" fill="#EBEBEB"/>
<path d="M16 0C7.16353 0 0 7.16353 0 16C0 24.8365 7.16353 32 16 32C24.8365 32 32 24.8365 32 16C32 7.16353 24.8365 0 16 0ZM16.6483 24.5876C16.648 24.5876 16.6486 24.5876 16.6483 24.5876H16.6444C15.0169 24.587 13.4179 24.1788 11.9977 23.404L6.84296 24.7563L8.22258 19.7174C7.37151 18.2427 6.92375 16.5698 6.92472 14.8563C6.92635 9.49481 11.2888 5.13303 16.6483 5.13303C19.2495 5.134 21.6911 6.14666 23.5269 7.98475C25.3628 9.82252 26.3735 12.2657 26.3722 14.864C26.3699 20.2255 22.0075 24.5876 16.6483 24.5876Z" fill="#EBEBEB"/>
</g>
<defs>
<clipPath id="clip0_128_4989">
<rect width="32" height="32" fill="white"/>
</clipPath>
</defs>
</svg>
