<svg width="86" height="64" viewBox="0 0 86 64" fill="none" xmlns="http://www.w3.org/2000/svg">
<path d="M10.5241 36.2214C10.1331 35.9368 9.6442 35.7471 9.15534 35.6522C8.66649 35.4625 8.17763 35.4625 7.68877 35.4625C7.39546 35.4625 7.10215 35.4625 6.80883 35.5574C6.51552 35.6522 6.31997 35.7471 6.12443 35.8419C5.92889 35.9368 5.73335 36.1265 5.63558 36.3162C5.5378 36.506 5.44003 36.6957 5.44003 36.8854C5.44003 37.0751 5.44003 37.2649 5.5378 37.3597C5.63558 37.4546 5.73335 37.6443 5.92889 37.7392C6.12443 37.834 6.31997 37.9289 6.61329 38.0238C6.9066 38.1186 7.19992 38.1186 7.49323 38.2135L8.17763 38.3083C8.56872 38.4032 8.9598 38.4032 9.35089 38.5929C9.74197 38.6878 10.0353 38.8775 10.3286 39.0672C10.6219 39.2569 10.9152 39.5415 11.013 39.8261C11.2085 40.1107 11.3063 40.4901 11.3063 40.9645C11.3063 41.4388 11.2085 41.9131 11.013 42.2925C10.8175 42.672 10.5241 42.9565 10.1331 43.2411C9.74197 43.5257 9.35089 43.7154 8.86203 43.8103C8.37317 43.9052 7.88432 44 7.29769 44C7.00438 44 6.61329 44 6.2222 43.9052C5.83112 43.8103 5.5378 43.8103 5.14672 43.6206C4.75563 43.5257 4.46232 43.336 4.169 43.2411C3.87569 43.0514 3.58238 42.8617 3.28906 42.672L4.169 41.4388C4.36455 41.6285 4.56009 41.7233 4.75563 41.8182C4.95118 41.9131 5.24449 42.1028 5.5378 42.1976C5.83112 42.2925 6.12443 42.3874 6.41775 42.3874C6.71106 42.4822 7.00438 42.4822 7.29769 42.4822C7.591 42.4822 7.88432 42.4822 8.17763 42.3874C8.47095 42.2925 8.66649 42.1976 8.86203 42.1028C9.05757 42.0079 9.25312 41.8182 9.35089 41.6285C9.44866 41.4388 9.54643 41.249 9.54643 41.0593C9.54643 40.6799 9.35089 40.3953 8.9598 40.2056C8.56872 40.0158 7.98209 39.8261 7.29769 39.7313L6.80883 39.6364C6.41775 39.5415 6.12443 39.5415 5.73335 39.3518C5.34226 39.2569 5.04895 39.0672 4.75563 38.8775C4.46232 38.6878 4.26678 38.4032 4.07123 38.1186C3.87569 37.834 3.77792 37.4546 3.77792 36.9803C3.77792 36.506 3.87569 36.0317 4.07123 35.7471C4.26678 35.3676 4.56009 35.0831 4.95118 34.7985C5.34226 34.5139 5.73335 34.3242 6.2222 34.2293C6.71106 34.1344 7.19992 34.0396 7.68877 34.0396C8.37317 34.0396 9.05757 34.1344 9.6442 34.3242C10.2308 34.5139 10.7197 34.7985 11.3063 35.0831L10.5241 36.2214ZM15.9993 36.9803C16.4882 36.9803 16.8793 37.0751 17.2704 37.2649C17.6615 37.4546 17.9548 37.6443 18.2481 37.9289C18.5414 38.2135 18.7369 38.5929 18.9325 38.9724C19.128 39.3518 19.128 39.8261 19.128 40.3953C19.128 40.4901 19.128 40.585 19.128 40.6799C19.128 40.7747 19.128 40.8696 19.128 40.9645H14.1417C14.1417 41.249 14.2395 41.5336 14.435 41.7233C14.5328 41.9131 14.7283 42.1028 14.9239 42.1976C15.1194 42.2925 15.3149 42.3874 15.5105 42.4822C15.706 42.5771 15.9993 42.5771 16.1949 42.5771C16.4882 42.5771 16.8793 42.4822 17.1726 42.3874C17.4659 42.2925 17.857 42.1028 18.1503 41.9131L18.9325 42.9565C18.5414 43.336 18.0525 43.5257 17.6615 43.7154C17.1726 43.8103 16.6837 43.9052 16.1949 43.9052C15.706 43.9052 15.2172 43.8103 14.8261 43.6206C14.435 43.4308 14.0439 43.2411 13.7506 42.9565C13.4573 42.672 13.164 42.2925 13.0662 41.9131C12.8707 41.5336 12.7729 41.0593 12.7729 40.4901C12.7729 40.0158 12.8707 39.5415 13.0662 39.0672C13.2617 38.6878 13.4573 38.3083 13.7506 37.9289C14.0439 37.6443 14.435 37.3597 14.8261 37.2649C15.0216 37.0751 15.4127 36.9803 15.9993 36.9803ZM15.9016 38.3083C15.6083 38.3083 15.4127 38.3083 15.2172 38.4032C15.0216 38.4981 14.8261 38.5929 14.7283 38.7826C14.5328 38.9724 14.435 39.0672 14.3372 39.2569C14.2395 39.4467 14.1417 39.6364 14.1417 39.921H17.6615C17.5637 39.4467 17.3681 38.9724 17.0748 38.6878C16.7815 38.4032 16.3904 38.3083 15.9016 38.3083ZM23.7233 36.9803C24.2121 36.9803 24.701 37.0751 25.0921 37.2649C25.4832 37.4546 25.8743 37.7392 26.1676 38.0238L25.1899 38.9724C24.9943 38.7826 24.701 38.5929 24.4077 38.4981C24.1144 38.4032 23.8211 38.3083 23.5277 38.3083C23.2344 38.3083 22.9411 38.4032 22.7456 38.4981C22.4523 38.5929 22.2567 38.7826 22.1589 38.9724C21.9634 39.1621 21.8656 39.3518 21.7679 39.6364C21.6701 39.921 21.5723 40.2056 21.5723 40.4901C21.5723 40.7747 21.6701 41.0593 21.7679 41.3439C21.8656 41.6285 21.9634 41.8182 22.1589 42.0079C22.3545 42.1976 22.55 42.2925 22.7456 42.4822C22.9411 42.5771 23.2344 42.672 23.5277 42.672C23.8211 42.672 24.1144 42.5771 24.4077 42.4822C24.701 42.3874 24.8965 42.1976 25.1899 42.0079L26.0698 42.9565C25.7765 43.336 25.3854 43.5257 24.9943 43.7154C24.6032 43.9052 24.1144 44 23.6255 44C23.1367 44 22.6478 43.9052 22.1589 43.7154C21.7679 43.5257 21.3768 43.336 21.0835 42.9565C20.7901 42.672 20.4968 42.2925 20.3991 41.8182C20.2035 41.4388 20.1057 40.9645 20.1057 40.4901C20.1057 40.0158 20.2035 39.5415 20.3991 39.1621C20.5946 38.7826 20.7901 38.4032 21.0835 38.0238C21.3768 37.7392 21.7679 37.4546 22.1589 37.2649C22.7456 37.0751 23.2344 36.9803 23.7233 36.9803ZM33.8915 40.9645C33.8915 41.4388 33.7937 41.9131 33.5982 42.2925C33.4026 42.672 33.2071 42.9565 32.9138 43.2411C32.6205 43.5257 32.3272 43.6206 31.9361 43.8103C31.545 43.9052 31.1539 44 30.7628 44C30.3717 44 29.9806 43.9052 29.5896 43.8103C29.1985 43.7154 28.9052 43.5257 28.6119 43.2411C28.3185 43.0514 28.123 42.672 27.9275 42.2925C27.7319 41.9131 27.6341 41.4388 27.6341 40.9645V37.17H29.1007V40.7747C29.1007 41.0593 29.1007 41.3439 29.1985 41.5336C29.2962 41.7233 29.394 41.9131 29.5896 42.1028C29.7851 42.1976 29.8829 42.2925 30.0784 42.3874C30.274 42.4822 30.4695 42.4822 30.7628 42.4822C30.9584 42.4822 31.2517 42.4822 31.4472 42.3874C31.6428 42.2925 31.8383 42.1976 31.9361 42.1028C32.1316 42.0079 32.2294 41.8182 32.3272 41.5336C32.4249 41.3439 32.4249 41.0593 32.4249 40.7747V37.17H33.8915V40.9645ZM39.2689 36.9803C39.4645 36.9803 39.66 36.9803 39.8556 36.9803C40.0511 36.9803 40.2466 37.0751 40.3444 37.0751L39.9533 38.4981C39.7578 38.4032 39.66 38.4032 39.3667 38.3083C39.1712 38.3083 38.9756 38.2135 38.7801 38.2135C38.5845 38.2135 38.2912 38.2135 38.0957 38.3083C37.9001 38.4032 37.7046 38.4981 37.6068 38.6878C37.509 38.8775 37.3135 39.0672 37.3135 39.2569C37.2157 39.4467 37.2157 39.7313 37.2157 40.0158V43.6206H35.7492V37.0751H37.2157V37.834C37.4113 37.5494 37.7046 37.2649 38.0957 37.17C38.389 37.0751 38.7801 36.9803 39.2689 36.9803ZM44.1575 36.9803C44.6464 36.9803 45.0374 37.0751 45.4285 37.2649C45.8196 37.4546 46.1129 37.6443 46.4062 37.9289C46.6996 38.2135 46.8951 38.5929 47.0906 38.9724C47.2862 39.3518 47.2862 39.8261 47.2862 40.3953C47.2862 40.4901 47.2862 40.585 47.2862 40.6799C47.2862 40.7747 47.2862 40.8696 47.2862 40.9645H42.3976C42.3976 41.249 42.4954 41.5336 42.6909 41.7233C42.7887 41.9131 42.9842 42.1028 43.1798 42.1976C43.3753 42.2925 43.5709 42.3874 43.7664 42.4822C43.962 42.5771 44.2553 42.5771 44.4508 42.5771C44.7441 42.5771 45.1352 42.4822 45.4285 42.3874C45.7218 42.2925 46.1129 42.1028 46.4062 41.9131L47.0906 42.9565C46.6996 43.336 46.2107 43.5257 45.8196 43.7154C45.3308 43.8103 44.8419 43.9052 44.353 43.9052C43.8642 43.9052 43.3753 43.8103 42.9842 43.6206C42.5932 43.4308 42.2021 43.2411 41.9088 42.9565C41.6154 42.672 41.3221 42.2925 41.2244 41.9131C41.0288 41.5336 40.931 41.0593 40.931 40.4901C40.931 40.0158 41.0288 39.5415 41.2244 39.0672C41.4199 38.6878 41.6154 38.3083 41.9088 37.9289C42.2021 37.6443 42.5932 37.3597 42.9842 37.2649C43.1798 37.0751 43.6686 36.9803 44.1575 36.9803ZM44.1575 38.3083C43.8642 38.3083 43.6686 38.3083 43.4731 38.4032C43.2776 38.4981 43.082 38.5929 42.9842 38.7826C42.7887 38.9724 42.6909 39.0672 42.5932 39.2569C42.4954 39.4467 42.3976 39.6364 42.3976 39.921H45.9174C45.8196 39.4467 45.6241 38.9724 45.3308 38.6878C45.0374 38.4032 44.6464 38.3083 44.1575 38.3083ZM53.7391 33.9447C54.1302 33.9447 54.619 33.9447 55.0101 34.0396C55.4012 34.1344 55.7923 34.2293 56.1834 34.419C56.5745 34.6087 56.8678 34.7985 57.1611 35.0831C57.4544 35.3676 57.65 35.6522 57.8455 35.9368L56.4767 36.7906C56.1834 36.3162 55.7923 36.0317 55.3034 35.7471C54.8146 35.4625 54.3257 35.3676 53.7391 35.3676C53.2502 35.3676 52.7614 35.4625 52.3703 35.6522C51.9792 35.8419 51.5881 36.0317 51.2948 36.4111C51.0015 36.6957 50.7082 37.0751 50.6104 37.5494C50.4149 38.0238 50.3171 38.4032 50.3171 38.9724C50.3171 39.4467 50.4149 39.921 50.6104 40.3953C50.806 40.8696 51.0015 41.1542 51.2948 41.5336C51.5881 41.8182 51.9792 42.1028 52.3703 42.1976C52.7614 42.3874 53.2502 42.4822 53.7391 42.4822C54.3257 42.4822 54.8146 42.3874 55.3034 42.1028C55.7923 41.8182 56.1834 41.5336 56.4767 41.0593L57.7477 42.0079C57.5522 42.2925 57.2589 42.5771 56.9655 42.8617C56.6722 43.1463 56.3789 43.336 55.9878 43.4308C55.5968 43.6206 55.3034 43.7154 54.9123 43.8103C54.5213 43.9052 54.1302 43.9052 53.6413 43.9052C52.8591 43.9052 52.1748 43.8103 51.5881 43.5257C51.0015 43.2411 50.4149 42.9565 49.926 42.4822C49.4372 42.0079 49.1438 41.5336 48.8505 40.8696C48.5572 40.3004 48.4594 39.6364 48.4594 38.8775C48.4594 38.1186 48.5572 37.4546 48.8505 36.8854C49.1438 36.3162 49.4372 35.7471 49.926 35.2728C50.4149 34.7985 50.9037 34.5139 51.5881 34.2293C52.2725 34.1344 52.9569 33.9447 53.7391 33.9447ZM62.4407 36.9803C62.9296 36.9803 63.4185 37.0751 63.9073 37.2649C64.3962 37.4546 64.6895 37.6443 65.0806 38.0238C65.3739 38.3083 65.6672 38.6878 65.8627 39.1621C66.0583 39.5415 66.1561 40.0158 66.1561 40.4901C66.1561 40.9645 66.0583 41.4388 65.8627 41.8182C65.6672 42.1976 65.4717 42.5771 65.0806 42.9565C64.7873 43.2411 64.3962 43.5257 63.9073 43.7154C63.4185 43.9052 63.0274 44 62.4407 44C61.9519 44 61.463 43.9052 60.9742 43.7154C60.4853 43.5257 60.192 43.336 59.8009 42.9565C59.5076 42.672 59.2143 42.2925 59.0187 41.8182C58.8232 41.4388 58.7254 40.9645 58.7254 40.4901C58.7254 40.0158 58.8232 39.5415 59.0187 39.1621C59.2143 38.7826 59.4098 38.4032 59.8009 38.0238C60.0942 37.7392 60.4853 37.4546 60.9742 37.2649C61.463 37.0751 61.9519 36.9803 62.4407 36.9803ZM62.4407 38.3083C62.1474 38.3083 61.8541 38.4032 61.5608 38.4981C61.2675 38.5929 61.0719 38.7826 60.8764 38.9724C60.6809 39.1621 60.5831 39.3518 60.3875 39.6364C60.2898 39.921 60.192 40.2056 60.192 40.4901C60.192 40.7747 60.2898 41.0593 60.3875 41.3439C60.4853 41.6285 60.6809 41.8182 60.8764 42.0079C61.0719 42.1976 61.2675 42.2925 61.5608 42.4822C61.8541 42.5771 62.1474 42.672 62.4407 42.672C62.7341 42.672 63.0274 42.5771 63.3207 42.4822C63.614 42.3874 63.8095 42.1976 64.0051 42.0079C64.2006 41.8182 64.2984 41.6285 64.4939 41.3439C64.5917 41.0593 64.6895 40.7747 64.6895 40.4901C64.6895 40.2056 64.5917 39.921 64.4939 39.6364C64.3962 39.3518 64.2006 39.1621 64.0051 38.9724C63.8095 38.7826 63.614 38.6878 63.3207 38.4981C63.0274 38.4032 62.7341 38.3083 62.4407 38.3083ZM70.5558 36.9803C71.0446 36.9803 71.4357 37.0751 71.8268 37.2649C72.2179 37.4546 72.5112 37.6443 72.7067 37.9289V33.8499H74.1733V43.7154H72.7067V42.9565C72.5112 43.2411 72.2179 43.5257 71.8268 43.6206C71.4357 43.8103 71.0446 43.9052 70.5558 43.9052C70.0669 43.9052 69.6758 43.8103 69.187 43.6206C68.7959 43.4308 68.4048 43.2411 68.1115 42.8617C67.8182 42.5771 67.5249 42.1976 67.4271 41.7233C67.2315 41.3439 67.1338 40.8696 67.1338 40.3004C67.1338 39.8261 67.2315 39.3518 67.4271 38.8775C67.6226 38.4981 67.8182 38.1186 68.1115 37.7392C68.4048 37.4546 68.7959 37.17 69.187 36.9803C69.5781 37.0751 70.0669 36.9803 70.5558 36.9803ZM70.6535 38.3083C70.3602 38.3083 70.0669 38.4032 69.7736 38.4981C69.4803 38.5929 69.2847 38.7826 69.0892 38.9724C68.8937 39.1621 68.7959 39.3518 68.6981 39.6364C68.6003 39.921 68.6003 40.2056 68.6003 40.4901C68.6003 40.7747 68.6003 41.0593 68.6981 41.3439C68.7959 41.6285 68.8937 41.8182 69.0892 42.0079C69.2847 42.1976 69.4803 42.3874 69.7736 42.4822C70.0669 42.5771 70.2625 42.672 70.6535 42.672C70.9469 42.672 71.2402 42.5771 71.5335 42.4822C71.8268 42.3874 72.0223 42.1976 72.2179 42.0079C72.4134 41.8182 72.5112 41.6285 72.609 41.3439C72.7067 41.0593 72.8045 40.7747 72.8045 40.4901C72.8045 40.2056 72.7067 39.921 72.609 39.6364C72.5112 39.3518 72.4134 39.1621 72.2179 38.9724C72.0223 38.7826 71.8268 38.5929 71.5335 38.4981C71.2402 38.4032 71.0446 38.3083 70.6535 38.3083ZM79.0619 36.9803C79.5507 36.9803 79.9418 37.0751 80.3329 37.2649C80.724 37.4546 81.0173 37.6443 81.3106 37.9289C81.6039 38.2135 81.7995 38.5929 81.995 38.9724C82.1906 39.3518 82.1906 39.8261 82.1906 40.3953C82.1906 40.4901 82.1906 40.585 82.1906 40.6799C82.1906 40.7747 82.1906 40.8696 82.1906 40.9645H77.2042C77.2042 41.249 77.302 41.5336 77.4975 41.7233C77.5953 41.9131 77.7909 42.1028 77.9864 42.1976C78.1819 42.2925 78.3775 42.3874 78.573 42.4822C78.7686 42.5771 79.0619 42.5771 79.2574 42.5771C79.5507 42.5771 79.9418 42.4822 80.2351 42.3874C80.5285 42.2925 80.9195 42.1028 81.2128 41.9131L81.8972 42.9565C81.5062 43.336 81.0173 43.5257 80.6262 43.7154C80.1374 43.8103 79.6485 43.9052 79.1597 43.9052C78.6708 43.9052 78.1819 43.8103 77.7908 43.6206C77.3998 43.4308 77.0087 43.2411 76.7154 42.9565C76.4221 42.672 76.1287 42.2925 76.031 41.9131C75.8354 41.5336 75.7376 41.0593 75.7376 40.4901C75.7376 40.0158 75.8354 39.5415 76.031 39.0672C76.2265 38.6878 76.4221 38.3083 76.7154 37.9289C77.0087 37.6443 77.3998 37.3597 77.7908 37.2649C78.0842 37.0751 78.573 36.9803 79.0619 36.9803ZM78.9641 38.3083C78.6708 38.3083 78.4753 38.3083 78.2797 38.4032C78.0842 38.4981 77.8886 38.5929 77.7908 38.7826C77.5953 38.9724 77.4975 39.0672 77.3998 39.2569C77.302 39.4467 77.2042 39.6364 77.2042 39.921H80.724C80.6262 39.4467 80.4307 38.9724 80.1374 38.6878C79.844 38.4032 79.453 38.3083 78.9641 38.3083Z" fill="#F59E1F"/>
<path d="M15.4154 30.245H13.7532V22.0869L10.8201 29.2015H9.06021L6.0293 22.0869V30.1502H4.36719V20.2846H6.90924L9.84238 27.3992L12.7755 20.2846H15.3176V30.245H15.4154ZM24.117 30.245H22.5527V29.3913C22.3571 29.6759 21.966 29.9604 21.6727 30.1502C21.2816 30.3399 20.8906 30.4347 20.4017 30.4347C19.9128 30.4347 19.424 30.3399 19.0329 30.1502C18.6418 29.9604 18.2507 29.7707 17.9574 29.3913C17.6641 29.1067 17.3708 28.7272 17.1752 28.2529C16.9797 27.7786 16.8819 27.3043 16.8819 26.83C16.8819 26.3557 16.9797 25.7865 17.1752 25.4071C17.3708 24.9328 17.5663 24.5533 17.9574 24.2688C18.2507 23.9842 18.6418 23.6996 19.0329 23.5099C19.424 23.3201 19.9128 23.2253 20.4017 23.2253C20.8906 23.2253 21.3794 23.3201 21.6727 23.5099C22.0638 23.6996 22.3571 23.8893 22.5527 24.2688V23.415H24.117V30.245ZM20.5972 24.6482C20.3039 24.6482 20.0106 24.7431 19.7173 24.8379C19.424 24.9328 19.2284 25.1225 19.0329 25.3122C18.8374 25.502 18.7396 25.6917 18.6418 25.9763C18.544 26.2608 18.544 26.5454 18.544 26.83C18.544 27.1146 18.544 27.3992 18.6418 27.6838C18.7396 27.9683 18.8374 28.1581 19.0329 28.3478C19.2284 28.5375 19.424 28.7272 19.7173 28.8221C20.0106 28.917 20.3039 29.0118 20.5972 29.0118C20.8906 29.0118 21.1839 28.917 21.4772 28.8221C21.7705 28.7272 21.966 28.5375 22.1616 28.3478C22.3571 28.1581 22.4549 27.9683 22.5527 27.6838C22.6504 27.3992 22.7482 27.1146 22.7482 26.83C22.7482 26.5454 22.6504 26.2608 22.5527 25.9763C22.4549 25.6917 22.2593 25.502 22.1616 25.3122C21.966 25.1225 21.7705 24.9328 21.4772 24.8379C21.1839 24.6482 20.8906 24.6482 20.5972 24.6482ZM31.1565 25.1225C31.0588 25.0276 30.961 25.0276 30.7655 24.9328C30.5699 24.8379 30.4721 24.8379 30.2766 24.7431C30.0811 24.6482 29.8855 24.6482 29.69 24.6482C29.4944 24.6482 29.2989 24.5533 29.0056 24.5533C28.6145 24.5533 28.2234 24.6482 28.0279 24.7431C27.8323 24.9328 27.6368 25.1225 27.6368 25.3122C27.6368 25.4071 27.6368 25.502 27.7345 25.5968C27.8323 25.6917 27.8323 25.7865 28.0279 25.7865C28.1256 25.8814 28.2234 25.8814 28.4189 25.8814C28.5167 25.8814 28.7123 25.9763 28.9078 25.9763L29.5922 26.0711C30.3744 26.166 30.961 26.3557 31.3521 26.7352C31.7432 27.0197 32.0365 27.494 32.0365 28.0632C32.0365 28.3478 31.9387 28.7272 31.8409 28.917C31.7432 29.2015 31.4499 29.3913 31.2543 29.581C30.961 29.7707 30.6677 29.9604 30.2766 30.0553C29.8855 30.1502 29.3967 30.245 28.9078 30.245C28.7123 30.245 28.5167 30.245 28.3212 30.245C28.1256 30.245 27.8323 30.1502 27.539 30.1502C27.2457 30.0553 26.9524 29.9604 26.7568 29.8656C26.4635 29.7707 26.1702 29.581 25.9747 29.3913L26.6591 28.2529C26.7568 28.3478 26.9524 28.4427 27.0501 28.5375C27.2457 28.6324 27.3435 28.7272 27.539 28.7272C27.7345 28.8221 27.9301 28.8221 28.1256 28.917C28.3212 28.917 28.6145 29.0118 28.9078 29.0118C29.3967 29.0118 29.7877 28.917 30.0811 28.8221C30.3744 28.6324 30.4721 28.4427 30.4721 28.2529C30.4721 28.0632 30.3744 27.8735 30.1788 27.7786C29.9833 27.6838 29.69 27.5889 29.2989 27.494L28.6145 27.3992C27.8323 27.3043 27.2457 27.1146 26.8546 26.7352C26.4635 26.3557 26.268 25.9763 26.268 25.4071C26.268 25.0276 26.3657 24.7431 26.4635 24.4585C26.5613 24.1739 26.7568 23.9842 27.0501 23.7945C27.3435 23.6047 27.6368 23.5099 27.9301 23.3201C28.3212 23.2253 28.7123 23.1304 29.1033 23.1304C29.69 23.1304 30.1788 23.2253 30.6677 23.3201C31.1565 23.415 31.5476 23.6047 31.9387 23.8893L31.1565 25.1225ZM38.3916 24.7431H35.7518V27.6838C35.7518 27.8735 35.7518 28.0632 35.8496 28.2529C35.9473 28.4427 35.9473 28.5375 36.0451 28.6324C36.1429 28.7272 36.2407 28.8221 36.4362 28.8221C36.534 28.8221 36.7295 28.917 36.8273 28.917C37.0228 28.917 37.3161 28.917 37.5117 28.8221C37.805 28.7272 38.0005 28.6324 38.1961 28.5375L38.7827 29.6759C38.4894 29.8656 38.1961 30.0553 37.805 30.1502C37.4139 30.245 37.0228 30.3399 36.6317 30.3399C35.8496 30.3399 35.2629 30.1502 34.7741 29.6759C34.2852 29.2015 34.0897 28.5375 34.0897 27.6838V24.6482H32.7209V23.3201H34.0897V21.2332H35.654V23.3201H38.2939V24.7431H38.3916ZM43.0847 23.2253C43.5735 23.2253 44.0624 23.3201 44.4535 23.5099C44.8445 23.6996 45.2356 23.8893 45.5289 24.2688C45.8223 24.5533 46.0178 24.9328 46.2133 25.4071C46.4089 25.8814 46.5066 26.3557 46.5066 26.83C46.5066 26.9249 46.5066 27.0197 46.5066 27.1146C46.5066 27.2095 46.5066 27.3043 46.5066 27.3992H41.3248C41.3248 27.6838 41.4225 27.9683 41.6181 28.1581C41.7159 28.3478 41.9114 28.5375 42.1069 28.7272C42.3025 28.8221 42.498 29.0118 42.6936 29.0118C42.8891 29.1067 43.1824 29.1067 43.378 29.1067C43.7691 29.1067 44.0624 29.0118 44.4535 28.917C44.8445 28.8221 45.1379 28.6324 45.4312 28.3478L46.2133 29.3913C45.8223 29.7707 45.3334 29.9604 44.8445 30.1502C44.3557 30.245 43.8668 30.3399 43.2802 30.3399C42.7913 30.3399 42.3025 30.245 41.8136 30.0553C41.4225 29.8656 41.0315 29.6759 40.6404 29.2964C40.3471 29.0118 40.0537 28.6324 39.8582 28.1581C39.6627 27.6838 39.5649 27.2095 39.5649 26.7352C39.5649 26.166 39.6627 25.6917 39.8582 25.3122C40.0537 24.8379 40.2493 24.4585 40.5426 24.1739C40.8359 23.8893 41.227 23.6047 41.6181 23.415C42.1069 23.3201 42.5958 23.2253 43.0847 23.2253ZM43.0847 24.5533C42.7913 24.5533 42.5958 24.5533 42.4003 24.6482C42.2047 24.7431 42.0092 24.8379 41.8136 25.0276C41.6181 25.2174 41.5203 25.3122 41.4225 25.5968C41.3248 25.7865 41.227 26.0711 41.227 26.2608H44.8445C44.7468 25.6917 44.5512 25.3122 44.2579 25.0276C43.9646 24.6482 43.5735 24.5533 43.0847 24.5533ZM51.6885 23.2253C51.8841 23.2253 52.1774 23.2253 52.2752 23.2253C52.4707 23.2253 52.6662 23.3201 52.8618 23.415L52.4707 24.8379C52.2752 24.7431 52.0796 24.7431 51.8841 24.6482C51.6885 24.6482 51.493 24.5533 51.2974 24.5533C51.1019 24.5533 50.8086 24.5533 50.6131 24.6482C50.4175 24.7431 50.222 24.8379 50.1242 25.0276C50.0264 25.2174 49.8309 25.4071 49.7331 25.5968C49.6353 25.7865 49.6353 26.0711 49.6353 26.3557V30.0553H48.071V23.2253H49.5376V23.9842C49.7331 23.6996 50.0264 23.415 50.4175 23.2253C50.9064 23.3201 51.2975 23.2253 51.6885 23.2253ZM56.9682 23.2253C57.457 23.2253 57.9459 23.3201 58.4348 23.5099C58.9236 23.6996 59.3147 23.9842 59.608 24.3636L58.6303 25.4071C58.337 25.2174 58.1414 25.0276 57.8481 24.8379C57.5548 24.7431 57.2615 24.6482 56.9682 24.6482C56.6749 24.6482 56.3816 24.7431 56.186 24.8379C55.8927 24.9328 55.6972 25.1225 55.5016 25.3122C55.3061 25.502 55.2083 25.6917 55.1105 25.9763C55.0128 26.2608 54.915 26.5454 54.915 26.83C54.915 27.1146 55.0128 27.3992 55.1105 27.6838C55.2083 27.9683 55.4039 28.1581 55.5016 28.3478C55.6972 28.5375 55.8927 28.7272 56.186 28.8221C56.4793 28.917 56.6749 29.0118 56.9682 29.0118C57.2615 29.0118 57.6526 28.917 57.9459 28.8221C58.2392 28.7272 58.5325 28.5375 58.7281 28.3478L59.7058 29.3913C59.4125 29.7707 59.0214 30.0553 58.5325 30.245C58.0437 30.4347 57.5548 30.5296 57.066 30.5296C56.4793 30.5296 55.9905 30.4347 55.5994 30.245C55.1105 30.0553 54.7194 29.7707 54.4261 29.4861C54.1328 29.2015 53.8395 28.8221 53.644 28.3478C53.4484 27.8735 53.3506 27.3992 53.3506 26.9249C53.3506 26.4506 53.4484 25.9763 53.644 25.502C53.8395 25.0276 54.035 24.6482 54.4261 24.3636C54.7194 24.079 55.1105 23.7945 55.5994 23.6047C55.8927 23.3201 56.3816 23.2253 56.9682 23.2253ZM67.723 30.245H66.1587V29.3913C65.9632 29.6759 65.5721 29.9604 65.2788 30.1502C64.8877 30.3399 64.4966 30.4347 64.0077 30.4347C63.5189 30.4347 63.03 30.3399 62.6389 30.1502C62.2478 29.9604 61.8568 29.7707 61.5634 29.3913C61.2701 29.1067 60.9768 28.7272 60.7813 28.2529C60.5857 27.7786 60.488 27.3043 60.488 26.83C60.488 26.3557 60.5857 25.7865 60.7813 25.4071C60.9768 24.9328 61.1724 24.5533 61.5634 24.2688C61.8568 23.9842 62.2478 23.6996 62.6389 23.5099C63.03 23.3201 63.5189 23.2253 64.0077 23.2253C64.4966 23.2253 64.9854 23.3201 65.2788 23.5099C65.6698 23.6996 65.9632 23.8893 66.1587 24.2688V23.415H67.723V30.245ZM64.2033 24.6482C63.91 24.6482 63.6166 24.7431 63.3233 24.8379C63.03 24.9328 62.8345 25.1225 62.6389 25.3122C62.4434 25.502 62.3456 25.6917 62.2478 25.9763C62.1501 26.2608 62.1501 26.5454 62.1501 26.83C62.1501 27.1146 62.2478 27.3992 62.2478 27.6838C62.3456 27.9683 62.4434 28.1581 62.6389 28.3478C62.8345 28.5375 63.03 28.7272 63.3233 28.8221C63.6166 28.917 63.91 29.0118 64.2033 29.0118C64.4966 29.0118 64.7899 28.917 65.0832 28.8221C65.3765 28.7272 65.5721 28.5375 65.7676 28.3478C65.9632 28.1581 66.0609 27.9683 66.1587 27.6838C66.2565 27.3992 66.3542 27.1146 66.3542 26.83C66.3542 26.5454 66.2565 26.2608 66.1587 25.9763C66.0609 25.6917 65.8654 25.502 65.7676 25.3122C65.5721 25.1225 65.3765 24.9328 65.0832 24.8379C64.7899 24.6482 64.4966 24.6482 64.2033 24.6482ZM73.4916 23.2253C73.6871 23.2253 73.9804 23.2253 74.0782 23.2253C74.2737 23.2253 74.4693 23.3201 74.6648 23.415L74.2737 24.8379C74.0782 24.7431 73.8826 24.7431 73.6871 24.6482C73.4916 24.6482 73.296 24.5533 73.1005 24.5533C72.9049 24.5533 72.6116 24.5533 72.4161 24.6482C72.2205 24.7431 72.025 24.8379 71.9272 25.0276C71.8294 25.2174 71.6339 25.4071 71.5361 25.5968C71.4384 25.7865 71.4383 26.0711 71.4383 26.3557V30.0553H69.874V23.2253H71.3406V23.9842C71.5361 23.6996 71.8294 23.415 72.2205 23.2253C72.7094 23.3201 73.1005 23.2253 73.4916 23.2253ZM78.5757 23.2253C79.0645 23.2253 79.5534 23.3201 79.8467 23.5099C80.2378 23.6996 80.5311 23.8893 80.7266 24.2688V20H82.291V30.245H80.7266V29.3913C80.5311 29.6759 80.14 29.9604 79.8467 30.1502C79.4556 30.3399 79.0645 30.4347 78.5757 30.4347C78.0868 30.4347 77.5979 30.3399 77.2069 30.1502C76.8158 29.9604 76.4247 29.7707 76.1314 29.3913C75.8381 29.1067 75.5447 28.7272 75.3492 28.2529C75.1537 27.7786 75.0559 27.3043 75.0559 26.83C75.0559 26.3557 75.1537 25.7865 75.3492 25.4071C75.5447 24.9328 75.7403 24.5533 76.1314 24.2688C76.4247 23.9842 76.8158 23.6996 77.2069 23.5099C77.5979 23.3201 78.0868 23.2253 78.5757 23.2253ZM78.7712 24.6482C78.4779 24.6482 78.1846 24.7431 77.8913 24.8379C77.598 24.9328 77.4024 25.1225 77.2069 25.3122C77.0113 25.502 76.9135 25.6917 76.8158 25.9763C76.6202 26.2608 76.6202 26.5454 76.6202 26.83C76.6202 27.1146 76.718 27.3992 76.718 27.6838C76.8158 27.9683 76.9136 28.1581 77.1091 28.3478C77.3046 28.5375 77.5002 28.7272 77.7935 28.8221C78.0868 28.917 78.3801 29.0118 78.6734 29.0118C78.9668 29.0118 79.2601 28.917 79.5534 28.8221C79.8467 28.7272 80.0422 28.5375 80.2378 28.3478C80.4333 28.1581 80.5311 27.9683 80.6289 27.6838C80.7266 27.3992 80.8244 27.1146 80.8244 26.83C80.8244 26.5454 80.7266 26.2608 80.6289 25.9763C80.5311 25.6917 80.3355 25.502 80.2378 25.3122C80.0422 25.1225 79.8467 24.9328 79.5534 24.8379C79.3578 24.6482 79.0645 24.6482 78.7712 24.6482Z" fill="#E41522"/>
</svg>
