<svg width="86" height="64" viewBox="0 0 86 64" fill="none" xmlns="http://www.w3.org/2000/svg">
<path d="M38.8867 35.8053L40.8286 23.4026H43.8802L41.9383 35.8053H38.8867Z" fill="#074784"/>
<path d="M29.8697 23.4026H34.7245C37.7761 23.4026 38.6083 25.2348 38.1922 27.3489C37.9148 29.1811 36.6664 30.3086 35.0019 30.7314L38.0535 35.8053H34.0309L31.6729 30.8724L30.9794 35.8053H27.7891L29.8697 23.4026ZM32.6439 25.7986L32.089 28.8992H33.06C33.8922 28.8992 34.7245 28.1945 34.8632 27.3489C35.0019 26.5033 34.4471 25.7986 33.4761 25.7986H32.6439Z" fill="#074784"/>
<path d="M53.1719 35.8053L55.1138 23.4026H58.3041L56.3622 35.8053H53.1719Z" fill="#074784"/>
<path d="M63.4368 26.0804L63.0207 28.1945H66.6271L66.2109 30.8724H62.6045L62.3271 33.1274H66.0722L65.6561 35.8053H58.7207L60.6626 23.4026H67.598L67.1819 26.0804H63.4368Z" fill="#074784"/>
<path d="M23.7649 26.0804L23.4875 28.1945H27.0939L26.6778 30.8724H23.0714L22.6552 33.1274H26.4004L25.9842 35.8053H19.0488L20.9907 23.4026H27.9262L27.51 26.0804H23.7649Z" fill="#074784"/>
<path d="M49.011 26.0804L48.7336 28.1945H52.2013L51.7852 30.8724H48.3175L47.4852 35.8053H44.2949L46.2368 23.4026H53.311L52.8948 26.0804H49.011Z" fill="#074784"/>
<path d="M73.5641 23.4026H69.4029L67.4609 35.8053H71.6222C75.506 35.8053 78.6963 33.1274 79.2511 29.6039C79.5286 27.208 78.4189 23.4026 73.5641 23.4026ZM75.9221 29.463C75.506 31.718 73.9802 33.1274 71.8996 33.1274C71.6222 33.1274 71.3448 33.1274 71.0674 33.1274L72.177 26.0804C72.4544 26.0804 72.5931 26.0804 72.8706 26.0804C75.2286 26.0804 76.1996 27.7717 75.9221 29.463Z" fill="#074784"/>
<path d="M6.28906 21.7114H12.1148L12.8083 30.7315C16.6922 23.9664 20.576 17.4832 24.5985 11H26.5405C22.3792 19.1745 18.218 27.4899 14.1954 35.8054H9.89548L8.78581 25.7987C8.50839 23.4027 8.09227 22.2752 6.28906 22.1342V21.7114Z" fill="#074784"/>
<path d="M14.1968 24.3891L18.7742 16.4965V16.2146H8.50977V16.4965L13.5033 18.7515L13.9194 24.3891H14.1968Z" fill="#F09C11"/>
<path d="M32.3685 42.7114C31.5362 42.7114 30.8427 43.1343 30.2879 43.698L30.9814 38.7651H28.9008L27.375 49.6175H29.4556L29.5943 48.7718C30.0105 49.3356 30.5653 49.7584 31.3975 49.7584C33.062 49.7584 34.5878 48.2081 34.8652 46.2349C35.1427 44.2618 34.033 42.7114 32.3685 42.7114ZM32.6459 46.2349C32.5072 47.0806 31.8137 47.7853 31.1201 47.7853C30.4266 47.7853 29.8717 47.0806 30.0105 46.2349C30.1492 45.3893 30.8427 44.6846 31.5362 44.6846C32.2298 44.6846 32.7846 45.3893 32.6459 46.2349Z" fill="#074784"/>
<path d="M40.6891 42.8523H43.0472L36.8053 52.9999H34.4473L37.0827 48.7718L35.0021 42.8523H37.3601L38.4698 46.3758L40.6891 42.8523Z" fill="#074784"/>
<path d="M57.0574 49.6175H54.1445L57.4735 38.7651H60.3864L57.0574 49.6175Z" fill="#074784"/>
<path d="M52.895 38.7651L49.0111 45.8121L48.7337 38.7651H43.7402V39.188C45.4047 39.188 45.6821 39.4698 45.9596 40.7383L46.9305 49.6175H49.9821L56.0853 38.7651H52.895Z" fill="#074784"/>
<path d="M71.8995 48.0671L71.2059 49.6175H68.0156L73.8414 38.7651H77.7252L78.6962 49.6175H76.4768H75.5059L75.3672 48.0671H71.8995ZM72.8704 45.9531H75.3672L75.0897 40.8792L72.8704 45.9531Z" fill="#074784"/>
<path d="M63.4367 49.8993C61.3561 49.8993 59.969 49.1946 58.998 48.6308L60.3851 46.5167C61.2174 47.0805 61.9109 47.6442 63.5754 47.6442C64.1302 47.6442 64.5464 47.5033 64.8238 47.0805C65.2399 46.3758 64.6851 45.953 63.5754 45.3892L63.0206 44.8254C61.3561 43.6979 60.5238 42.5704 61.3561 40.5972C61.9109 39.3288 63.1593 38.4832 65.3786 38.4832C66.9044 38.4832 68.2915 39.1879 69.1237 39.7516L67.4592 41.5838C66.627 40.8791 65.9335 40.5972 65.2399 40.5972C64.6851 40.5972 64.1302 40.8791 63.9915 41.161C63.7141 41.7248 64.1302 42.1476 64.9625 42.7113L65.656 43.1342C67.7367 44.4026 68.1528 45.812 67.7367 47.0805C67.0431 49.4764 65.2399 49.8993 63.4367 49.8993Z" fill="#074784"/>
</svg>
