<svg width="86" height="64" viewBox="0 0 86 64" fill="none" xmlns="http://www.w3.org/2000/svg">
<path d="M74.2883 31.5C74.2883 41.6513 65.856 50 55.3883 50C45.0175 50 36.4883 41.6513 36.4883 31.5C36.4883 21.3487 44.9206 13 55.2914 13C65.856 13 74.2883 21.3487 74.2883 31.5Z" fill="#F9B50B"/>
<path d="M48.9921 31.5949C48.9921 30.2667 48.7983 28.9385 48.6044 27.7051H36.9737C37.0706 27.041 37.2644 26.4718 37.4583 25.7128H47.8291C47.6352 25.0487 47.3444 24.3846 47.0537 23.7205H38.2337C38.5244 23.0564 38.9121 22.4872 39.2998 21.7282H45.9875C45.5998 21.0641 45.1152 20.4 44.5337 19.7359H40.8506C41.4321 19.0718 42.0137 18.5026 42.7891 17.8385C39.4937 14.8026 35.0352 13 30.0921 13C19.8183 13.2846 11.2891 21.3487 11.2891 31.5C11.2891 41.6513 19.7214 50 30.1891 50C35.1321 50 39.4937 48.1026 42.886 45.1615C43.5644 44.5923 44.146 43.9282 44.8244 43.1692H40.9475C40.4629 42.6 39.9783 41.9359 39.5906 41.2718H46.1814C46.5691 40.7026 46.9568 40.0385 47.2475 39.2795H38.4275C38.1368 38.7103 37.846 38.0462 37.6521 37.2872H48.0229C48.6045 35.5795 48.9921 33.6821 48.9921 31.5949Z" fill="#C8191C"/>
<path d="M36.8764 36.2434L37.1672 34.5357C37.0703 34.5357 36.8764 34.6306 36.6826 34.6306C36.0041 34.6306 35.9072 34.2511 36.0041 34.0614L36.5857 30.646H37.6518L37.9426 28.7486H36.9734L37.1672 27.6101H35.1318C35.1318 27.6101 33.9688 34.0614 33.9688 34.8204C33.9688 35.9588 34.6472 36.5281 35.6164 36.5281C36.198 36.5281 36.6826 36.3383 36.8764 36.2434Z" fill="white"/>
<path d="M37.5586 33.1127C37.5586 35.864 39.4971 36.5281 41.0478 36.5281C42.5017 36.5281 43.1801 36.2435 43.1801 36.2435L43.5678 34.3461C43.5678 34.3461 42.5017 34.8204 41.4355 34.8204C39.2063 34.8204 39.594 33.2076 39.594 33.2076H43.6647C43.6647 33.2076 43.9555 31.9743 43.9555 31.405C43.9555 30.1717 43.2771 28.5589 41.0478 28.5589C39.1094 28.464 37.5586 30.6461 37.5586 33.1127ZM41.0478 30.2666C42.114 30.2666 41.9201 31.4999 41.9201 31.5948H39.6909C39.7878 31.4999 39.9817 30.2666 41.0478 30.2666Z" fill="white"/>
<path d="M53.7434 36.2434L54.1311 34.0614C54.1311 34.0614 53.1618 34.5357 52.3864 34.5357C51.0295 34.5357 50.3511 33.4921 50.3511 32.2588C50.3511 29.887 51.5141 28.6537 52.968 28.6537C53.9372 28.6537 54.8095 29.2229 54.8095 29.2229L55.1003 27.1357C55.1003 27.1357 53.9372 26.6614 52.7741 26.6614C50.448 26.6614 48.2188 28.6537 48.2188 32.3537C48.2188 34.8204 49.3818 36.4332 51.8049 36.4332C52.6772 36.528 53.7434 36.2434 53.7434 36.2434Z" fill="white"/>
<path d="M25.9245 28.4641C24.5676 28.4641 23.5015 28.8436 23.5015 28.8436L23.2107 30.5513C23.2107 30.5513 24.083 30.1718 25.4399 30.1718C26.1184 30.1718 26.6999 30.2667 26.6999 30.8359C26.6999 31.2154 26.603 31.3103 26.603 31.3103H25.7307C23.9861 31.3103 22.1445 31.9744 22.1445 34.2513C22.1445 36.0539 23.3076 36.4333 24.083 36.4333C25.4399 36.4333 26.1184 35.5795 26.2153 35.5795L26.1184 36.3385H27.7661L28.5415 30.9308C28.5415 28.559 26.603 28.4641 25.9245 28.4641ZM26.3122 32.8282C26.3122 33.1128 26.1184 34.7257 24.9553 34.7257C24.3738 34.7257 24.1799 34.2513 24.1799 33.9667C24.1799 33.4923 24.4707 32.8282 26.0215 32.8282C26.2153 32.8282 26.3122 32.8282 26.3122 32.8282Z" fill="white"/>
<path d="M30.4817 36.4332C30.9663 36.4332 33.4863 36.5281 33.4863 33.8717C33.4863 31.405 31.0632 31.8794 31.0632 30.9307C31.0632 30.4563 31.4509 30.2666 32.1294 30.2666C32.4201 30.2666 33.4863 30.3614 33.4863 30.3614L33.7771 28.5589C33.7771 28.5589 33.0986 28.3691 31.8386 28.3691C30.3847 28.3691 28.834 28.9384 28.834 30.9307C28.834 33.2076 31.354 33.0179 31.354 33.8717C31.354 34.4409 30.6755 34.5358 30.1909 34.5358C29.3186 34.5358 28.3494 34.2512 28.3494 34.2512L28.0586 36.0538C28.2524 36.2435 28.834 36.4332 30.4817 36.4332Z" fill="white"/>
<path d="M70.4138 26.946L70.0261 29.6025C70.0261 29.6025 69.2507 28.6537 68.0876 28.6537C66.2461 28.6537 64.6953 30.8358 64.6953 33.3973C64.6953 35.0101 65.4707 36.623 67.2153 36.623C68.3784 36.623 69.1538 35.864 69.1538 35.864L69.0569 36.5281H71.0922L72.5461 27.1358L70.4138 26.946ZM69.4445 32.0691C69.4445 33.1127 68.9599 34.5358 67.7969 34.5358C67.1184 34.5358 66.7307 33.9666 66.7307 32.923C66.7307 31.3101 67.4092 30.3614 68.3784 30.3614C69.0569 30.4563 69.4445 30.9307 69.4445 32.0691Z" fill="white"/>
<path d="M14.9736 36.3384L16.1367 29.3178L16.3305 36.3384H17.6875L20.3044 29.3178L19.2382 36.3384H21.3705L23.0182 26.946H19.7228L17.6875 32.7332L17.5905 26.946H14.6828L13.0352 36.3384H14.9736Z" fill="white"/>
<path d="M45.987 36.3384C46.5686 33.1128 46.6655 30.4564 48.1194 30.9307C48.3132 29.6974 48.604 29.1282 48.7978 28.6538H48.4101C47.5378 28.6538 46.7624 29.7923 46.7624 29.7923L46.9563 28.7487H45.0178L43.7578 36.3384H45.987Z" fill="white"/>
<path d="M58.3933 28.4641C57.0364 28.4641 55.9702 28.8436 55.9702 28.8436L55.6794 30.5513C55.6794 30.5513 56.5517 30.1718 57.9087 30.1718C58.5871 30.1718 59.1687 30.2667 59.1687 30.8359C59.1687 31.2154 59.0717 31.3103 59.0717 31.3103H58.1994C56.4548 31.3103 54.6133 31.9744 54.6133 34.2513C54.6133 36.0539 55.7764 36.4333 56.5517 36.4333C57.9087 36.4333 58.5871 35.5795 58.6841 35.5795L58.5871 36.3385H60.4287L61.204 30.9308C61.204 28.559 59.0717 28.4641 58.3933 28.4641ZM58.8779 32.8282C58.8779 33.1128 58.6841 34.7257 57.521 34.7257C56.9394 34.7257 56.7456 34.2513 56.7456 33.9667C56.7456 33.4923 57.0364 32.8282 58.5871 32.8282C58.781 32.8282 58.781 32.8282 58.8779 32.8282Z" fill="white"/>
<path d="M62.7566 36.3384C63.3381 33.1128 63.435 30.4564 64.8889 30.9307C65.0827 29.6974 65.3735 29.1282 65.5673 28.6538H65.1797C64.3073 28.6538 63.532 29.7923 63.532 29.7923L63.7258 28.7487H61.7873L60.5273 36.3384H62.7566Z" fill="white"/>
</svg>
