<svg width="86" height="64" viewBox="0 0 86 64" fill="none" xmlns="http://www.w3.org/2000/svg">
<path d="M48.6224 30.7464L44.3367 26.1304L39.5748 30.2754L43.8605 34.9855L48.6224 30.7464Z" fill="#137ABE"/>
<path d="M36.1462 22.3623L40.4319 26.9783L45.1938 22.8333L40.9081 18.2174L36.1462 22.3623Z" fill="#137ABE"/>
<path d="M51.9557 38.7536L47.67 34.1377L42.9081 38.3768L47.1938 42.9928L51.9557 38.7536Z" fill="#137ABE"/>
<path d="M47.0033 46.4783L39.1938 37.9058L41.3843 36.0217L35.8605 29.9928L38.051 28.1087L32.5272 22.0797L41.1938 14.4493L43.9557 17.3696L48.7176 13.3188L51.4795 16.1449L53.2891 14.5435C52.9081 14.3551 52.4319 14.0725 52.051 13.8841C49.2891 12.7536 46.3367 12 43.1938 12C32.2414 12 23.2891 20.7609 23.2891 31.5C23.2891 42.2391 32.2414 51 43.2891 51C46.9081 51 50.2414 50.058 53.0986 48.4565C54.051 47.8913 54.9081 47.3261 55.7653 46.7609L51.7653 42.3333L47.0033 46.4783Z" fill="#137ABE"/>
<path d="M44.9081 20.1014L48.051 23.587L51.67 20.4783L48.4319 16.9928L44.9081 20.1014Z" fill="#137ABE"/>
<path d="M54.9081 27.4493L51.67 23.9638L48.1462 27.1667L51.3843 30.558L54.9081 27.4493Z" fill="#137ABE"/>
<path d="M57.9557 34.7971L54.7176 31.3116L51.1938 34.4203L54.4319 38L57.9557 34.7971Z" fill="#137ABE"/>
<path d="M58.1462 23.3043L55.7653 25.3768L57.9557 27.7319L60.2414 25.6594L58.1462 23.3043Z" fill="#137ABE"/>
<path d="M58.8129 32.2536L60.9081 34.6087L63.2891 32.5362L61.0986 30.1812L58.8129 32.2536Z" fill="#137ABE"/>
<path d="M52.7176 18.5L54.9081 20.8551L57.1938 18.7826L55.0986 16.4275L52.7176 18.5Z" fill="#137ABE"/>
<path d="M54.3367 41.4855L57.5748 44.971L61.0986 41.8623L57.8605 38.3768L54.3367 41.4855Z" fill="#137ABE"/>
</svg>
